<svg width="20" height="20" viewBox="0 0 20 20" fill="none" xmlns="http://www.w3.org/2000/svg">
<path opacity="0.4" d="M1.66602 13.491L1.66602 6.50768C1.66602 3.47435 3.47435 1.66602 6.50768 1.66602L13.4827 1.66602C16.5243 1.66602 18.3327 3.47435 18.3327 6.50768V13.4827C18.3327 16.516 16.5243 18.3243 13.491 18.3243H6.50768C3.47435 18.3327 1.66602 16.5243 1.66602 13.491Z" fill="#ACE7C7"/>
<path d="M9.55898 15.4417L5.98398 11.8667C5.74232 11.625 5.74232 11.225 5.98398 10.9833C6.22565 10.7417 6.62565 10.7417 6.86732 10.9833L9.37565 13.4917L9.37565 5C9.37565 4.65833 9.65898 4.375 10.0007 4.375C10.3423 4.375 10.6257 4.65833 10.6257 5V13.4917L13.134 10.9833C13.3757 10.7417 13.7757 10.7417 14.0173 10.9833C14.1423 11.1083 14.2007 11.2667 14.2007 11.425C14.2007 11.5833 14.1423 11.7417 14.0173 11.8667L10.4423 15.4417C10.3257 15.5583 10.1673 15.625 10.0007 15.625C9.83398 15.625 9.67565 15.5583 9.55898 15.4417Z" fill="#ACE7C7"/>
</svg>
