<svg width="24" height="24" viewBox="0 0 24 24" fill="none" xmlns="http://www.w3.org/2000/svg">
<path d="M21.6702 6.94942C21.0302 4.77942 19.2202 2.96942 17.0502 2.32942C15.4002 1.84942 14.2602 1.88942 13.4702 2.47942C12.5202 3.18942 12.4102 4.46942 12.4102 5.37942V7.86942C12.4102 10.3294 13.5302 11.5794 15.7302 11.5794H18.6002C19.5002 11.5794 20.7902 11.4694 21.5002 10.5194C22.1102 9.73942 22.1602 8.59942 21.6702 6.94942Z" fill="white"/>
<path opacity="0.4" d="M18.9104 13.3592C18.6504 13.0592 18.2704 12.8892 17.8804 12.8892H14.3004C12.5404 12.8892 11.1104 11.4592 11.1104 9.69917V6.11917C11.1104 5.72917 10.9404 5.34917 10.6404 5.08917C10.3504 4.82917 9.95039 4.70917 9.57039 4.75917C7.22039 5.05917 5.06039 6.34917 3.65039 8.28917C2.23039 10.2392 1.71039 12.6192 2.16039 14.9992C2.81039 18.4392 5.56039 21.1892 9.01039 21.8392C9.56039 21.9492 10.1104 21.9992 10.6604 21.9992C12.4704 21.9992 14.2204 21.4392 15.7104 20.3492C17.6504 18.9392 18.9404 16.7792 19.2404 14.4292C19.2904 14.0392 19.1704 13.6492 18.9104 13.3592Z" fill="white"/>
</svg>
