<svg width="24" height="24" viewBox="0 0 24 24" fill="none" xmlns="http://www.w3.org/2000/svg">
<path opacity="0.4" d="M19.3 7.91949V13.0695C19.3 16.1495 17.54 17.4695 14.9 17.4695H6.10995C5.65995 17.4695 5.22996 17.4295 4.82996 17.3395C4.57996 17.2995 4.33996 17.2295 4.11996 17.1495C2.61996 16.5895 1.70996 15.2895 1.70996 13.0695V7.91949C1.70996 4.83949 3.46995 3.51953 6.10995 3.51953H14.9C17.14 3.51953 18.75 4.46953 19.18 6.63953C19.25 7.03953 19.3 7.44949 19.3 7.91949Z" fill="white"/>
<path d="M22.3001 10.9206V16.0706C22.3001 19.1506 20.5401 20.4706 17.9001 20.4706H9.11008C8.37008 20.4706 7.70009 20.3706 7.12009 20.1506C5.93009 19.7106 5.12008 18.8006 4.83008 17.3406C5.23008 17.4306 5.66008 17.4706 6.11008 17.4706H14.9001C17.5401 17.4706 19.3001 16.1506 19.3001 13.0706V7.92059C19.3001 7.45059 19.2601 7.03062 19.1801 6.64062C21.0801 7.04063 22.3001 8.38059 22.3001 10.9206Z" fill="white"/>
<path d="M10.5004 13.1394C11.9584 13.1394 13.1404 11.9574 13.1404 10.4994C13.1404 9.04136 11.9584 7.85938 10.5004 7.85938C9.04233 7.85938 7.86035 9.04136 7.86035 10.4994C7.86035 11.9574 9.04233 13.1394 10.5004 13.1394Z" fill="white"/>
<path d="M4.78027 8.25C4.37027 8.25 4.03027 8.59 4.03027 9V12C4.03027 12.41 4.37027 12.75 4.78027 12.75C5.19027 12.75 5.53027 12.41 5.53027 12V9C5.53027 8.59 5.20027 8.25 4.78027 8.25Z" fill="white"/>
<path d="M16.21 8.25C15.8 8.25 15.46 8.59 15.46 9V12C15.46 12.41 15.8 12.75 16.21 12.75C16.62 12.75 16.96 12.41 16.96 12V9C16.96 8.59 16.63 8.25 16.21 8.25Z" fill="white"/>
</svg>
