<svg width="20" height="20" viewBox="0 0 20 20" fill="none" xmlns="http://www.w3.org/2000/svg">
<path opacity="0.4" d="M7.5 5.99935V13.991C7.5 16.666 9.16667 18.3327 11.8333 18.3327H13.9917C16.6583 18.3327 18.325 16.666 18.325 13.9993V5.99935C18.3333 3.33268 16.6667 1.66602 14 1.66602H11.8333C9.16667 1.66602 7.5 3.33268 7.5 5.99935Z" fill="white"/>
<path d="M10.3587 6.76758L13.1503 9.55925C13.392 9.80091 13.392 10.2009 13.1503 10.4426L10.3587 13.2342C10.117 13.4759 9.71699 13.4759 9.47533 13.2342C9.23366 12.9926 9.23366 12.5926 9.47533 12.3509L11.2003 10.6259H2.29199C1.95033 10.6259 1.66699 10.3426 1.66699 10.0009C1.66699 9.65925 1.95033 9.37591 2.29199 9.37591H11.2003L9.47533 7.65091C9.35033 7.52591 9.29199 7.36758 9.29199 7.20924C9.29199 7.05091 9.35033 6.89258 9.47533 6.76758C9.71699 6.51758 10.1087 6.51758 10.3587 6.76758Z" fill="white"/>
</svg>
