<svg width="500" height="475" viewBox="0 0 500 475" fill="none" xmlns="http://www.w3.org/2000/svg">
<g filter="url(#filter0_d_6180_322)">
<rect x="40.5" y="36.5" width="419" height="394" rx="7.5" stroke="#2D995F" shape-rendering="crispEdges"/>
<path d="M77.4261 68H76.1932C76.1203 67.6454 75.9927 67.3338 75.8104 67.0653C75.6314 66.7969 75.4126 66.5715 75.1541 66.3892C74.8989 66.2036 74.6155 66.0644 74.304 65.9716C73.9924 65.8788 73.6676 65.8324 73.3295 65.8324C72.7131 65.8324 72.1546 65.9882 71.6541 66.2997C71.157 66.6113 70.7609 67.0703 70.4659 67.6768C70.1742 68.2834 70.0284 69.0275 70.0284 69.9091C70.0284 70.7907 70.1742 71.5348 70.4659 72.1413C70.7609 72.7479 71.157 73.2069 71.6541 73.5185C72.1546 73.83 72.7131 73.9858 73.3295 73.9858C73.6676 73.9858 73.9924 73.9394 74.304 73.8466C74.6155 73.7538 74.8989 73.6162 75.1541 73.4339C75.4126 73.2483 75.6314 73.0213 75.8104 72.7528C75.9927 72.4811 76.1203 72.1695 76.1932 71.8182H77.4261C77.3333 72.3385 77.1643 72.8042 76.919 73.2152C76.6738 73.6262 76.3688 73.9759 76.0043 74.2642C75.6397 74.5492 75.2304 74.7663 74.7763 74.9155C74.3255 75.0646 73.8433 75.1392 73.3295 75.1392C72.4612 75.1392 71.6889 74.9271 71.0128 74.5028C70.3366 74.0786 69.8047 73.4754 69.4169 72.6932C69.0291 71.911 68.8352 70.983 68.8352 69.9091C68.8352 68.8352 69.0291 67.9072 69.4169 67.125C69.8047 66.3428 70.3366 65.7396 71.0128 65.3153C71.6889 64.8911 72.4612 64.679 73.3295 64.679C73.8433 64.679 74.3255 64.7536 74.7763 64.9027C75.2304 65.0518 75.6397 65.2706 76.0043 65.5589C76.3688 65.844 76.6738 66.192 76.919 66.603C77.1643 67.0107 77.3333 67.4763 77.4261 68ZM79.8361 75H78.5435L82.2821 64.8182H83.5549L87.2935 75H86.0009L82.9583 66.429H82.8787L79.8361 75ZM80.3134 71.0227H85.5236V72.1165H80.3134V71.0227ZM94.4476 67.3636C94.388 66.8598 94.146 66.4688 93.7218 66.1903C93.2975 65.9119 92.7772 65.7727 92.1607 65.7727C91.7099 65.7727 91.3155 65.8456 90.9775 65.9915C90.6427 66.1373 90.3809 66.3378 90.1919 66.593C90.0063 66.8482 89.9135 67.1383 89.9135 67.4631C89.9135 67.7348 89.9782 67.9685 90.1074 68.1641C90.24 68.3563 90.409 68.517 90.6145 68.6463C90.82 68.7723 91.0355 68.8767 91.2608 68.9595C91.4862 69.0391 91.6934 69.1037 91.8823 69.1534L92.9164 69.4318C93.1815 69.5014 93.4765 69.5975 93.8013 69.7202C94.1294 69.8428 94.4426 70.0102 94.7409 70.2223C95.0426 70.4311 95.2911 70.6996 95.4867 71.0277C95.6822 71.3558 95.78 71.7585 95.78 72.2358C95.78 72.786 95.6358 73.2831 95.3475 73.7273C95.0624 74.1714 94.6448 74.5244 94.0946 74.7862C93.5478 75.0481 92.8832 75.179 92.101 75.179C91.3719 75.179 90.7405 75.0613 90.2069 74.826C89.6766 74.5907 89.2589 74.2625 88.954 73.8416C88.6524 73.4207 88.4817 72.9318 88.4419 72.375H89.7147C89.7478 72.7595 89.8771 73.0777 90.1025 73.3295C90.3311 73.5781 90.6195 73.7637 90.9675 73.8864C91.3188 74.0057 91.6967 74.0653 92.101 74.0653C92.5717 74.0653 92.9943 73.9891 93.3688 73.8366C93.7433 73.6809 94.04 73.4654 94.2587 73.1903C94.4775 72.9119 94.5868 72.5871 94.5868 72.2159C94.5868 71.8778 94.4924 71.6027 94.3034 71.3906C94.1145 71.1785 93.8659 71.0062 93.5577 70.8736C93.2495 70.741 92.9164 70.625 92.5584 70.5256L91.3056 70.1676C90.5101 69.9389 89.8804 69.6125 89.4164 69.1882C88.9524 68.764 88.7203 68.2088 88.7203 67.5227C88.7203 66.9527 88.8745 66.4555 89.1827 66.0312C89.4943 65.6037 89.9119 65.2723 90.4355 65.0369C90.9625 64.7983 91.5508 64.679 92.2005 64.679C92.8567 64.679 93.44 64.7966 93.9505 65.032C94.4609 65.264 94.8652 65.5821 95.1635 65.9865C95.4651 66.3909 95.6242 66.8499 95.6408 67.3636H94.4476ZM97.8072 75V64.8182H99.0401V69.3523H104.469V64.8182H105.702V75H104.469V70.446H99.0401V75H97.8072ZM112.108 75V64.8182H118.213V65.9119H113.341V69.3523H117.756V70.446H113.341V75H112.108ZM120.325 75V64.8182H121.558V73.9062H126.291V75H120.325ZM136.394 69.9091C136.394 70.983 136.2 71.911 135.812 72.6932C135.425 73.4754 134.893 74.0786 134.217 74.5028C133.54 74.9271 132.768 75.1392 131.9 75.1392C131.031 75.1392 130.259 74.9271 129.583 74.5028C128.907 74.0786 128.375 73.4754 127.987 72.6932C127.599 71.911 127.406 70.983 127.406 69.9091C127.406 68.8352 127.599 67.9072 127.987 67.125C128.375 66.3428 128.907 65.7396 129.583 65.3153C130.259 64.8911 131.031 64.679 131.9 64.679C132.768 64.679 133.54 64.8911 134.217 65.3153C134.893 65.7396 135.425 66.3428 135.812 67.125C136.2 67.9072 136.394 68.8352 136.394 69.9091ZM135.201 69.9091C135.201 69.0275 135.054 68.2834 134.759 67.6768C134.467 67.0703 134.071 66.6113 133.57 66.2997C133.073 65.9882 132.516 65.8324 131.9 65.8324C131.283 65.8324 130.725 65.9882 130.224 66.2997C129.727 66.6113 129.331 67.0703 129.036 67.6768C128.745 68.2834 128.599 69.0275 128.599 69.9091C128.599 70.7907 128.745 71.5348 129.036 72.1413C129.331 72.7479 129.727 73.2069 130.224 73.5185C130.725 73.83 131.283 73.9858 131.9 73.9858C132.516 73.9858 133.073 73.83 133.57 73.5185C134.071 73.2069 134.467 72.7479 134.759 72.1413C135.054 71.5348 135.201 70.7907 135.201 69.9091ZM140.317 75L137.533 64.8182H138.786L140.913 73.1108H141.013L143.18 64.8182H144.572L146.74 73.1108H146.839L148.967 64.8182H150.22L147.436 75H146.163L143.916 66.8864H143.837L141.589 75H140.317Z" fill="#343A40"/>
<path d="M76.0795 142H75.0227C74.9602 141.696 74.8509 141.429 74.6946 141.199C74.5412 140.969 74.3537 140.776 74.1321 140.619C73.9134 140.46 73.6705 140.341 73.4034 140.261C73.1364 140.182 72.858 140.142 72.5682 140.142C72.0398 140.142 71.5611 140.276 71.1321 140.543C70.706 140.81 70.3665 141.203 70.1136 141.723C69.8636 142.243 69.7386 142.881 69.7386 143.636C69.7386 144.392 69.8636 145.03 70.1136 145.55C70.3665 146.07 70.706 146.463 71.1321 146.73C71.5611 146.997 72.0398 147.131 72.5682 147.131C72.858 147.131 73.1364 147.091 73.4034 147.011C73.6705 146.932 73.9134 146.814 74.1321 146.658C74.3537 146.499 74.5412 146.304 74.6946 146.074C74.8509 145.841 74.9602 145.574 75.0227 145.273H76.0795C76 145.719 75.8551 146.118 75.6449 146.47C75.4347 146.822 75.1733 147.122 74.8608 147.369C74.5483 147.614 74.1974 147.8 73.8082 147.928C73.4219 148.055 73.0085 148.119 72.5682 148.119C71.8239 148.119 71.1619 147.938 70.5824 147.574C70.0028 147.21 69.5469 146.693 69.2145 146.023C68.8821 145.352 68.7159 144.557 68.7159 143.636C68.7159 142.716 68.8821 141.92 69.2145 141.25C69.5469 140.58 70.0028 140.062 70.5824 139.699C71.1619 139.335 71.8239 139.153 72.5682 139.153C73.0085 139.153 73.4219 139.217 73.8082 139.345C74.1974 139.473 74.5483 139.661 74.8608 139.908C75.1733 140.152 75.4347 140.45 75.6449 140.803C75.8551 141.152 76 141.551 76.0795 142ZM81.7759 145.324V141.455H82.7816V148H81.7759V146.892H81.7077C81.5543 147.224 81.3157 147.507 80.9918 147.74C80.668 147.97 80.2589 148.085 79.7646 148.085C79.3555 148.085 78.9918 147.996 78.6737 147.817C78.3555 147.635 78.1055 147.362 77.9237 146.999C77.7418 146.632 77.6509 146.17 77.6509 145.614V141.455H78.6566V145.545C78.6566 146.023 78.7901 146.403 79.0572 146.688C79.3271 146.972 79.6708 147.114 80.0884 147.114C80.3384 147.114 80.5927 147.05 80.8512 146.922C81.1126 146.794 81.3313 146.598 81.5075 146.334C81.6864 146.07 81.7759 145.733 81.7759 145.324ZM84.6236 148V141.455H85.5952V142.443H85.6634C85.7827 142.119 85.9986 141.857 86.3111 141.655C86.6236 141.453 86.9759 141.352 87.3679 141.352C87.4418 141.352 87.5341 141.354 87.6449 141.357C87.7557 141.359 87.8395 141.364 87.8963 141.369V142.392C87.8622 142.384 87.7841 142.371 87.6619 142.354C87.5426 142.334 87.4162 142.324 87.2827 142.324C86.9645 142.324 86.6804 142.391 86.4304 142.524C86.1832 142.655 85.9872 142.837 85.8423 143.07C85.7003 143.3 85.6293 143.562 85.6293 143.858V148H84.6236ZM89.0884 148V141.455H90.06V142.443H90.1282C90.2475 142.119 90.4634 141.857 90.7759 141.655C91.0884 141.453 91.4407 141.352 91.8327 141.352C91.9066 141.352 91.9989 141.354 92.1097 141.357C92.2205 141.359 92.3043 141.364 92.3612 141.369V142.392C92.3271 142.384 92.2489 142.371 92.1268 142.354C92.0075 142.334 91.881 142.324 91.7475 142.324C91.4293 142.324 91.1452 142.391 90.8952 142.524C90.6481 142.655 90.4521 142.837 90.3072 143.07C90.1651 143.3 90.0941 143.562 90.0941 143.858V148H89.0884ZM96.0984 148.136C95.4677 148.136 94.9237 147.997 94.4663 147.719C94.0117 147.438 93.6609 147.045 93.4137 146.543C93.1694 146.037 93.0472 145.449 93.0472 144.778C93.0472 144.108 93.1694 143.517 93.4137 143.006C93.6609 142.491 94.0046 142.091 94.445 141.804C94.8881 141.514 95.4052 141.369 95.9961 141.369C96.337 141.369 96.6737 141.426 97.006 141.54C97.3384 141.653 97.641 141.838 97.9137 142.094C98.1864 142.347 98.4038 142.682 98.5657 143.099C98.7276 143.517 98.8086 144.031 98.8086 144.642V145.068H93.7631V144.199H97.7859C97.7859 143.83 97.712 143.5 97.5643 143.21C97.4194 142.92 97.212 142.692 96.9421 142.524C96.6751 142.357 96.3597 142.273 95.9961 142.273C95.5955 142.273 95.2489 142.372 94.9563 142.571C94.6665 142.767 94.4435 143.023 94.2873 143.338C94.131 143.653 94.0529 143.991 94.0529 144.352V144.932C94.0529 145.426 94.1381 145.845 94.3086 146.189C94.4819 146.53 94.7219 146.79 95.0288 146.969C95.3356 147.145 95.6921 147.233 96.0984 147.233C96.3626 147.233 96.6012 147.196 96.8143 147.122C97.0302 147.045 97.2163 146.932 97.3725 146.781C97.5288 146.628 97.6495 146.437 97.7347 146.21L98.7063 146.483C98.604 146.812 98.4322 147.102 98.1907 147.352C97.9492 147.599 97.6509 147.793 97.2958 147.932C96.9407 148.068 96.5415 148.136 96.0984 148.136ZM101.344 144.062V148H100.338V141.455H101.31V142.477H101.395C101.549 142.145 101.782 141.878 102.094 141.676C102.407 141.472 102.81 141.369 103.304 141.369C103.748 141.369 104.135 141.46 104.468 141.642C104.8 141.821 105.059 142.094 105.243 142.46C105.428 142.824 105.52 143.284 105.52 143.841V148H104.515V143.909C104.515 143.395 104.381 142.994 104.114 142.707C103.847 142.418 103.48 142.273 103.015 142.273C102.694 142.273 102.407 142.342 102.154 142.482C101.904 142.621 101.706 142.824 101.561 143.091C101.417 143.358 101.344 143.682 101.344 144.062ZM110.205 141.455V142.307H106.812V141.455H110.205ZM107.801 139.886H108.807V146.125C108.807 146.409 108.848 146.622 108.93 146.764C109.016 146.903 109.124 146.997 109.254 147.045C109.388 147.091 109.528 147.114 109.676 147.114C109.787 147.114 109.878 147.108 109.949 147.097C110.02 147.082 110.077 147.071 110.119 147.062L110.324 147.966C110.256 147.991 110.161 148.017 110.038 148.043C109.916 148.071 109.761 148.085 109.574 148.085C109.29 148.085 109.011 148.024 108.739 147.902C108.469 147.78 108.244 147.594 108.065 147.344C107.889 147.094 107.801 146.778 107.801 146.398V139.886ZM117.751 148.136C117.138 148.136 116.609 147.991 116.166 147.702C115.723 147.412 115.382 147.013 115.143 146.504C114.905 145.996 114.786 145.415 114.786 144.761C114.786 144.097 114.908 143.51 115.152 143.001C115.399 142.49 115.743 142.091 116.183 141.804C116.626 141.514 117.143 141.369 117.734 141.369C118.195 141.369 118.609 141.455 118.979 141.625C119.348 141.795 119.651 142.034 119.886 142.341C120.122 142.648 120.268 143.006 120.325 143.415H119.32C119.243 143.116 119.072 142.852 118.808 142.622C118.547 142.389 118.195 142.273 117.751 142.273C117.359 142.273 117.016 142.375 116.72 142.58C116.428 142.781 116.199 143.067 116.034 143.436C115.872 143.803 115.791 144.233 115.791 144.727C115.791 145.233 115.871 145.673 116.03 146.048C116.192 146.423 116.419 146.714 116.712 146.922C117.007 147.129 117.354 147.233 117.751 147.233C118.013 147.233 118.25 147.188 118.463 147.097C118.676 147.006 118.857 146.875 119.004 146.705C119.152 146.534 119.257 146.33 119.32 146.091H120.325C120.268 146.477 120.128 146.825 119.903 147.135C119.682 147.442 119.388 147.686 119.021 147.868C118.658 148.047 118.234 148.136 117.751 148.136ZM123.722 148.153C123.307 148.153 122.93 148.075 122.592 147.919C122.254 147.76 121.986 147.531 121.787 147.233C121.588 146.932 121.489 146.568 121.489 146.142C121.489 145.767 121.563 145.463 121.71 145.23C121.858 144.994 122.055 144.81 122.303 144.676C122.55 144.543 122.822 144.443 123.121 144.378C123.422 144.31 123.724 144.256 124.028 144.216C124.426 144.165 124.749 144.126 124.996 144.101C125.246 144.072 125.428 144.026 125.541 143.96C125.658 143.895 125.716 143.781 125.716 143.619V143.585C125.716 143.165 125.601 142.838 125.371 142.605C125.143 142.372 124.798 142.256 124.335 142.256C123.855 142.256 123.479 142.361 123.206 142.571C122.933 142.781 122.741 143.006 122.631 143.244L121.676 142.903C121.847 142.506 122.074 142.196 122.358 141.974C122.645 141.75 122.957 141.594 123.295 141.506C123.636 141.415 123.972 141.369 124.301 141.369C124.511 141.369 124.753 141.395 125.026 141.446C125.301 141.494 125.567 141.595 125.822 141.749C126.081 141.902 126.295 142.134 126.466 142.443C126.636 142.753 126.722 143.168 126.722 143.688V148H125.716V147.114H125.665C125.597 147.256 125.483 147.408 125.324 147.57C125.165 147.732 124.953 147.869 124.689 147.983C124.425 148.097 124.102 148.153 123.722 148.153ZM123.875 147.25C124.273 147.25 124.608 147.172 124.881 147.016C125.156 146.859 125.364 146.658 125.503 146.411C125.645 146.163 125.716 145.903 125.716 145.631V144.71C125.673 144.761 125.58 144.808 125.435 144.851C125.293 144.891 125.128 144.926 124.94 144.957C124.756 144.986 124.575 145.011 124.399 145.034C124.226 145.054 124.085 145.071 123.977 145.085C123.716 145.119 123.472 145.175 123.244 145.251C123.02 145.325 122.838 145.437 122.699 145.588C122.563 145.736 122.494 145.937 122.494 146.193C122.494 146.543 122.624 146.807 122.882 146.986C123.143 147.162 123.474 147.25 123.875 147.25ZM133.194 142.92L132.29 143.176C132.233 143.026 132.15 142.879 132.039 142.737C131.931 142.592 131.783 142.473 131.596 142.379C131.408 142.286 131.168 142.239 130.875 142.239C130.475 142.239 130.141 142.331 129.874 142.516C129.61 142.697 129.478 142.929 129.478 143.21C129.478 143.46 129.569 143.658 129.75 143.803C129.932 143.947 130.216 144.068 130.603 144.165L131.574 144.403C132.159 144.545 132.596 144.763 132.882 145.055C133.169 145.345 133.313 145.719 133.313 146.176C133.313 146.551 133.205 146.886 132.989 147.182C132.776 147.477 132.478 147.71 132.094 147.881C131.711 148.051 131.265 148.136 130.756 148.136C130.088 148.136 129.536 147.991 129.098 147.702C128.661 147.412 128.384 146.989 128.267 146.432L129.222 146.193C129.313 146.545 129.485 146.81 129.738 146.986C129.993 147.162 130.327 147.25 130.739 147.25C131.208 147.25 131.58 147.151 131.855 146.952C132.134 146.75 132.273 146.509 132.273 146.227C132.273 146 132.194 145.81 132.034 145.656C131.875 145.5 131.631 145.384 131.301 145.307L130.211 145.051C129.611 144.909 129.171 144.689 128.89 144.391C128.611 144.089 128.472 143.713 128.472 143.261C128.472 142.892 128.576 142.565 128.783 142.281C128.993 141.997 129.279 141.774 129.64 141.612C130.003 141.45 130.415 141.369 130.875 141.369C131.523 141.369 132.032 141.511 132.401 141.795C132.773 142.08 133.037 142.455 133.194 142.92ZM135.832 144.062V148H134.827V139.273H135.832V142.477H135.918C136.071 142.139 136.301 141.871 136.608 141.672C136.918 141.47 137.33 141.369 137.844 141.369C138.29 141.369 138.68 141.459 139.016 141.638C139.351 141.814 139.611 142.085 139.795 142.452C139.983 142.815 140.077 143.278 140.077 143.841V148H139.071V143.909C139.071 143.389 138.936 142.987 138.666 142.703C138.399 142.416 138.028 142.273 137.554 142.273C137.224 142.273 136.929 142.342 136.668 142.482C136.409 142.621 136.205 142.824 136.054 143.091C135.906 143.358 135.832 143.682 135.832 144.062ZM145.428 148V139.273H146.434V142.494H146.519C146.593 142.381 146.695 142.236 146.826 142.06C146.959 141.881 147.15 141.722 147.397 141.582C147.647 141.44 147.985 141.369 148.411 141.369C148.962 141.369 149.448 141.507 149.868 141.783C150.289 142.058 150.617 142.449 150.853 142.955C151.088 143.46 151.206 144.057 151.206 144.744C151.206 145.438 151.088 146.038 150.853 146.547C150.617 147.053 150.29 147.445 149.873 147.723C149.455 147.999 148.973 148.136 148.428 148.136C148.007 148.136 147.671 148.067 147.418 147.928C147.165 147.786 146.971 147.625 146.834 147.446C146.698 147.264 146.593 147.114 146.519 146.994H146.4V148H145.428ZM146.417 144.727C146.417 145.222 146.489 145.658 146.634 146.036C146.779 146.411 146.99 146.705 147.269 146.918C147.547 147.128 147.888 147.233 148.292 147.233C148.712 147.233 149.063 147.122 149.344 146.901C149.628 146.676 149.841 146.375 149.983 145.997C150.128 145.616 150.201 145.193 150.201 144.727C150.201 144.267 150.13 143.852 149.988 143.483C149.848 143.111 149.637 142.817 149.353 142.601C149.071 142.382 148.718 142.273 148.292 142.273C147.882 142.273 147.539 142.376 147.26 142.584C146.982 142.788 146.772 143.075 146.63 143.445C146.488 143.811 146.417 144.239 146.417 144.727ZM154.671 148.153C154.256 148.153 153.88 148.075 153.542 147.919C153.203 147.76 152.935 147.531 152.736 147.233C152.537 146.932 152.438 146.568 152.438 146.142C152.438 145.767 152.512 145.463 152.659 145.23C152.807 144.994 153.005 144.81 153.252 144.676C153.499 144.543 153.772 144.443 154.07 144.378C154.371 144.31 154.674 144.256 154.978 144.216C155.375 144.165 155.698 144.126 155.945 144.101C156.195 144.072 156.377 144.026 156.49 143.96C156.607 143.895 156.665 143.781 156.665 143.619V143.585C156.665 143.165 156.55 142.838 156.32 142.605C156.093 142.372 155.748 142.256 155.284 142.256C154.804 142.256 154.428 142.361 154.155 142.571C153.882 142.781 153.691 143.006 153.58 143.244L152.625 142.903C152.796 142.506 153.023 142.196 153.307 141.974C153.594 141.75 153.907 141.594 154.245 141.506C154.586 141.415 154.921 141.369 155.25 141.369C155.461 141.369 155.702 141.395 155.975 141.446C156.25 141.494 156.516 141.595 156.772 141.749C157.03 141.902 157.245 142.134 157.415 142.443C157.586 142.753 157.671 143.168 157.671 143.688V148H156.665V147.114H156.614C156.546 147.256 156.432 147.408 156.273 147.57C156.114 147.732 155.902 147.869 155.638 147.983C155.374 148.097 155.051 148.153 154.671 148.153ZM154.824 147.25C155.222 147.25 155.557 147.172 155.83 147.016C156.105 146.859 156.313 146.658 156.452 146.411C156.594 146.163 156.665 145.903 156.665 145.631V144.71C156.623 144.761 156.529 144.808 156.384 144.851C156.242 144.891 156.077 144.926 155.89 144.957C155.705 144.986 155.525 145.011 155.348 145.034C155.175 145.054 155.034 145.071 154.926 145.085C154.665 145.119 154.421 145.175 154.194 145.251C153.969 145.325 153.787 145.437 153.648 145.588C153.512 145.736 153.444 145.937 153.444 146.193C153.444 146.543 153.573 146.807 153.831 146.986C154.093 147.162 154.424 147.25 154.824 147.25ZM160.512 139.273V148H159.506V139.273H160.512ZM164.28 148.153C163.865 148.153 163.489 148.075 163.151 147.919C162.813 147.76 162.544 147.531 162.346 147.233C162.147 146.932 162.047 146.568 162.047 146.142C162.047 145.767 162.121 145.463 162.269 145.23C162.417 144.994 162.614 144.81 162.861 144.676C163.108 144.543 163.381 144.443 163.679 144.378C163.98 144.31 164.283 144.256 164.587 144.216C164.985 144.165 165.307 144.126 165.554 144.101C165.804 144.072 165.986 144.026 166.1 143.96C166.216 143.895 166.275 143.781 166.275 143.619V143.585C166.275 143.165 166.159 142.838 165.929 142.605C165.702 142.372 165.357 142.256 164.894 142.256C164.414 142.256 164.037 142.361 163.765 142.571C163.492 142.781 163.3 143.006 163.189 143.244L162.235 142.903C162.405 142.506 162.632 142.196 162.917 141.974C163.203 141.75 163.516 141.594 163.854 141.506C164.195 141.415 164.53 141.369 164.86 141.369C165.07 141.369 165.311 141.395 165.584 141.446C165.86 141.494 166.125 141.595 166.381 141.749C166.64 141.902 166.854 142.134 167.025 142.443C167.195 142.753 167.28 143.168 167.28 143.688V148H166.275V147.114H166.223C166.155 147.256 166.042 147.408 165.882 147.57C165.723 147.732 165.512 147.869 165.248 147.983C164.983 148.097 164.661 148.153 164.28 148.153ZM164.434 147.25C164.831 147.25 165.167 147.172 165.439 147.016C165.715 146.859 165.922 146.658 166.061 146.411C166.203 146.163 166.275 145.903 166.275 145.631V144.71C166.232 144.761 166.138 144.808 165.993 144.851C165.851 144.891 165.686 144.926 165.499 144.957C165.314 144.986 165.134 145.011 164.958 145.034C164.784 145.054 164.644 145.071 164.536 145.085C164.275 145.119 164.03 145.175 163.803 145.251C163.578 145.325 163.397 145.437 163.257 145.588C163.121 145.736 163.053 145.937 163.053 146.193C163.053 146.543 163.182 146.807 163.441 146.986C163.702 147.162 164.033 147.25 164.434 147.25ZM170.121 144.062V148H169.116V141.455H170.087V142.477H170.173C170.326 142.145 170.559 141.878 170.871 141.676C171.184 141.472 171.587 141.369 172.082 141.369C172.525 141.369 172.913 141.46 173.245 141.642C173.577 141.821 173.836 142.094 174.021 142.46C174.205 142.824 174.298 143.284 174.298 143.841V148H173.292V143.909C173.292 143.395 173.158 142.994 172.891 142.707C172.624 142.418 172.258 142.273 171.792 142.273C171.471 142.273 171.184 142.342 170.931 142.482C170.681 142.621 170.484 142.824 170.339 143.091C170.194 143.358 170.121 143.682 170.121 144.062ZM178.794 148.136C178.181 148.136 177.652 147.991 177.209 147.702C176.766 147.412 176.425 147.013 176.186 146.504C175.948 145.996 175.828 145.415 175.828 144.761C175.828 144.097 175.951 143.51 176.195 143.001C176.442 142.49 176.786 142.091 177.226 141.804C177.669 141.514 178.186 141.369 178.777 141.369C179.238 141.369 179.652 141.455 180.022 141.625C180.391 141.795 180.694 142.034 180.929 142.341C181.165 142.648 181.311 143.006 181.368 143.415H180.363C180.286 143.116 180.115 142.852 179.851 142.622C179.59 142.389 179.238 142.273 178.794 142.273C178.402 142.273 178.059 142.375 177.763 142.58C177.471 142.781 177.242 143.067 177.077 143.436C176.915 143.803 176.834 144.233 176.834 144.727C176.834 145.233 176.914 145.673 177.073 146.048C177.235 146.423 177.462 146.714 177.755 146.922C178.05 147.129 178.397 147.233 178.794 147.233C179.056 147.233 179.293 147.188 179.506 147.097C179.719 147.006 179.9 146.875 180.047 146.705C180.195 146.534 180.3 146.33 180.363 146.091H181.368C181.311 146.477 181.171 146.825 180.946 147.135C180.725 147.442 180.431 147.686 180.064 147.868C179.701 148.047 179.277 148.136 178.794 148.136ZM185.583 148.136C184.952 148.136 184.408 147.997 183.951 147.719C183.496 147.438 183.145 147.045 182.898 146.543C182.654 146.037 182.532 145.449 182.532 144.778C182.532 144.108 182.654 143.517 182.898 143.006C183.145 142.491 183.489 142.091 183.929 141.804C184.373 141.514 184.89 141.369 185.48 141.369C185.821 141.369 186.158 141.426 186.49 141.54C186.823 141.653 187.125 141.838 187.398 142.094C187.671 142.347 187.888 142.682 188.05 143.099C188.212 143.517 188.293 144.031 188.293 144.642V145.068H183.248V144.199H187.27C187.27 143.83 187.196 143.5 187.049 143.21C186.904 142.92 186.696 142.692 186.426 142.524C186.159 142.357 185.844 142.273 185.48 142.273C185.08 142.273 184.733 142.372 184.441 142.571C184.151 142.767 183.928 143.023 183.772 143.338C183.615 143.653 183.537 143.991 183.537 144.352V144.932C183.537 145.426 183.623 145.845 183.793 146.189C183.966 146.53 184.206 146.79 184.513 146.969C184.82 147.145 185.176 147.233 185.583 147.233C185.847 147.233 186.086 147.196 186.299 147.122C186.515 147.045 186.701 146.932 186.857 146.781C187.013 146.628 187.134 146.437 187.219 146.21L188.191 146.483C188.088 146.812 187.917 147.102 187.675 147.352C187.434 147.599 187.135 147.793 186.78 147.932C186.425 148.068 186.026 148.136 185.583 148.136Z" fill="#343A40"/>
<path d="M86.8026 103.636V124H83.0838L74.2244 111.183H74.0753V124H69.7699V103.636H73.5483L82.3381 116.443H82.517V103.636H86.8026ZM99.0998 103.636V124H94.7944V107.723H94.6751L90.0117 110.646V106.828L95.0529 103.636H99.0998ZM111.377 124.278C109.972 124.278 108.719 124.02 107.619 123.503C106.525 122.986 105.656 122.273 105.013 121.365C104.371 120.457 104.036 119.416 104.009 118.243H108.185C108.232 119.032 108.563 119.671 109.18 120.162C109.796 120.652 110.529 120.898 111.377 120.898C112.053 120.898 112.65 120.749 113.167 120.45C113.691 120.145 114.098 119.724 114.39 119.188C114.688 118.644 114.837 118.021 114.837 117.318C114.837 116.602 114.685 115.973 114.38 115.429C114.082 114.885 113.667 114.461 113.137 114.156C112.607 113.851 112 113.696 111.317 113.689C110.721 113.689 110.141 113.812 109.577 114.057C109.021 114.302 108.586 114.637 108.275 115.061L104.447 114.375L105.411 103.636H117.86V107.156H108.961L108.434 112.257H108.553C108.911 111.753 109.451 111.336 110.174 111.004C110.897 110.673 111.705 110.507 112.6 110.507C113.826 110.507 114.92 110.795 115.881 111.372C116.843 111.949 117.602 112.741 118.158 113.749C118.715 114.75 118.99 115.903 118.984 117.209C118.99 118.581 118.672 119.801 118.029 120.868C117.393 121.929 116.501 122.764 115.354 123.374C114.214 123.977 112.888 124.278 111.377 124.278ZM121.678 120.42V117.03L130.18 103.636H133.103V108.33H131.373L126.013 116.811V116.97H138.094V120.42H121.678ZM131.452 124V119.386L131.532 117.885V103.636H135.569V124H131.452ZM145.224 121.216L145.114 122.31C145.028 123.185 144.862 124.056 144.617 124.925C144.379 125.8 144.127 126.592 143.862 127.301C143.603 128.01 143.394 128.567 143.235 128.972H140.491C140.59 128.58 140.726 128.034 140.898 127.331C141.071 126.635 141.233 125.853 141.386 124.984C141.538 124.116 141.634 123.231 141.674 122.33L141.724 121.216H145.224ZM149.097 124L157.538 107.295V107.156H147.705V103.636H161.993V107.206L153.541 124H149.097ZM172.13 124.278C170.599 124.278 169.237 124.03 168.043 123.533C166.857 123.029 165.925 122.343 165.249 121.474C164.573 120.606 164.235 119.622 164.235 118.521C164.235 117.673 164.427 116.894 164.812 116.185C165.203 115.469 165.733 114.875 166.403 114.405C167.072 113.928 167.821 113.623 168.65 113.49V113.351C167.563 113.132 166.681 112.605 166.005 111.77C165.329 110.928 164.991 109.95 164.991 108.837C164.991 107.783 165.299 106.845 165.915 106.023C166.532 105.194 167.377 104.545 168.451 104.074C169.531 103.597 170.758 103.358 172.13 103.358C173.502 103.358 174.725 103.597 175.799 104.074C176.879 104.551 177.728 105.204 178.344 106.033C178.961 106.855 179.272 107.789 179.279 108.837C179.272 109.957 178.928 110.935 178.245 111.77C177.562 112.605 176.687 113.132 175.62 113.351V113.49C176.435 113.623 177.174 113.928 177.837 114.405C178.507 114.875 179.037 115.469 179.428 116.185C179.826 116.894 180.028 117.673 180.035 118.521C180.028 119.622 179.687 120.606 179.011 121.474C178.335 122.343 177.4 123.029 176.207 123.533C175.02 124.03 173.661 124.278 172.13 124.278ZM172.13 121.116C172.813 121.116 173.409 120.994 173.92 120.749C174.43 120.497 174.828 120.152 175.113 119.714C175.405 119.27 175.55 118.76 175.55 118.183C175.55 117.593 175.401 117.073 175.103 116.622C174.805 116.165 174.4 115.807 173.89 115.548C173.379 115.283 172.793 115.151 172.13 115.151C171.474 115.151 170.887 115.283 170.37 115.548C169.853 115.807 169.445 116.165 169.147 116.622C168.855 117.073 168.71 117.593 168.71 118.183C168.71 118.76 168.852 119.27 169.137 119.714C169.422 120.152 169.823 120.497 170.34 120.749C170.857 120.994 171.454 121.116 172.13 121.116ZM172.13 112.018C172.7 112.018 173.207 111.902 173.651 111.67C174.095 111.438 174.443 111.117 174.695 110.706C174.947 110.295 175.073 109.821 175.073 109.284C175.073 108.754 174.947 108.29 174.695 107.892C174.443 107.488 174.099 107.173 173.661 106.947C173.224 106.715 172.713 106.599 172.13 106.599C171.553 106.599 171.043 106.715 170.599 106.947C170.155 107.173 169.807 107.488 169.555 107.892C169.309 108.29 169.187 108.754 169.187 109.284C169.187 109.821 169.313 110.295 169.565 110.706C169.817 111.117 170.165 111.438 170.609 111.67C171.053 111.902 171.56 112.018 172.13 112.018ZM191.029 124.447C189.319 124.441 187.848 124.02 186.615 123.185C185.388 122.349 184.444 121.14 183.781 119.555C183.125 117.971 182.8 116.065 182.806 113.838C182.806 111.617 183.135 109.725 183.791 108.161C184.454 106.596 185.398 105.406 186.625 104.591C187.858 103.769 189.326 103.358 191.029 103.358C192.733 103.358 194.198 103.769 195.424 104.591C196.657 105.413 197.605 106.606 198.268 108.17C198.931 109.728 199.259 111.617 199.252 113.838C199.252 116.072 198.921 117.981 198.258 119.565C197.602 121.15 196.661 122.359 195.434 123.195C194.208 124.03 192.74 124.447 191.029 124.447ZM191.029 120.878C192.196 120.878 193.127 120.291 193.824 119.118C194.52 117.945 194.864 116.185 194.858 113.838C194.858 112.294 194.699 111.008 194.38 109.98C194.069 108.953 193.625 108.18 193.048 107.663C192.478 107.146 191.805 106.888 191.029 106.888C189.869 106.888 188.941 107.468 188.245 108.628C187.549 109.788 187.198 111.525 187.191 113.838C187.191 115.402 187.347 116.708 187.659 117.756C187.977 118.796 188.424 119.579 189.001 120.102C189.578 120.619 190.254 120.878 191.029 120.878ZM206.146 121.216L206.036 122.31C205.95 123.185 205.784 124.056 205.539 124.925C205.3 125.8 205.049 126.592 204.783 127.301C204.525 128.01 204.316 128.567 204.157 128.972H201.413C201.512 128.58 201.648 128.034 201.82 127.331C201.993 126.635 202.155 125.853 202.308 124.984C202.46 124.116 202.556 123.231 202.596 122.33L202.646 121.216H206.146ZM217.252 124.278C215.847 124.278 214.594 124.02 213.494 123.503C212.4 122.986 211.531 122.273 210.888 121.365C210.246 120.457 209.911 119.416 209.884 118.243H214.06C214.107 119.032 214.438 119.671 215.055 120.162C215.671 120.652 216.404 120.898 217.252 120.898C217.928 120.898 218.525 120.749 219.042 120.45C219.566 120.145 219.973 119.724 220.265 119.188C220.563 118.644 220.712 118.021 220.712 117.318C220.712 116.602 220.56 115.973 220.255 115.429C219.957 114.885 219.542 114.461 219.012 114.156C218.482 113.851 217.875 113.696 217.192 113.689C216.596 113.689 216.016 113.812 215.452 114.057C214.896 114.302 214.461 114.637 214.15 115.061L210.322 114.375L211.286 103.636H223.735V107.156H214.836L214.309 112.257H214.428C214.786 111.753 215.326 111.336 216.049 111.004C216.772 110.673 217.58 110.507 218.475 110.507C219.701 110.507 220.795 110.795 221.756 111.372C222.718 111.949 223.477 112.741 224.033 113.749C224.59 114.75 224.865 115.903 224.859 117.209C224.865 118.581 224.547 119.801 223.904 120.868C223.268 121.929 222.376 122.764 221.229 123.374C220.089 123.977 218.763 124.278 217.252 124.278ZM236.721 103.636V124H232.415V107.723H232.296L227.633 110.646V106.828L232.674 103.636H236.721ZM249.545 124.447C247.835 124.441 246.363 124.02 245.13 123.185C243.904 122.349 242.959 121.14 242.297 119.555C241.64 117.971 241.315 116.065 241.322 113.838C241.322 111.617 241.65 109.725 242.306 108.161C242.969 106.596 243.914 105.406 245.14 104.591C246.373 103.769 247.842 103.358 249.545 103.358C251.249 103.358 252.714 103.769 253.94 104.591C255.173 105.413 256.121 106.606 256.784 108.17C257.447 109.728 257.775 111.617 257.768 113.838C257.768 116.072 257.437 117.981 256.774 119.565C256.118 121.15 255.176 122.359 253.95 123.195C252.724 124.03 251.255 124.447 249.545 124.447ZM249.545 120.878C250.712 120.878 251.643 120.291 252.339 119.118C253.035 117.945 253.38 116.185 253.373 113.838C253.373 112.294 253.214 111.008 252.896 109.98C252.584 108.953 252.14 108.18 251.564 107.663C250.993 107.146 250.321 106.888 249.545 106.888C248.385 106.888 247.457 107.468 246.761 108.628C246.065 109.788 245.714 111.525 245.707 113.838C245.707 115.402 245.863 116.708 246.174 117.756C246.493 118.796 246.94 119.579 247.517 120.102C248.093 120.619 248.77 120.878 249.545 120.878ZM262.533 124.259C261.877 124.259 261.314 124.027 260.843 123.562C260.379 123.092 260.147 122.528 260.147 121.872C260.147 121.223 260.379 120.666 260.843 120.202C261.314 119.738 261.877 119.506 262.533 119.506C263.17 119.506 263.727 119.738 264.204 120.202C264.681 120.666 264.92 121.223 264.92 121.872C264.92 122.31 264.807 122.711 264.582 123.075C264.363 123.433 264.075 123.722 263.717 123.94C263.359 124.152 262.964 124.259 262.533 124.259ZM275.343 103.358C276.39 103.358 277.398 103.534 278.365 103.885C279.34 104.236 280.208 104.796 280.971 105.565C281.739 106.334 282.346 107.355 282.79 108.628C283.241 109.894 283.47 111.448 283.476 113.291C283.476 115.021 283.281 116.566 282.89 117.925C282.505 119.277 281.952 120.427 281.229 121.375C280.507 122.323 279.635 123.045 278.614 123.543C277.593 124.033 276.453 124.278 275.194 124.278C273.835 124.278 272.635 124.017 271.594 123.493C270.553 122.963 269.715 122.243 269.078 121.335C268.449 120.42 268.068 119.393 267.935 118.253H272.181C272.346 118.995 272.694 119.572 273.225 119.983C273.755 120.387 274.411 120.589 275.194 120.589C276.519 120.589 277.527 120.013 278.216 118.859C278.906 117.699 279.254 116.112 279.26 114.097H279.121C278.816 114.693 278.405 115.207 277.888 115.638C277.371 116.062 276.778 116.39 276.108 116.622C275.445 116.854 274.739 116.97 273.99 116.97C272.791 116.97 271.72 116.688 270.779 116.125C269.837 115.562 269.095 114.786 268.551 113.798C268.008 112.811 267.736 111.684 267.736 110.418C267.73 109.052 268.044 107.836 268.681 106.768C269.317 105.701 270.205 104.866 271.346 104.263C272.492 103.653 273.825 103.351 275.343 103.358ZM275.373 106.739C274.703 106.739 274.106 106.898 273.583 107.216C273.066 107.534 272.655 107.962 272.35 108.499C272.051 109.036 271.906 109.635 271.912 110.298C271.912 110.968 272.058 111.571 272.35 112.108C272.648 112.638 273.052 113.062 273.563 113.381C274.08 113.692 274.67 113.848 275.333 113.848C275.83 113.848 276.291 113.755 276.715 113.57C277.139 113.384 277.507 113.129 277.819 112.804C278.137 112.473 278.385 112.091 278.564 111.661C278.743 111.23 278.833 110.772 278.833 110.288C278.826 109.645 278.674 109.055 278.375 108.518C278.077 107.982 277.666 107.551 277.142 107.226C276.619 106.901 276.029 106.739 275.373 106.739ZM293.897 124.278C292.491 124.278 291.239 124.02 290.138 123.503C289.044 122.986 288.176 122.273 287.533 121.365C286.89 120.457 286.555 119.416 286.529 118.243H290.705C290.751 119.032 291.083 119.671 291.699 120.162C292.316 120.652 293.048 120.898 293.897 120.898C294.573 120.898 295.169 120.749 295.686 120.45C296.21 120.145 296.618 119.724 296.909 119.188C297.208 118.644 297.357 118.021 297.357 117.318C297.357 116.602 297.204 115.973 296.9 115.429C296.601 114.885 296.187 114.461 295.657 114.156C295.126 113.851 294.52 113.696 293.837 113.689C293.24 113.689 292.66 113.812 292.097 114.057C291.54 114.302 291.106 114.637 290.794 115.061L286.966 114.375L287.931 103.636H300.38V107.156H291.48L290.953 112.257H291.073C291.431 111.753 291.971 111.336 292.694 111.004C293.416 110.673 294.225 110.507 295.12 110.507C296.346 110.507 297.44 110.795 298.401 111.372C299.362 111.949 300.121 112.741 300.678 113.749C301.235 114.75 301.51 115.903 301.503 117.209C301.51 118.581 301.192 119.801 300.549 120.868C299.912 121.929 299.021 122.764 297.874 123.374C296.734 123.977 295.408 124.278 293.897 124.278Z" fill="#2D995F"/>
<line x1="100.5" y1="353.012" x2="100.5" y2="179" stroke="#E9ECEF"/>
<line x1="101" y1="352.506" x2="414" y2="352.499" stroke="#E9ECEF"/>
<path d="M70.6357 192.443V191.904L73.8778 186.733H74.2756V187.639H73.9808L71.3778 191.801V191.847H75.6286V192.443H70.6357ZM74.0305 194.006V192.273V192.024V186.733H74.6626V194.006H74.0305ZM77.2257 186.733H77.9927L80.6312 193.068H80.6951L83.3336 186.733H84.1007V194.006H83.4757V188.136H83.4189L80.965 194.006H80.3613L77.9075 188.136H77.8507V194.006H77.2257V186.733Z" fill="#CED4DA"/>
<path d="M73.1712 235.105C72.7237 235.105 72.3236 235.025 71.9709 234.864C71.6181 234.7 71.3388 234.474 71.1328 234.186C70.9268 233.897 70.8179 233.564 70.8061 233.188H71.4773C71.4891 233.453 71.5708 233.685 71.7223 233.884C71.8738 234.08 72.075 234.234 72.326 234.345C72.5769 234.454 72.8563 234.509 73.1641 234.509C73.5002 234.509 73.7962 234.446 74.0518 234.32C74.3099 234.195 74.5111 234.023 74.6555 233.806C74.8023 233.585 74.8757 233.337 74.8757 233.06C74.8757 232.766 74.8011 232.507 74.652 232.282C74.5028 232.057 74.2886 231.882 74.0092 231.757C73.7322 231.631 73.4008 231.568 73.0149 231.568H72.5888V230.972H73.0149C73.3298 230.972 73.608 230.915 73.8494 230.801C74.0933 230.685 74.285 230.523 74.4247 230.315C74.5644 230.106 74.6342 229.861 74.6342 229.58C74.6342 229.312 74.5739 229.077 74.4531 228.873C74.3324 228.669 74.1619 228.51 73.9418 228.394C73.724 228.278 73.4695 228.22 73.1783 228.22C72.8965 228.22 72.6385 228.274 72.4041 228.383C72.1697 228.492 71.9804 228.646 71.8359 228.845C71.6939 229.044 71.6181 229.279 71.6087 229.551H70.9659C70.9754 229.173 71.0795 228.84 71.2784 228.553C71.4796 228.265 71.746 228.04 72.0774 227.879C72.4112 227.715 72.7805 227.634 73.1854 227.634C73.6139 227.634 73.9844 227.721 74.2969 227.896C74.6094 228.072 74.8509 228.305 75.0213 228.596C75.1941 228.885 75.2805 229.203 75.2805 229.551C75.2805 229.966 75.1681 230.321 74.9432 230.617C74.7183 230.91 74.4152 231.114 74.0341 231.227V231.274C74.4981 231.366 74.8627 231.572 75.1278 231.892C75.3954 232.209 75.5291 232.598 75.5291 233.06C75.5291 233.448 75.4273 233.797 75.2237 234.107C75.0201 234.415 74.7408 234.659 74.3857 234.839C74.0329 235.017 73.6281 235.105 73.1712 235.105ZM77.255 227.733H78.022L80.6605 234.068H80.7244L83.3629 227.733H84.13V235.006H83.505V229.136H83.4482L80.9943 235.006H80.3906L77.9368 229.136H77.88V235.006H77.255V227.733Z" fill="#CED4DA"/>
<path d="M70.8097 276.006V275.519L73.1854 272.849C73.4955 272.499 73.7453 272.199 73.9347 271.95C74.1241 271.702 74.2614 271.472 74.3466 271.262C74.4342 271.051 74.478 270.832 74.478 270.605C74.478 270.328 74.4129 270.086 74.2827 269.88C74.1548 269.672 73.9785 269.51 73.7536 269.394C73.5286 269.278 73.2753 269.22 72.9936 269.22C72.6953 269.22 72.4337 269.284 72.2088 269.411C71.9863 269.539 71.8134 269.714 71.6903 269.937C71.5672 270.16 71.5057 270.415 71.5057 270.704H70.87C70.87 270.302 70.9624 269.945 71.147 269.635C71.334 269.323 71.5885 269.078 71.9105 268.9C72.2348 268.722 72.6018 268.634 73.0114 268.634C73.4162 268.634 73.776 268.721 74.0909 268.896C74.4058 269.069 74.6532 269.305 74.8331 269.603C75.013 269.901 75.103 270.235 75.103 270.605C75.103 270.872 75.0556 271.131 74.9609 271.382C74.8686 271.633 74.7088 271.913 74.4815 272.22C74.2543 272.528 73.9394 272.905 73.5369 273.35L71.733 275.363V275.409H75.3303V276.006H70.8097ZM77.0694 268.733H77.8365L80.475 275.068H80.5389L83.1774 268.733H83.9444V276.006H83.3194V270.136H83.2626L80.8088 276.006H80.2051L77.7512 270.136H77.6944V276.006H77.0694V268.733Z" fill="#CED4DA"/>
<path d="M73.054 309.733V317.006H72.3899V310.429H72.3473L70.6428 311.562V310.873L72.3615 309.733H73.054ZM75.419 309.733H76.1861L78.8246 316.068H78.8885L81.527 309.733H82.294V317.006H81.669V311.136H81.6122L79.1584 317.006H78.5547L76.1009 311.136H76.044V317.006H75.419V309.733Z" fill="#CED4DA"/>
<path d="M135.466 364.727H136.13V369.972C136.127 370.446 136.042 370.841 135.874 371.158C135.706 371.473 135.474 371.709 135.178 371.865C134.882 372.021 134.542 372.099 134.159 372.099C133.782 372.099 133.446 372.03 133.15 371.89C132.854 371.75 132.621 371.554 132.451 371.3C132.283 371.047 132.199 370.75 132.199 370.409H132.852C132.852 370.625 132.909 370.815 133.023 370.981C133.136 371.144 133.291 371.272 133.488 371.364C133.687 371.457 133.91 371.503 134.159 371.503C134.417 371.503 134.643 371.448 134.837 371.339C135.034 371.231 135.188 371.064 135.299 370.839C135.41 370.612 135.466 370.323 135.466 369.972V364.727ZM138.072 372H137.376L140.022 364.727H140.732L143.378 372H142.682L140.402 365.59H140.352L138.072 372ZM138.573 369.212H142.181V369.809H138.573V369.212ZM150.288 364.727V372H149.642L145.345 365.91H145.288V372H144.624V364.727H145.267L149.578 370.825H149.635V364.727H150.288ZM130.088 384V383.513L132.464 380.843C132.774 380.493 133.024 380.193 133.213 379.945C133.402 379.696 133.54 379.466 133.625 379.256C133.713 379.045 133.756 378.826 133.756 378.599C133.756 378.322 133.691 378.08 133.561 377.874C133.433 377.666 133.257 377.504 133.032 377.388C132.807 377.272 132.554 377.214 132.272 377.214C131.974 377.214 131.712 377.278 131.487 377.406C131.265 377.533 131.092 377.709 130.969 377.931C130.846 378.154 130.784 378.409 130.784 378.698H130.148C130.148 378.296 130.241 377.939 130.425 377.629C130.612 377.317 130.867 377.072 131.189 376.894C131.513 376.717 131.88 376.628 132.29 376.628C132.695 376.628 133.054 376.715 133.369 376.891C133.684 377.063 133.931 377.299 134.111 377.597C134.291 377.896 134.381 378.229 134.381 378.599C134.381 378.866 134.334 379.125 134.239 379.376C134.147 379.627 133.987 379.907 133.76 380.214C133.533 380.522 133.218 380.899 132.815 381.344L131.011 383.357V383.403H134.609V384H130.088ZM138.45 384.099C137.939 384.099 137.502 383.953 137.14 383.659C136.78 383.363 136.503 382.936 136.309 382.377C136.117 381.818 136.021 381.147 136.021 380.364C136.021 379.582 136.117 378.914 136.309 378.357C136.503 377.799 136.781 377.371 137.143 377.075C137.508 376.777 137.943 376.628 138.45 376.628C138.957 376.628 139.391 376.777 139.753 377.075C140.118 377.371 140.396 377.799 140.588 378.357C140.782 378.914 140.879 379.582 140.879 380.364C140.879 381.147 140.782 381.818 140.588 382.377C140.396 382.936 140.119 383.363 139.757 383.659C139.397 383.953 138.961 384.099 138.45 384.099ZM138.45 383.503C139.011 383.503 139.449 383.229 139.764 382.683C140.079 382.133 140.236 381.36 140.236 380.364C140.236 379.701 140.164 379.135 140.02 378.666C139.878 378.195 139.673 377.835 139.405 377.587C139.14 377.338 138.822 377.214 138.45 377.214C137.894 377.214 137.457 377.491 137.14 378.045C136.822 378.596 136.664 379.369 136.664 380.364C136.664 381.027 136.735 381.592 136.877 382.061C137.021 382.53 137.226 382.887 137.491 383.134C137.759 383.38 138.078 383.503 138.45 383.503ZM142.324 384V383.513L144.7 380.843C145.01 380.493 145.26 380.193 145.449 379.945C145.639 379.696 145.776 379.466 145.861 379.256C145.949 379.045 145.993 378.826 145.993 378.599C145.993 378.322 145.928 378.08 145.797 377.874C145.669 377.666 145.493 377.504 145.268 377.388C145.043 377.272 144.79 377.214 144.508 377.214C144.21 377.214 143.948 377.278 143.723 377.406C143.501 377.533 143.328 377.709 143.205 377.931C143.082 378.154 143.02 378.409 143.02 378.698H142.385C142.385 378.296 142.477 377.939 142.662 377.629C142.849 377.317 143.103 377.072 143.425 376.894C143.749 376.717 144.116 376.628 144.526 376.628C144.931 376.628 145.291 376.715 145.606 376.891C145.92 377.063 146.168 377.299 146.348 377.597C146.528 377.896 146.618 378.229 146.618 378.599C146.618 378.866 146.57 379.125 146.476 379.376C146.383 379.627 146.223 379.907 145.996 380.214C145.769 380.522 145.454 380.899 145.052 381.344L143.248 383.357V383.403H146.845V384H142.324ZM148.098 382.438V381.898L151.34 376.727H151.737V377.633H151.443L148.84 381.795V381.841H153.09V382.438H148.098ZM151.492 384V382.267V382.018V376.727H152.125V384H151.492Z" fill="#CED4DA"/>
<path d="M215.33 372V364.727H219.538V365.324H215.994V368.062H219.208V368.658H215.994V372H215.33ZM221.19 372V364.727H225.408V365.324H221.854V368.062H225.185V368.658H221.854V371.403H225.479V372H221.19ZM227.127 372V364.727H229.581C230.054 364.727 230.449 364.81 230.763 364.976C231.081 365.142 231.319 365.368 231.477 365.654C231.636 365.941 231.715 366.266 231.715 366.631C231.715 366.934 231.664 367.193 231.562 367.408C231.461 367.624 231.322 367.798 231.147 367.93C230.972 368.063 230.776 368.159 230.561 368.218V368.275C230.795 368.291 231.023 368.374 231.243 368.523C231.463 368.67 231.644 368.876 231.786 369.141C231.928 369.406 231.999 369.724 231.999 370.093C231.999 370.46 231.918 370.788 231.754 371.077C231.591 371.363 231.34 371.589 231.001 371.755C230.665 371.918 230.237 372 229.716 372H227.127ZM227.791 371.403H229.716C230.277 371.403 230.691 371.279 230.959 371.031C231.229 370.782 231.364 370.469 231.364 370.093C231.364 369.816 231.296 369.565 231.161 369.34C231.029 369.113 230.84 368.933 230.597 368.8C230.355 368.668 230.071 368.602 229.744 368.602H227.791V371.403ZM227.791 368.012H229.641C229.928 368.012 230.179 367.953 230.394 367.835C230.61 367.716 230.778 367.553 230.898 367.344C231.019 367.136 231.079 366.898 231.079 366.631C231.079 366.245 230.954 365.931 230.703 365.69C230.452 365.446 230.078 365.324 229.581 365.324H227.791V368.012ZM212.088 384V383.513L214.464 380.843C214.774 380.493 215.024 380.193 215.213 379.945C215.402 379.696 215.54 379.466 215.625 379.256C215.713 379.045 215.756 378.826 215.756 378.599C215.756 378.322 215.691 378.08 215.561 377.874C215.433 377.666 215.257 377.504 215.032 377.388C214.807 377.272 214.554 377.214 214.272 377.214C213.974 377.214 213.712 377.278 213.487 377.406C213.265 377.533 213.092 377.709 212.969 377.931C212.846 378.154 212.784 378.409 212.784 378.698H212.148C212.148 378.296 212.241 377.939 212.425 377.629C212.612 377.317 212.867 377.072 213.189 376.894C213.513 376.717 213.88 376.628 214.29 376.628C214.695 376.628 215.054 376.715 215.369 376.891C215.684 377.063 215.931 377.299 216.111 377.597C216.291 377.896 216.381 378.229 216.381 378.599C216.381 378.866 216.334 379.125 216.239 379.376C216.147 379.627 215.987 379.907 215.76 380.214C215.533 380.522 215.218 380.899 214.815 381.344L213.011 383.357V383.403H216.609V384H212.088ZM220.45 384.099C219.939 384.099 219.502 383.953 219.14 383.659C218.78 383.363 218.503 382.936 218.309 382.377C218.117 381.818 218.021 381.147 218.021 380.364C218.021 379.582 218.117 378.914 218.309 378.357C218.503 377.799 218.781 377.371 219.143 377.075C219.508 376.777 219.943 376.628 220.45 376.628C220.957 376.628 221.391 376.777 221.753 377.075C222.118 377.371 222.396 377.799 222.588 378.357C222.782 378.914 222.879 379.582 222.879 380.364C222.879 381.147 222.782 381.818 222.588 382.377C222.396 382.936 222.119 383.363 221.757 383.659C221.397 383.953 220.961 384.099 220.45 384.099ZM220.45 383.503C221.011 383.503 221.449 383.229 221.764 382.683C222.079 382.133 222.236 381.36 222.236 380.364C222.236 379.701 222.164 379.135 222.02 378.666C221.878 378.195 221.673 377.835 221.405 377.587C221.14 377.338 220.822 377.214 220.45 377.214C219.894 377.214 219.457 377.491 219.14 378.045C218.822 378.596 218.664 379.369 218.664 380.364C218.664 381.027 218.735 381.592 218.877 382.061C219.021 382.53 219.226 382.887 219.491 383.134C219.759 383.38 220.078 383.503 220.45 383.503ZM224.324 384V383.513L226.7 380.843C227.01 380.493 227.26 380.193 227.449 379.945C227.639 379.696 227.776 379.466 227.861 379.256C227.949 379.045 227.993 378.826 227.993 378.599C227.993 378.322 227.928 378.08 227.797 377.874C227.669 377.666 227.493 377.504 227.268 377.388C227.043 377.272 226.79 377.214 226.508 377.214C226.21 377.214 225.948 377.278 225.723 377.406C225.501 377.533 225.328 377.709 225.205 377.931C225.082 378.154 225.02 378.409 225.02 378.698H224.385C224.385 378.296 224.477 377.939 224.662 377.629C224.849 377.317 225.103 377.072 225.425 376.894C225.749 376.717 226.116 376.628 226.526 376.628C226.931 376.628 227.291 376.715 227.606 376.891C227.92 377.063 228.168 377.299 228.348 377.597C228.528 377.896 228.618 378.229 228.618 378.599C228.618 378.866 228.57 379.125 228.476 379.376C228.383 379.627 228.223 379.907 227.996 380.214C227.769 380.522 227.454 380.899 227.052 381.344L225.248 383.357V383.403H228.845V384H224.324ZM230.098 382.438V381.898L233.34 376.727H233.737V377.633H233.443L230.84 381.795V381.841H235.09V382.438H230.098ZM233.492 384V382.267V382.018V376.727H234.125V384H233.492Z" fill="#CED4DA"/>
<path d="M295.626 364.727H296.393L299.032 371.062H299.096L301.734 364.727H302.501V372H301.876V366.13H301.819L299.365 372H298.762L296.308 366.13H296.251V372H295.626V364.727ZM304.445 372H303.749L306.395 364.727H307.105L309.751 372H309.055L306.775 365.59H306.725L304.445 372ZM304.946 369.212H308.554V369.809H304.946V369.212ZM310.997 372V364.727H313.344C313.861 364.727 314.291 364.821 314.637 365.008C314.985 365.192 315.247 365.449 315.422 365.778C315.599 366.105 315.688 366.48 315.688 366.904C315.688 367.328 315.599 367.702 315.422 368.026C315.247 368.351 314.986 368.604 314.641 368.786C314.295 368.969 313.866 369.06 313.355 369.06H311.356V368.452H313.337C313.716 368.452 314.031 368.39 314.282 368.264C314.535 368.139 314.723 367.96 314.847 367.728C314.972 367.496 315.035 367.221 315.035 366.904C315.035 366.587 314.972 366.31 314.847 366.073C314.721 365.834 314.532 365.649 314.278 365.519C314.027 365.389 313.71 365.324 313.327 365.324H311.661V372H310.997ZM314.204 368.719L315.994 372H315.227L313.455 368.719H314.204ZM294.088 384V383.513L296.464 380.843C296.774 380.493 297.024 380.193 297.213 379.945C297.402 379.696 297.54 379.466 297.625 379.256C297.713 379.045 297.756 378.826 297.756 378.599C297.756 378.322 297.691 378.08 297.561 377.874C297.433 377.666 297.257 377.504 297.032 377.388C296.807 377.272 296.554 377.214 296.272 377.214C295.974 377.214 295.712 377.278 295.487 377.406C295.265 377.533 295.092 377.709 294.969 377.931C294.846 378.154 294.784 378.409 294.784 378.698H294.148C294.148 378.296 294.241 377.939 294.425 377.629C294.612 377.317 294.867 377.072 295.189 376.894C295.513 376.717 295.88 376.628 296.29 376.628C296.695 376.628 297.054 376.715 297.369 376.891C297.684 377.063 297.931 377.299 298.111 377.597C298.291 377.896 298.381 378.229 298.381 378.599C298.381 378.866 298.334 379.125 298.239 379.376C298.147 379.627 297.987 379.907 297.76 380.214C297.533 380.522 297.218 380.899 296.815 381.344L295.011 383.357V383.403H298.609V384H294.088ZM302.45 384.099C301.939 384.099 301.502 383.953 301.14 383.659C300.78 383.363 300.503 382.936 300.309 382.377C300.117 381.818 300.021 381.147 300.021 380.364C300.021 379.582 300.117 378.914 300.309 378.357C300.503 377.799 300.781 377.371 301.143 377.075C301.508 376.777 301.943 376.628 302.45 376.628C302.957 376.628 303.391 376.777 303.753 377.075C304.118 377.371 304.396 377.799 304.588 378.357C304.782 378.914 304.879 379.582 304.879 380.364C304.879 381.147 304.782 381.818 304.588 382.377C304.396 382.936 304.119 383.363 303.757 383.659C303.397 383.953 302.961 384.099 302.45 384.099ZM302.45 383.503C303.011 383.503 303.449 383.229 303.764 382.683C304.079 382.133 304.236 381.36 304.236 380.364C304.236 379.701 304.164 379.135 304.02 378.666C303.878 378.195 303.673 377.835 303.405 377.587C303.14 377.338 302.822 377.214 302.45 377.214C301.894 377.214 301.457 377.491 301.14 378.045C300.822 378.596 300.664 379.369 300.664 380.364C300.664 381.027 300.735 381.592 300.877 382.061C301.021 382.53 301.226 382.887 301.491 383.134C301.759 383.38 302.078 383.503 302.45 383.503ZM306.324 384V383.513L308.7 380.843C309.01 380.493 309.26 380.193 309.449 379.945C309.639 379.696 309.776 379.466 309.861 379.256C309.949 379.045 309.993 378.826 309.993 378.599C309.993 378.322 309.928 378.08 309.797 377.874C309.669 377.666 309.493 377.504 309.268 377.388C309.043 377.272 308.79 377.214 308.508 377.214C308.21 377.214 307.948 377.278 307.723 377.406C307.501 377.533 307.328 377.709 307.205 377.931C307.082 378.154 307.02 378.409 307.02 378.698H306.385C306.385 378.296 306.477 377.939 306.662 377.629C306.849 377.317 307.103 377.072 307.425 376.894C307.749 376.717 308.116 376.628 308.526 376.628C308.931 376.628 309.291 376.715 309.606 376.891C309.92 377.063 310.168 377.299 310.348 377.597C310.528 377.896 310.618 378.229 310.618 378.599C310.618 378.866 310.57 379.125 310.476 379.376C310.383 379.627 310.223 379.907 309.996 380.214C309.769 380.522 309.454 380.899 309.052 381.344L307.248 383.357V383.403H310.845V384H306.324ZM312.098 382.438V381.898L315.34 376.727H315.737V377.633H315.443L312.84 381.795V381.841H317.09V382.438H312.098ZM315.492 384V382.267V382.018V376.727H316.125V384H315.492Z" fill="#CED4DA"/>
<path d="M378.916 372H378.22L380.866 364.727H381.576L384.221 372H383.525L381.246 365.59H381.196L378.916 372ZM379.417 369.212H383.025V369.809H379.417V369.212ZM385.468 372V364.727H387.815C388.331 364.727 388.762 364.827 389.108 365.026C389.456 365.222 389.717 365.49 389.893 365.828C390.07 366.167 390.159 366.548 390.159 366.972C390.159 367.395 390.071 367.778 389.896 368.119C389.721 368.457 389.461 368.726 389.115 368.925C388.769 369.121 388.34 369.219 387.826 369.219H385.979V368.623H387.808C388.189 368.623 388.505 368.552 388.756 368.41C389.007 368.265 389.194 368.069 389.317 367.82C389.443 367.572 389.506 367.289 389.506 366.972C389.506 366.654 389.443 366.371 389.317 366.123C389.194 365.874 389.006 365.679 388.753 365.537C388.502 365.395 388.183 365.324 387.797 365.324H386.132V372H385.468ZM391.718 372V364.727H394.065C394.581 364.727 395.012 364.821 395.358 365.008C395.706 365.192 395.967 365.449 396.143 365.778C396.32 366.105 396.409 366.48 396.409 366.904C396.409 367.328 396.32 367.702 396.143 368.026C395.967 368.351 395.707 368.604 395.361 368.786C395.016 368.969 394.587 369.06 394.076 369.06H392.077V368.452H394.058C394.437 368.452 394.752 368.39 395.003 368.264C395.256 368.139 395.444 367.96 395.567 367.728C395.693 367.496 395.756 367.221 395.756 366.904C395.756 366.587 395.693 366.31 395.567 366.073C395.442 365.834 395.252 365.649 394.999 365.519C394.748 365.389 394.431 365.324 394.047 365.324H392.382V372H391.718ZM394.925 368.719L396.714 372H395.947L394.175 368.719H394.925ZM376.088 384V383.513L378.464 380.843C378.774 380.493 379.024 380.193 379.213 379.945C379.402 379.696 379.54 379.466 379.625 379.256C379.713 379.045 379.756 378.826 379.756 378.599C379.756 378.322 379.691 378.08 379.561 377.874C379.433 377.666 379.257 377.504 379.032 377.388C378.807 377.272 378.554 377.214 378.272 377.214C377.974 377.214 377.712 377.278 377.487 377.406C377.265 377.533 377.092 377.709 376.969 377.931C376.846 378.154 376.784 378.409 376.784 378.698H376.148C376.148 378.296 376.241 377.939 376.425 377.629C376.612 377.317 376.867 377.072 377.189 376.894C377.513 376.717 377.88 376.628 378.29 376.628C378.695 376.628 379.054 376.715 379.369 376.891C379.684 377.063 379.931 377.299 380.111 377.597C380.291 377.896 380.381 378.229 380.381 378.599C380.381 378.866 380.334 379.125 380.239 379.376C380.147 379.627 379.987 379.907 379.76 380.214C379.533 380.522 379.218 380.899 378.815 381.344L377.011 383.357V383.403H380.609V384H376.088ZM384.45 384.099C383.939 384.099 383.502 383.953 383.14 383.659C382.78 383.363 382.503 382.936 382.309 382.377C382.117 381.818 382.021 381.147 382.021 380.364C382.021 379.582 382.117 378.914 382.309 378.357C382.503 377.799 382.781 377.371 383.143 377.075C383.508 376.777 383.943 376.628 384.45 376.628C384.957 376.628 385.391 376.777 385.753 377.075C386.118 377.371 386.396 377.799 386.588 378.357C386.782 378.914 386.879 379.582 386.879 380.364C386.879 381.147 386.782 381.818 386.588 382.377C386.396 382.936 386.119 383.363 385.757 383.659C385.397 383.953 384.961 384.099 384.45 384.099ZM384.45 383.503C385.011 383.503 385.449 383.229 385.764 382.683C386.079 382.133 386.236 381.36 386.236 380.364C386.236 379.701 386.164 379.135 386.02 378.666C385.878 378.195 385.673 377.835 385.405 377.587C385.14 377.338 384.822 377.214 384.45 377.214C383.894 377.214 383.457 377.491 383.14 378.045C382.822 378.596 382.664 379.369 382.664 380.364C382.664 381.027 382.735 381.592 382.877 382.061C383.021 382.53 383.226 382.887 383.491 383.134C383.759 383.38 384.078 383.503 384.45 383.503ZM388.324 384V383.513L390.7 380.843C391.01 380.493 391.26 380.193 391.449 379.945C391.639 379.696 391.776 379.466 391.861 379.256C391.949 379.045 391.993 378.826 391.993 378.599C391.993 378.322 391.928 378.08 391.797 377.874C391.669 377.666 391.493 377.504 391.268 377.388C391.043 377.272 390.79 377.214 390.508 377.214C390.21 377.214 389.948 377.278 389.723 377.406C389.501 377.533 389.328 377.709 389.205 377.931C389.082 378.154 389.02 378.409 389.02 378.698H388.385C388.385 378.296 388.477 377.939 388.662 377.629C388.849 377.317 389.103 377.072 389.425 376.894C389.749 376.717 390.116 376.628 390.526 376.628C390.931 376.628 391.291 376.715 391.606 376.891C391.92 377.063 392.168 377.299 392.348 377.597C392.528 377.896 392.618 378.229 392.618 378.599C392.618 378.866 392.57 379.125 392.476 379.376C392.383 379.627 392.223 379.907 391.996 380.214C391.769 380.522 391.454 380.899 391.052 381.344L389.248 383.357V383.403H392.845V384H388.324ZM394.098 382.438V381.898L397.34 376.727H397.737V377.633H397.443L394.84 381.795V381.841H399.09V382.438H394.098ZM397.492 384V382.267V382.018V376.727H398.125V384H397.492Z" fill="#CED4DA"/>
<rect x="129" y="214" width="13" height="139" fill="#2D995F"/>
<rect x="211" y="194" width="13" height="159" fill="#2D995F"/>
<rect x="293" y="278" width="13" height="75" fill="#2D995F"/>
<rect x="375" y="237" width="13" height="116" fill="#2D995F"/>
<rect x="142" y="295" width="13" height="58" fill="#FFBA08"/>
<rect x="224" y="237" width="13" height="116" fill="#FFBA08"/>
<rect x="306" y="326" width="13" height="27" fill="#FFBA08"/>
<rect x="388" y="278" width="13" height="75" fill="#FFBA08"/>
<rect x="157" y="405.5" width="7" height="7" fill="#2D995F"/>
<path d="M175.966 405.727H176.733L179.371 412.062H179.435L182.074 405.727H182.841V413H182.216V407.13H182.159L179.705 413H179.102L176.648 407.13H176.591V413H175.966V405.727ZM186.763 413.114C186.292 413.114 185.875 412.994 185.513 412.755C185.153 412.516 184.872 412.186 184.668 411.764C184.464 411.34 184.363 410.852 184.363 410.298C184.363 409.739 184.464 409.248 184.668 408.824C184.872 408.398 185.153 408.066 185.513 407.83C185.875 407.59 186.292 407.471 186.763 407.471C187.234 407.471 187.65 407.59 188.01 407.83C188.369 408.069 188.651 408.4 188.855 408.824C189.061 409.248 189.164 409.739 189.164 410.298C189.164 410.852 189.062 411.34 188.858 411.764C188.655 412.186 188.372 412.516 188.01 412.755C187.65 412.994 187.234 413.114 186.763 413.114ZM186.763 412.535C187.142 412.535 187.463 412.433 187.725 412.229C187.988 412.026 188.187 411.755 188.322 411.416C188.459 411.078 188.528 410.705 188.528 410.298C188.528 409.89 188.459 409.516 188.322 409.175C188.187 408.835 187.988 408.561 187.725 408.355C187.463 408.149 187.142 408.046 186.763 408.046C186.387 408.046 186.066 408.149 185.801 408.355C185.538 408.561 185.338 408.835 185.201 409.175C185.066 409.516 184.998 409.89 184.998 410.298C184.998 410.705 185.066 411.078 185.201 411.416C185.338 411.755 185.538 412.026 185.801 412.229C186.064 412.433 186.384 412.535 186.763 412.535ZM191.183 409.591V413H190.551V407.545H191.166V408.401H191.222C191.35 408.122 191.549 407.898 191.819 407.73C192.091 407.56 192.427 407.474 192.828 407.474C193.195 407.474 193.517 407.551 193.794 407.705C194.073 407.857 194.289 408.08 194.443 408.376C194.6 408.672 194.678 409.036 194.678 409.467V413H194.046V409.506C194.046 409.058 193.92 408.704 193.669 408.444C193.421 408.183 193.087 408.053 192.668 408.053C192.381 408.053 192.127 408.115 191.904 408.238C191.682 408.361 191.505 408.539 191.375 408.771C191.247 409 191.183 409.274 191.183 409.591ZM198.548 413.114C198.039 413.114 197.598 412.995 197.227 412.759C196.855 412.519 196.567 412.189 196.364 411.768C196.162 411.344 196.062 410.856 196.062 410.305C196.062 409.755 196.162 409.268 196.364 408.842C196.567 408.413 196.848 408.078 197.205 407.837C197.565 407.593 197.981 407.471 198.452 407.471C198.748 407.471 199.033 407.525 199.308 407.634C199.582 407.741 199.828 407.905 200.046 408.128C200.266 408.348 200.44 408.626 200.568 408.962C200.696 409.296 200.76 409.692 200.76 410.148V410.461H196.499V409.903H200.114C200.114 409.553 200.043 409.238 199.901 408.959C199.761 408.677 199.566 408.455 199.315 408.291C199.066 408.128 198.778 408.046 198.452 408.046C198.106 408.046 197.802 408.138 197.539 408.323C197.276 408.508 197.07 408.752 196.921 409.055C196.774 409.358 196.7 409.689 196.697 410.049V410.383C196.697 410.816 196.772 411.195 196.921 411.519C197.073 411.841 197.287 412.091 197.564 412.268C197.841 412.446 198.169 412.535 198.548 412.535C198.806 412.535 199.032 412.495 199.226 412.414C199.422 412.334 199.587 412.226 199.719 412.091C199.854 411.954 199.956 411.803 200.025 411.64L200.625 411.835C200.542 412.065 200.406 412.277 200.217 412.471C200.03 412.665 199.795 412.821 199.513 412.94C199.234 413.056 198.912 413.114 198.548 413.114ZM202.427 415.045C202.302 415.045 202.185 415.034 202.076 415.01C201.967 414.986 201.88 414.96 201.816 414.932L201.987 414.374C202.202 414.441 202.394 414.464 202.562 414.445C202.73 414.429 202.879 414.353 203.01 414.218C203.14 414.085 203.256 413.882 203.358 413.607L203.556 413.053L201.55 407.545H202.235L203.855 412.165H203.904L205.524 407.545H206.209L203.901 413.863C203.804 414.126 203.684 414.345 203.542 414.52C203.4 414.697 203.236 414.829 203.049 414.914C202.864 415.002 202.657 415.045 202.427 415.045ZM211.054 405.727V413H210.39V405.727H211.054ZM213.488 409.591V413H212.856V407.545H213.47V408.401H213.527C213.655 408.122 213.854 407.898 214.124 407.73C214.396 407.56 214.732 407.474 215.132 407.474C215.499 407.474 215.821 407.551 216.098 407.705C216.378 407.857 216.594 408.08 216.748 408.376C216.904 408.672 216.982 409.036 216.982 409.467V413H216.35V409.506C216.35 409.058 216.225 408.704 215.974 408.444C215.725 408.183 215.392 408.053 214.972 408.053C214.686 408.053 214.432 408.115 214.209 408.238C213.986 408.361 213.81 408.539 213.68 408.771C213.552 409 213.488 409.274 213.488 409.591Z" fill="#6C757D"/>
<rect x="269" y="405.5" width="7" height="7" fill="#FFBA08"/>
<path d="M287.966 405.727H288.733L291.371 412.062H291.435L294.074 405.727H294.841V413H294.216V407.13H294.159L291.705 413H291.102L288.648 407.13H288.591V413H287.966V405.727ZM298.763 413.114C298.292 413.114 297.875 412.994 297.513 412.755C297.153 412.516 296.872 412.186 296.668 411.764C296.464 411.34 296.363 410.852 296.363 410.298C296.363 409.739 296.464 409.248 296.668 408.824C296.872 408.398 297.153 408.066 297.513 407.83C297.875 407.59 298.292 407.471 298.763 407.471C299.234 407.471 299.65 407.59 300.01 407.83C300.369 408.069 300.651 408.4 300.855 408.824C301.061 409.248 301.164 409.739 301.164 410.298C301.164 410.852 301.062 411.34 300.858 411.764C300.655 412.186 300.372 412.516 300.01 412.755C299.65 412.994 299.234 413.114 298.763 413.114ZM298.763 412.535C299.142 412.535 299.463 412.433 299.725 412.229C299.988 412.026 300.187 411.755 300.322 411.416C300.459 411.078 300.528 410.705 300.528 410.298C300.528 409.89 300.459 409.516 300.322 409.175C300.187 408.835 299.988 408.561 299.725 408.355C299.463 408.149 299.142 408.046 298.763 408.046C298.387 408.046 298.066 408.149 297.801 408.355C297.538 408.561 297.338 408.835 297.201 409.175C297.066 409.516 296.998 409.89 296.998 410.298C296.998 410.705 297.066 411.078 297.201 411.416C297.338 411.755 297.538 412.026 297.801 412.229C298.064 412.433 298.384 412.535 298.763 412.535ZM303.183 409.591V413H302.551V407.545H303.166V408.401H303.222C303.35 408.122 303.549 407.898 303.819 407.73C304.091 407.56 304.427 407.474 304.828 407.474C305.195 407.474 305.517 407.551 305.794 407.705C306.073 407.857 306.289 408.08 306.443 408.376C306.6 408.672 306.678 409.036 306.678 409.467V413H306.046V409.506C306.046 409.058 305.92 408.704 305.669 408.444C305.421 408.183 305.087 408.053 304.668 408.053C304.381 408.053 304.127 408.115 303.904 408.238C303.682 408.361 303.505 408.539 303.375 408.771C303.247 409 303.183 409.274 303.183 409.591ZM310.548 413.114C310.039 413.114 309.598 412.995 309.227 412.759C308.855 412.519 308.567 412.189 308.364 411.768C308.162 411.344 308.062 410.856 308.062 410.305C308.062 409.755 308.162 409.268 308.364 408.842C308.567 408.413 308.848 408.078 309.205 407.837C309.565 407.593 309.981 407.471 310.452 407.471C310.748 407.471 311.033 407.525 311.308 407.634C311.582 407.741 311.828 407.905 312.046 408.128C312.266 408.348 312.44 408.626 312.568 408.962C312.696 409.296 312.76 409.692 312.76 410.148V410.461H308.499V409.903H312.114C312.114 409.553 312.043 409.238 311.901 408.959C311.761 408.677 311.566 408.455 311.315 408.291C311.066 408.128 310.778 408.046 310.452 408.046C310.106 408.046 309.802 408.138 309.539 408.323C309.276 408.508 309.07 408.752 308.921 409.055C308.774 409.358 308.7 409.689 308.697 410.049V410.383C308.697 410.816 308.772 411.195 308.921 411.519C309.073 411.841 309.287 412.091 309.564 412.268C309.841 412.446 310.169 412.535 310.548 412.535C310.806 412.535 311.032 412.495 311.226 412.414C311.422 412.334 311.587 412.226 311.719 412.091C311.854 411.954 311.956 411.803 312.025 411.64L312.625 411.835C312.542 412.065 312.406 412.277 312.217 412.471C312.03 412.665 311.795 412.821 311.513 412.94C311.234 413.056 310.912 413.114 310.548 413.114ZM314.427 415.045C314.302 415.045 314.185 415.034 314.076 415.01C313.967 414.986 313.88 414.96 313.816 414.932L313.987 414.374C314.202 414.441 314.394 414.464 314.562 414.445C314.73 414.429 314.879 414.353 315.01 414.218C315.14 414.085 315.256 413.882 315.358 413.607L315.556 413.053L313.55 407.545H314.235L315.855 412.165H315.904L317.524 407.545H318.209L315.901 413.863C315.804 414.126 315.684 414.345 315.542 414.52C315.4 414.697 315.236 414.829 315.049 414.914C314.864 415.002 314.657 415.045 314.427 415.045ZM328.352 409.364C328.352 410.121 328.217 410.781 327.947 411.342C327.677 411.9 327.306 412.334 326.832 412.641C326.361 412.947 325.819 413.099 325.206 413.099C324.593 413.099 324.049 412.947 323.576 412.641C323.105 412.334 322.734 411.9 322.464 411.342C322.197 410.781 322.063 410.121 322.063 409.364C322.063 408.606 322.197 407.948 322.464 407.389C322.734 406.828 323.106 406.395 323.579 406.089C324.053 405.782 324.595 405.628 325.206 405.628C325.819 405.628 326.361 405.782 326.832 406.089C327.306 406.395 327.677 406.828 327.947 407.389C328.217 407.948 328.352 408.606 328.352 409.364ZM327.706 409.364C327.706 408.713 327.597 408.155 327.379 407.691C327.161 407.225 326.864 406.868 326.488 406.622C326.111 406.376 325.684 406.253 325.206 406.253C324.73 406.253 324.304 406.376 323.927 406.622C323.551 406.868 323.253 407.223 323.032 407.688C322.815 408.152 322.706 408.71 322.706 409.364C322.706 410.015 322.815 410.572 323.032 411.036C323.25 411.5 323.547 411.857 323.924 412.105C324.3 412.351 324.728 412.474 325.206 412.474C325.684 412.474 326.111 412.351 326.488 412.105C326.867 411.859 327.165 411.504 327.383 411.04C327.6 410.573 327.708 410.015 327.706 409.364ZM333.293 410.915V407.545H333.925V413H333.293V412.094H333.243C333.115 412.374 332.913 412.607 332.636 412.794C332.359 412.979 332.02 413.071 331.62 413.071C331.272 413.071 330.963 412.995 330.693 412.844C330.423 412.69 330.211 412.465 330.058 412.169C329.904 411.873 329.827 411.51 329.827 411.079V407.545H330.459V411.04C330.459 411.466 330.584 411.809 330.835 412.07C331.086 412.328 331.408 412.457 331.801 412.457C332.047 412.457 332.284 412.397 332.511 412.279C332.739 412.161 332.926 411.988 333.072 411.761C333.219 411.531 333.293 411.249 333.293 410.915ZM337.747 407.545V408.096H335.144V407.545H337.747ZM335.957 406.239H336.593V411.576C336.593 411.803 336.632 411.982 336.71 412.112C336.788 412.24 336.89 412.331 337.015 412.386C337.141 412.438 337.274 412.464 337.416 412.464C337.499 412.464 337.57 412.459 337.629 412.45C337.689 412.438 337.741 412.426 337.786 412.414L337.921 412.986C337.859 413.009 337.783 413.031 337.693 413.05C337.603 413.071 337.492 413.082 337.36 413.082C337.128 413.082 336.904 413.031 336.688 412.929C336.475 412.827 336.3 412.676 336.163 412.474C336.026 412.273 335.957 412.023 335.957 411.725V406.239Z" fill="#6C757D"/>
<circle cx="435.5" cy="56.5" r="1.5" fill="#ADB5BD"/>
<circle cx="435.5" cy="65.5" r="1.5" fill="#ADB5BD"/>
<circle cx="435.5" cy="74.5" r="1.5" fill="#ADB5BD"/>
</g>
<defs>
<filter id="filter0_d_6180_322" x="0" y="0" width="500" height="475" filterUnits="userSpaceOnUse" color-interpolation-filters="sRGB">
<feFlood flood-opacity="0" result="BackgroundImageFix"/>
<feColorMatrix in="SourceAlpha" type="matrix" values="0 0 0 0 0 0 0 0 0 0 0 0 0 0 0 0 0 0 127 0" result="hardAlpha"/>
<feOffset dy="4"/>
<feGaussianBlur stdDeviation="20"/>
<feComposite in2="hardAlpha" operator="out"/>
<feColorMatrix type="matrix" values="0 0 0 0 0.675455 0 0 0 0 0.904545 0 0 0 0 0.781515 0 0 0 0.31 0"/>
<feBlend mode="normal" in2="BackgroundImageFix" result="effect1_dropShadow_6180_322"/>
<feBlend mode="normal" in="SourceGraphic" in2="effect1_dropShadow_6180_322" result="shape"/>
</filter>
</defs>
</svg>
