<svg width="460" height="265" viewBox="0 0 460 265" fill="none" xmlns="http://www.w3.org/2000/svg">
<g filter="url(#filter0_d_6180_495)">
<rect x="20" y="16" width="420" height="225" rx="8" fill="white"/>
<rect x="20.5" y="16.5" width="419" height="224" rx="7.5" stroke="#2D995F"/>
<path d="M62.6619 70H61.9943C61.9446 69.7514 61.8546 69.5218 61.7244 69.3111C61.5966 69.098 61.4356 68.9122 61.2415 68.7536C61.0473 68.5949 60.8272 68.4718 60.581 68.3842C60.3348 68.2966 60.0684 68.2528 59.782 68.2528C59.3227 68.2528 58.9036 68.3724 58.5249 68.6115C58.1484 68.8506 57.8466 69.2022 57.6193 69.6662C57.3944 70.1278 57.282 70.6937 57.282 71.3636C57.282 72.0384 57.3944 72.6065 57.6193 73.0682C57.8466 73.5298 58.1484 73.8802 58.5249 74.1193C58.9036 74.3561 59.3227 74.4744 59.782 74.4744C60.0684 74.4744 60.3348 74.4306 60.581 74.343C60.8272 74.2554 61.0473 74.1335 61.2415 73.9773C61.4356 73.8187 61.5966 73.6328 61.7244 73.4197C61.8546 73.2067 61.9446 72.9759 61.9943 72.7273H62.6619C62.6027 73.0611 62.4915 73.3724 62.3281 73.6612C62.1671 73.9477 61.9612 74.1986 61.7102 74.4141C61.4616 74.6295 61.1752 74.7976 60.8509 74.9183C60.5265 75.0391 60.1702 75.0994 59.782 75.0994C59.1712 75.0994 58.629 74.9467 58.1555 74.6413C57.6821 74.3336 57.3104 73.9003 57.0405 73.3416C56.773 72.7829 56.6392 72.1236 56.6392 71.3636C56.6392 70.6037 56.773 69.9444 57.0405 69.3857C57.3104 68.8269 57.6821 68.3949 58.1555 68.0895C58.629 67.7817 59.1712 67.6278 59.782 67.6278C60.1702 67.6278 60.5265 67.6882 60.8509 67.8089C61.1752 67.9273 61.4616 68.0954 61.7102 68.3132C61.9612 68.5286 62.1671 68.7796 62.3281 69.0661C62.4915 69.3525 62.6027 69.6638 62.6619 70ZM64.2324 75H63.5364L66.182 67.7273H66.8922L69.5378 75H68.8418L66.562 68.5902H66.5123L64.2324 75ZM64.7331 72.2124H68.3411V72.8089H64.7331V72.2124ZM74.7331 69.5455C74.6929 69.1406 74.5141 68.8187 74.1969 68.5795C73.8797 68.3404 73.4808 68.2209 73.0002 68.2209C72.6616 68.2209 72.3633 68.2789 72.1053 68.3949C71.8496 68.5109 71.6484 68.6719 71.5016 68.8778C71.3572 69.0814 71.285 69.3134 71.285 69.5739C71.285 69.7656 71.3264 69.9337 71.4093 70.0781C71.4921 70.2225 71.6034 70.3468 71.7431 70.451C71.8851 70.5528 72.0414 70.6404 72.2118 70.7138C72.3846 70.7872 72.5587 70.8487 72.7338 70.8984L73.5009 71.1186C73.7329 71.1825 73.9649 71.2642 74.1969 71.3636C74.4289 71.4631 74.6408 71.5885 74.8326 71.7401C75.0267 71.8892 75.1818 72.0727 75.2978 72.2905C75.4161 72.5059 75.4753 72.7652 75.4753 73.0682C75.4753 73.4564 75.3747 73.8056 75.1735 74.1158C74.9722 74.4259 74.6834 74.6721 74.307 74.8544C73.9306 75.0343 73.4796 75.1243 72.954 75.1243C72.4592 75.1243 72.0295 75.0426 71.665 74.8793C71.3004 74.7135 71.0139 74.4851 70.8056 74.1939C70.5972 73.9027 70.4801 73.5653 70.454 73.1818H71.1358C71.1595 73.4683 71.2542 73.7109 71.4199 73.9098C71.5856 74.1087 71.8011 74.2602 72.0662 74.3643C72.3314 74.4661 72.6273 74.517 72.954 74.517C73.3162 74.517 73.6382 74.4567 73.9199 74.3359C74.204 74.2128 74.4266 74.0424 74.5875 73.8246C74.7509 73.6044 74.8326 73.3487 74.8326 73.0575C74.8326 72.8113 74.7686 72.6054 74.6408 72.4396C74.513 72.2715 74.3342 72.1307 74.1046 72.017C73.8773 71.9034 73.6133 71.8028 73.3127 71.7152L72.4426 71.4595C71.8721 71.2891 71.4294 71.0535 71.1145 70.7528C70.7997 70.4522 70.6422 70.0687 70.6422 69.6023C70.6422 69.2116 70.7464 68.8684 70.9547 68.5724C71.1654 68.2741 71.4495 68.0421 71.807 67.8764C72.1668 67.7083 72.5705 67.6243 73.0179 67.6243C73.4701 67.6243 73.8702 67.7071 74.2182 67.8729C74.5662 68.0386 74.842 68.267 75.0456 68.5582C75.2516 68.8471 75.3617 69.1761 75.3759 69.5455H74.7331ZM77.0733 75V67.7273H77.7374V71.0618H81.8638V67.7273H82.5279V75H81.8638V71.6584H77.7374V75H77.0733ZM93.231 71.3636C93.231 72.1212 93.0961 72.7805 92.8262 73.3416C92.5563 73.9003 92.1846 74.3336 91.7111 74.6413C91.24 74.9467 90.6979 75.0994 90.0847 75.0994C89.4715 75.0994 88.9282 74.9467 88.4547 74.6413C87.9836 74.3336 87.6131 73.9003 87.3432 73.3416C87.0757 72.7805 86.9419 72.1212 86.9419 71.3636C86.9419 70.6061 87.0757 69.9479 87.3432 69.3892C87.6131 68.8281 87.9848 68.3949 88.4583 68.0895C88.9318 67.7817 89.4739 67.6278 90.0847 67.6278C90.6979 67.6278 91.24 67.7817 91.7111 68.0895C92.1846 68.3949 92.5563 68.8281 92.8262 69.3892C93.0961 69.9479 93.231 70.6061 93.231 71.3636ZM92.5847 71.3636C92.5847 70.7126 92.4758 70.1551 92.258 69.6911C92.0402 69.2247 91.7431 68.8684 91.3667 68.6222C90.9902 68.3759 90.5629 68.2528 90.0847 68.2528C89.6088 68.2528 89.1827 68.3759 88.8063 68.6222C88.4299 68.8684 88.1316 69.2235 87.9114 69.6875C87.6936 70.1515 87.5847 70.7102 87.5847 71.3636C87.5847 72.0147 87.6936 72.5722 87.9114 73.0362C88.1292 73.5002 88.4263 73.8565 88.8027 74.1051C89.1792 74.3513 89.6065 74.4744 90.0847 74.4744C90.5629 74.4744 90.9902 74.3513 91.3667 74.1051C91.7454 73.8589 92.0437 73.5038 92.2615 73.0398C92.4793 72.5734 92.5871 72.0147 92.5847 71.3636ZM100.501 67.7273V75H99.8548L95.5579 68.9098H95.5011V75H94.837V67.7273H95.4798L99.7908 73.8246H99.8477V67.7273H100.501ZM107.349 75.0994C106.838 75.0994 106.401 74.9527 106.039 74.6591C105.679 74.3632 105.402 73.9358 105.208 73.3771C105.016 72.8184 104.92 72.1473 104.92 71.3636C104.92 70.5824 105.016 69.9136 105.208 69.3572C105.402 68.7985 105.68 68.3712 106.043 68.0753C106.407 67.777 106.843 67.6278 107.349 67.6278C107.856 67.6278 108.29 67.777 108.653 68.0753C109.017 68.3712 109.295 68.7985 109.487 69.3572C109.681 69.9136 109.778 70.5824 109.778 71.3636C109.778 72.1473 109.681 72.8184 109.487 73.3771C109.295 73.9358 109.018 74.3632 108.656 74.6591C108.296 74.9527 107.861 75.0994 107.349 75.0994ZM107.349 74.5028C107.911 74.5028 108.348 74.2294 108.663 73.6825C108.978 73.1333 109.136 72.3603 109.136 71.3636C109.136 70.7008 109.063 70.1349 108.919 69.6662C108.777 69.1951 108.572 68.8352 108.305 68.5866C108.04 68.3381 107.721 68.2138 107.349 68.2138C106.793 68.2138 106.356 68.4908 106.039 69.0447C105.722 69.5964 105.563 70.3693 105.563 71.3636C105.563 72.0265 105.634 72.5923 105.776 73.0611C105.921 73.5298 106.125 73.8873 106.391 74.1335C106.658 74.3797 106.978 74.5028 107.349 74.5028ZM113.468 67.7273V75H112.804V68.4233H112.761L111.057 69.5561V68.8672L112.776 67.7273H113.468ZM118.063 67.3864L115.719 76.0938H115.126L117.47 67.3864H118.063ZM121.392 75.0994C120.881 75.0994 120.444 74.9527 120.082 74.6591C119.722 74.3632 119.445 73.9358 119.251 73.3771C119.059 72.8184 118.963 72.1473 118.963 71.3636C118.963 70.5824 119.059 69.9136 119.251 69.3572C119.445 68.7985 119.723 68.3712 120.086 68.0753C120.45 67.777 120.886 67.6278 121.392 67.6278C121.899 67.6278 122.333 67.777 122.696 68.0753C123.06 68.3712 123.338 68.7985 123.53 69.3572C123.724 69.9136 123.821 70.5824 123.821 71.3636C123.821 72.1473 123.724 72.8184 123.53 73.3771C123.338 73.9358 123.061 74.3632 122.699 74.6591C122.339 74.9527 121.904 75.0994 121.392 75.0994ZM121.392 74.5028C121.953 74.5028 122.391 74.2294 122.706 73.6825C123.021 73.1333 123.179 72.3603 123.179 71.3636C123.179 70.7008 123.106 70.1349 122.962 69.6662C122.82 69.1951 122.615 68.8352 122.348 68.5866C122.083 68.3381 121.764 68.2138 121.392 68.2138C120.836 68.2138 120.399 68.4908 120.082 69.0447C119.765 69.5964 119.606 70.3693 119.606 71.3636C119.606 72.0265 119.677 72.5923 119.819 73.0611C119.964 73.5298 120.168 73.8873 120.434 74.1335C120.701 74.3797 121.021 74.5028 121.392 74.5028ZM127.511 67.7273V75H126.847V68.4233H126.804L125.1 69.5561V68.8672L126.819 67.7273H127.511ZM132.106 67.3864L129.762 76.0938H129.169L131.513 67.3864H132.106ZM133.177 75V74.5135L135.553 71.843C135.863 71.4927 136.112 71.1932 136.302 70.9446C136.491 70.696 136.629 70.4664 136.714 70.2557C136.801 70.045 136.845 69.826 136.845 69.5987C136.845 69.3217 136.78 69.0803 136.65 68.8743C136.522 68.666 136.346 68.5038 136.121 68.3878C135.896 68.2718 135.643 68.2138 135.361 68.2138C135.063 68.2138 134.801 68.2777 134.576 68.4055C134.353 68.5334 134.181 68.7086 134.058 68.9311C133.934 69.1536 133.873 69.4093 133.873 69.6982H133.237C133.237 69.2957 133.33 68.9394 133.514 68.6293C133.701 68.3168 133.956 68.0717 134.278 67.8942C134.602 67.7166 134.969 67.6278 135.379 67.6278C135.783 67.6278 136.143 67.7154 136.458 67.8906C136.773 68.0634 137.02 68.299 137.2 68.5973C137.38 68.8956 137.47 69.2294 137.47 69.5987C137.47 69.8662 137.423 70.1255 137.328 70.3764C137.236 70.6274 137.076 70.9067 136.849 71.2145C136.621 71.5223 136.307 71.8987 135.904 72.3438L134.1 74.3572V74.4034H137.697V75H133.177ZM141.539 75.0994C141.028 75.0994 140.591 74.9527 140.229 74.6591C139.869 74.3632 139.592 73.9358 139.398 73.3771C139.206 72.8184 139.11 72.1473 139.11 71.3636C139.11 70.5824 139.206 69.9136 139.398 69.3572C139.592 68.7985 139.87 68.3712 140.232 68.0753C140.597 67.777 141.032 67.6278 141.539 67.6278C142.046 67.6278 142.48 67.777 142.842 68.0753C143.207 68.3712 143.485 68.7985 143.677 69.3572C143.871 69.9136 143.968 70.5824 143.968 71.3636C143.968 72.1473 143.871 72.8184 143.677 73.3771C143.485 73.9358 143.208 74.3632 142.846 74.6591C142.486 74.9527 142.05 75.0994 141.539 75.0994ZM141.539 74.5028C142.1 74.5028 142.538 74.2294 142.853 73.6825C143.168 73.1333 143.325 72.3603 143.325 71.3636C143.325 70.7008 143.253 70.1349 143.108 69.6662C142.966 69.1951 142.762 68.8352 142.494 68.5866C142.229 68.3381 141.911 68.2138 141.539 68.2138C140.983 68.2138 140.546 68.4908 140.229 69.0447C139.911 69.5964 139.753 70.3693 139.753 71.3636C139.753 72.0265 139.824 72.5923 139.966 73.0611C140.11 73.5298 140.315 73.8873 140.58 74.1335C140.848 74.3797 141.167 74.5028 141.539 74.5028ZM145.413 75V74.5135L147.789 71.843C148.099 71.4927 148.349 71.1932 148.538 70.9446C148.728 70.696 148.865 70.4664 148.95 70.2557C149.038 70.045 149.081 69.826 149.081 69.5987C149.081 69.3217 149.016 69.0803 148.886 68.8743C148.758 68.666 148.582 68.5038 148.357 68.3878C148.132 68.2718 147.879 68.2138 147.597 68.2138C147.299 68.2138 147.037 68.2777 146.812 68.4055C146.59 68.5334 146.417 68.7086 146.294 68.9311C146.171 69.1536 146.109 69.4093 146.109 69.6982H145.474C145.474 69.2957 145.566 68.9394 145.751 68.6293C145.938 68.3168 146.192 68.0717 146.514 67.8942C146.838 67.7166 147.205 67.6278 147.615 67.6278C148.02 67.6278 148.38 67.7154 148.694 67.8906C149.009 68.0634 149.257 68.299 149.437 68.5973C149.617 68.8956 149.706 69.2294 149.706 69.5987C149.706 69.8662 149.659 70.1255 149.564 70.3764C149.472 70.6274 149.312 70.9067 149.085 71.2145C148.858 71.5223 148.543 71.8987 148.14 72.3438L146.336 74.3572V74.4034H149.934V75H145.413ZM151.186 73.4375V72.8977L154.429 67.7273H154.826V68.6328H154.532L151.929 72.7947V72.8409H156.179V73.4375H151.186ZM154.581 75V73.267V73.0185V67.7273H155.213V75H154.581Z" fill="#6C757D"/>
<path d="M68.0874 86.9091V100H65.6967L60.0014 91.7607H59.9055V100H57.1378V86.9091H59.5668L65.2173 95.142H65.3324V86.9091H68.0874ZM70.2974 100V98.0057L74.9572 93.6911C75.3535 93.3075 75.6859 92.9624 75.9544 92.6555C76.2271 92.3487 76.4338 92.0483 76.5744 91.7543C76.715 91.456 76.7853 91.1342 76.7853 90.7891C76.7853 90.4055 76.698 90.0753 76.5233 89.7983C76.3485 89.517 76.1099 89.3018 75.8074 89.1527C75.5048 88.9993 75.1618 88.9226 74.7782 88.9226C74.3777 88.9226 74.0282 89.0036 73.7299 89.1655C73.4316 89.3274 73.2015 89.5597 73.0396 89.8622C72.8777 90.1648 72.7967 90.5249 72.7967 90.9425H70.1696C70.1696 90.0859 70.3635 89.3423 70.7512 88.7116C71.139 88.081 71.6824 87.593 72.3812 87.2479C73.0801 86.9027 73.8855 86.7301 74.7974 86.7301C75.7349 86.7301 76.551 86.8963 77.2456 87.2287C77.9444 87.5568 78.4877 88.0128 78.8755 88.5966C79.2633 89.1804 79.4572 89.8494 79.4572 90.6037C79.4572 91.098 79.3592 91.5859 79.1632 92.0675C78.9714 92.549 78.6284 93.0838 78.1341 93.6719C77.6397 94.2557 76.943 94.9567 76.0439 95.7749L74.1326 97.6477V97.7372H79.6298V100H70.2974ZM86.4165 100.179C85.5131 100.179 84.7077 100.013 84.0004 99.6804C83.2972 99.348 82.739 98.8899 82.3256 98.3061C81.9123 97.7223 81.6971 97.0533 81.68 96.299H84.3647C84.3945 96.8061 84.6076 97.2173 85.0039 97.5327C85.4002 97.848 85.8711 98.0057 86.4165 98.0057C86.8512 98.0057 87.2347 97.9098 87.5671 97.718C87.9038 97.522 88.1658 97.2514 88.3533 96.9062C88.5451 96.5568 88.641 96.1562 88.641 95.7045C88.641 95.2443 88.543 94.8395 88.3469 94.4901C88.1552 94.1406 87.8888 93.8679 87.5479 93.6719C87.207 93.4759 86.8171 93.3757 86.3782 93.3714C85.9947 93.3714 85.6218 93.4503 85.2596 93.608C84.9016 93.7656 84.6225 93.9808 84.4222 94.2536L81.9613 93.8125L82.5813 86.9091H90.5842V89.1719H84.8633L84.5245 92.451H84.6012C84.8313 92.1271 85.1786 91.8587 85.6431 91.6456C86.1076 91.4325 86.6275 91.326 87.2028 91.326C87.9911 91.326 88.6942 91.5114 89.3121 91.8821C89.93 92.2528 90.418 92.7621 90.7759 93.4098C91.1339 94.0533 91.3107 94.7947 91.3065 95.6342C91.3107 96.5163 91.1062 97.3004 90.6928 97.9865C90.2837 98.6683 89.7106 99.2053 88.9734 99.5973C88.2404 99.9851 87.3881 100.179 86.4165 100.179ZM95.8001 98.2102L95.7298 98.9134C95.6744 99.4759 95.5678 100.036 95.4102 100.594C95.2567 101.157 95.0948 101.666 94.9244 102.122C94.7582 102.578 94.6239 102.936 94.5217 103.196H92.7575C92.8214 102.945 92.9087 102.593 93.0195 102.141C93.1303 101.694 93.2347 101.191 93.3327 100.633C93.4308 100.075 93.4925 99.5057 93.5181 98.9261L93.5501 98.2102H95.8001ZM102.87 100.288C101.77 100.283 100.824 100.013 100.032 99.4759C99.2433 98.9389 98.636 98.1612 98.2099 97.1428C97.788 96.1243 97.5792 94.8991 97.5835 93.4673C97.5835 92.0398 97.7944 90.8232 98.2163 89.8175C98.6424 88.8118 99.2496 88.0469 100.038 87.5227C100.831 86.9943 101.775 86.7301 102.87 86.7301C103.965 86.7301 104.907 86.9943 105.695 87.5227C106.488 88.0511 107.097 88.8182 107.523 89.8239C107.949 90.8253 108.16 92.0398 108.156 93.4673C108.156 94.9034 107.943 96.1307 107.517 97.1491C107.095 98.1676 106.49 98.9453 105.701 99.4822C104.913 100.019 103.969 100.288 102.87 100.288ZM102.87 97.9929C103.62 97.9929 104.218 97.6158 104.666 96.8615C105.113 96.1072 105.335 94.9759 105.331 93.4673C105.331 92.4744 105.228 91.6477 105.024 90.9872C104.824 90.3267 104.538 89.8303 104.167 89.4979C103.801 89.1655 103.368 88.9993 102.87 88.9993C102.124 88.9993 101.527 89.3722 101.08 90.1179C100.632 90.8636 100.407 91.9801 100.402 93.4673C100.402 94.473 100.502 95.3125 100.703 95.9858C100.907 96.6548 101.195 97.1577 101.566 97.4943C101.936 97.8267 102.371 97.9929 102.87 97.9929ZM114.866 86.7301C115.539 86.7301 116.187 86.843 116.809 87.0689C117.436 87.2947 117.994 87.6548 118.484 88.1491C118.978 88.6435 119.368 89.2997 119.654 90.1179C119.943 90.9318 120.09 91.9311 120.095 93.1158C120.095 94.228 119.969 95.2209 119.718 96.0945C119.47 96.9638 119.115 97.7031 118.65 98.3125C118.186 98.9219 117.625 99.3864 116.969 99.706C116.313 100.021 115.58 100.179 114.77 100.179C113.896 100.179 113.125 100.011 112.456 99.674C111.787 99.3331 111.248 98.8707 110.839 98.2869C110.434 97.6989 110.189 97.0384 110.104 96.3054H112.833C112.94 96.7827 113.164 97.1534 113.504 97.4176C113.845 97.6776 114.267 97.8075 114.77 97.8075C115.622 97.8075 116.27 97.4368 116.713 96.6953C117.156 95.9496 117.38 94.929 117.384 93.6335H117.295C117.099 94.017 116.835 94.3473 116.502 94.6243C116.17 94.897 115.789 95.108 115.358 95.2571C114.932 95.4062 114.478 95.4808 113.997 95.4808C113.225 95.4808 112.537 95.2997 111.932 94.9375C111.327 94.5753 110.85 94.0767 110.5 93.4418C110.151 92.8068 109.976 92.0824 109.976 91.2685C109.972 90.3906 110.174 89.6087 110.583 88.9226C110.992 88.2365 111.563 87.6996 112.296 87.3118C113.034 86.9197 113.89 86.7259 114.866 86.7301ZM114.885 88.9034C114.455 88.9034 114.071 89.0057 113.735 89.2102C113.402 89.4148 113.138 89.6896 112.942 90.0348C112.75 90.38 112.656 90.7656 112.661 91.1918C112.661 91.6222 112.754 92.0099 112.942 92.3551C113.134 92.696 113.394 92.9687 113.722 93.1733C114.054 93.3736 114.433 93.4737 114.86 93.4737C115.179 93.4737 115.475 93.4141 115.748 93.2947C116.021 93.1754 116.257 93.0114 116.458 92.8026C116.662 92.5895 116.822 92.3445 116.937 92.0675C117.052 91.7905 117.11 91.4964 117.11 91.1854C117.105 90.772 117.007 90.3928 116.816 90.0476C116.624 89.7024 116.36 89.4254 116.023 89.2166C115.686 89.0078 115.307 88.9034 114.885 88.9034ZM127.145 100.288C126.046 100.283 125.1 100.013 124.307 99.4759C123.519 98.9389 122.911 98.1612 122.485 97.1428C122.063 96.1243 121.855 94.8991 121.859 93.4673C121.859 92.0398 122.07 90.8232 122.492 89.8175C122.918 88.8118 123.525 88.0469 124.313 87.5227C125.106 86.9943 126.05 86.7301 127.145 86.7301C128.24 86.7301 129.182 86.9943 129.97 87.5227C130.763 88.0511 131.372 88.8182 131.798 89.8239C132.225 90.8253 132.436 92.0398 132.431 93.4673C132.431 94.9034 132.218 96.1307 131.792 97.1491C131.37 98.1676 130.765 98.9453 129.977 99.4822C129.188 100.019 128.244 100.288 127.145 100.288ZM127.145 97.9929C127.895 97.9929 128.494 97.6158 128.941 96.8615C129.389 96.1072 129.61 94.9759 129.606 93.4673C129.606 92.4744 129.504 91.6477 129.299 90.9872C129.099 90.3267 128.813 89.8303 128.443 89.4979C128.076 89.1655 127.644 88.9993 127.145 88.9993C126.399 88.9993 125.803 89.3722 125.355 90.1179C124.908 90.8636 124.682 91.9801 124.678 93.4673C124.678 94.473 124.778 95.3125 124.978 95.9858C125.183 96.6548 125.47 97.1577 125.841 97.4943C126.212 97.8267 126.646 97.9929 127.145 97.9929ZM136.863 98.2102L136.792 98.9134C136.737 99.4759 136.63 100.036 136.473 100.594C136.319 101.157 136.157 101.666 135.987 102.122C135.821 102.578 135.686 102.936 135.584 103.196H133.82C133.884 102.945 133.971 102.593 134.082 102.141C134.193 101.694 134.297 101.191 134.395 100.633C134.493 100.075 134.555 99.5057 134.581 98.9261L134.613 98.2102H136.863ZM139.129 97.6989V95.5192L144.594 86.9091H146.473V89.9261H145.361L141.915 95.3786V95.4808H149.682V97.6989H139.129ZM145.412 100V97.0341L145.463 96.0689V86.9091H148.058V100H145.412ZM156.307 100.179C155.404 100.179 154.598 100.013 153.891 99.6804C153.188 99.348 152.63 98.8899 152.216 98.3061C151.803 97.7223 151.588 97.0533 151.571 96.299H154.255C154.285 96.8061 154.498 97.2173 154.895 97.5327C155.291 97.848 155.762 98.0057 156.307 98.0057C156.742 98.0057 157.125 97.9098 157.458 97.718C157.794 97.522 158.056 97.2514 158.244 96.9062C158.436 96.5568 158.532 96.1562 158.532 95.7045C158.532 95.2443 158.434 94.8395 158.238 94.4901C158.046 94.1406 157.779 93.8679 157.439 93.6719C157.098 93.4759 156.708 93.3757 156.269 93.3714C155.885 93.3714 155.512 93.4503 155.15 93.608C154.792 93.7656 154.513 93.9808 154.313 94.2536L151.852 93.8125L152.472 86.9091H160.475V89.1719H154.754L154.415 92.451H154.492C154.722 92.1271 155.069 91.8587 155.534 91.6456C155.998 91.4325 156.518 91.326 157.093 91.326C157.882 91.326 158.585 91.5114 159.203 91.8821C159.821 92.2528 160.309 92.7621 160.667 93.4098C161.025 94.0533 161.201 94.7947 161.197 95.6342C161.201 96.5163 160.997 97.3004 160.583 97.9865C160.174 98.6683 159.601 99.2053 158.864 99.5973C158.131 99.9851 157.279 100.179 156.307 100.179ZM168.26 100.288C167.161 100.283 166.215 100.013 165.422 99.4759C164.634 98.9389 164.027 98.1612 163.6 97.1428C163.179 96.1243 162.97 94.8991 162.974 93.4673C162.974 92.0398 163.185 90.8232 163.607 89.8175C164.033 88.8118 164.64 88.0469 165.429 87.5227C166.221 86.9943 167.165 86.7301 168.26 86.7301C169.355 86.7301 170.297 86.9943 171.086 87.5227C171.878 88.0511 172.488 88.8182 172.914 89.8239C173.34 90.8253 173.551 92.0398 173.547 93.4673C173.547 94.9034 173.333 96.1307 172.907 97.1491C172.485 98.1676 171.88 98.9453 171.092 99.4822C170.304 100.019 169.36 100.288 168.26 100.288ZM168.26 97.9929C169.01 97.9929 169.609 97.6158 170.056 96.8615C170.504 96.1072 170.725 94.9759 170.721 93.4673C170.721 92.4744 170.619 91.6477 170.414 90.9872C170.214 90.3267 169.929 89.8303 169.558 89.4979C169.191 89.1655 168.759 88.9993 168.26 88.9993C167.515 88.9993 166.918 89.3722 166.471 90.1179C166.023 90.8636 165.797 91.9801 165.793 93.4673C165.793 94.473 165.893 95.3125 166.093 95.9858C166.298 96.6548 166.586 97.1577 166.956 97.4943C167.327 97.8267 167.762 97.9929 168.26 97.9929ZM176.61 100.166C176.188 100.166 175.826 100.017 175.523 99.7188C175.225 99.4162 175.076 99.054 175.076 98.6321C175.076 98.2145 175.225 97.8565 175.523 97.5582C175.826 97.2599 176.188 97.1108 176.61 97.1108C177.019 97.1108 177.377 97.2599 177.684 97.5582C177.991 97.8565 178.144 98.2145 178.144 98.6321C178.144 98.9134 178.072 99.1712 177.927 99.4055C177.786 99.6357 177.601 99.821 177.371 99.9616C177.14 100.098 176.887 100.166 176.61 100.166ZM185.03 100.179C184.126 100.179 183.321 100.013 182.614 99.6804C181.911 99.348 181.352 98.8899 180.939 98.3061C180.526 97.7223 180.31 97.0533 180.293 96.299H182.978C183.008 96.8061 183.221 97.2173 183.617 97.5327C184.013 97.848 184.484 98.0057 185.03 98.0057C185.464 98.0057 185.848 97.9098 186.18 97.718C186.517 97.522 186.779 97.2514 186.967 96.9062C187.158 96.5568 187.254 96.1562 187.254 95.7045C187.254 95.2443 187.156 94.8395 186.96 94.4901C186.768 94.1406 186.502 93.8679 186.161 93.6719C185.82 93.4759 185.43 93.3757 184.991 93.3714C184.608 93.3714 184.235 93.4503 183.873 93.608C183.515 93.7656 183.236 93.9808 183.036 94.2536L180.575 93.8125L181.195 86.9091H189.197V89.1719H183.477L183.138 92.451H183.214C183.445 92.1271 183.792 91.8587 184.256 91.6456C184.721 91.4325 185.241 91.326 185.816 91.326C186.604 91.326 187.308 91.5114 187.925 91.8821C188.543 92.2528 189.031 92.7621 189.389 93.4098C189.747 94.0533 189.924 94.7947 189.92 95.6342C189.924 96.5163 189.719 97.3004 189.306 97.9865C188.897 98.6683 188.324 99.2053 187.587 99.5973C186.854 99.9851 186.001 100.179 185.03 100.179ZM196.631 100.179C195.728 100.179 194.923 100.013 194.215 99.6804C193.512 99.348 192.954 98.8899 192.54 98.3061C192.127 97.7223 191.912 97.0533 191.895 96.299H194.58C194.609 96.8061 194.822 97.2173 195.219 97.5327C195.615 97.848 196.086 98.0057 196.631 98.0057C197.066 98.0057 197.45 97.9098 197.782 97.718C198.119 97.522 198.381 97.2514 198.568 96.9062C198.76 96.5568 198.856 96.1562 198.856 95.7045C198.856 95.2443 198.758 94.8395 198.562 94.4901C198.37 94.1406 198.104 93.8679 197.763 93.6719C197.422 93.4759 197.032 93.3757 196.593 93.3714C196.21 93.3714 195.837 93.4503 195.474 93.608C195.116 93.7656 194.837 93.9808 194.637 94.2536L192.176 93.8125L192.796 86.9091H200.799V89.1719H195.078L194.739 92.451H194.816C195.046 92.1271 195.393 91.8587 195.858 91.6456C196.322 91.4325 196.842 91.326 197.418 91.326C198.206 91.326 198.909 91.5114 199.527 91.8821C200.145 92.2528 200.633 92.7621 200.991 93.4098C201.349 94.0533 201.526 94.7947 201.521 95.6342C201.526 96.5163 201.321 97.3004 200.908 97.9865C200.499 98.6683 199.925 99.2053 199.188 99.5973C198.455 99.9851 197.603 100.179 196.631 100.179Z" fill="#343A40"/>
<path d="M62.6619 149H61.9943C61.9446 148.751 61.8546 148.522 61.7244 148.311C61.5966 148.098 61.4356 147.912 61.2415 147.754C61.0473 147.595 60.8272 147.472 60.581 147.384C60.3348 147.297 60.0684 147.253 59.782 147.253C59.3227 147.253 58.9036 147.372 58.5249 147.612C58.1484 147.851 57.8466 148.202 57.6193 148.666C57.3944 149.128 57.282 149.694 57.282 150.364C57.282 151.038 57.3944 151.607 57.6193 152.068C57.8466 152.53 58.1484 152.88 58.5249 153.119C58.9036 153.356 59.3227 153.474 59.782 153.474C60.0684 153.474 60.3348 153.431 60.581 153.343C60.8272 153.255 61.0473 153.134 61.2415 152.977C61.4356 152.819 61.5966 152.633 61.7244 152.42C61.8546 152.207 61.9446 151.976 61.9943 151.727H62.6619C62.6027 152.061 62.4915 152.372 62.3281 152.661C62.1671 152.948 61.9612 153.199 61.7102 153.414C61.4616 153.629 61.1752 153.798 60.8509 153.918C60.5265 154.039 60.1702 154.099 59.782 154.099C59.1712 154.099 58.629 153.947 58.1555 153.641C57.6821 153.334 57.3104 152.9 57.0405 152.342C56.773 151.783 56.6392 151.124 56.6392 150.364C56.6392 149.604 56.773 148.944 57.0405 148.386C57.3104 147.827 57.6821 147.395 58.1555 147.089C58.629 146.782 59.1712 146.628 59.782 146.628C60.1702 146.628 60.5265 146.688 60.8509 146.809C61.1752 146.927 61.4616 147.095 61.7102 147.313C61.9612 147.529 62.1671 147.78 62.3281 148.066C62.4915 148.353 62.6027 148.664 62.6619 149ZM64.2324 154H63.5364L66.182 146.727H66.8922L69.5378 154H68.8418L66.562 147.59H66.5123L64.2324 154ZM64.7331 151.212H68.3411V151.809H64.7331V151.212ZM74.7331 148.545C74.6929 148.141 74.5141 147.819 74.1969 147.58C73.8797 147.34 73.4808 147.221 73.0002 147.221C72.6616 147.221 72.3633 147.279 72.1053 147.395C71.8496 147.511 71.6484 147.672 71.5016 147.878C71.3572 148.081 71.285 148.313 71.285 148.574C71.285 148.766 71.3264 148.934 71.4093 149.078C71.4921 149.223 71.6034 149.347 71.7431 149.451C71.8851 149.553 72.0414 149.64 72.2118 149.714C72.3846 149.787 72.5587 149.849 72.7338 149.898L73.5009 150.119C73.7329 150.183 73.9649 150.264 74.1969 150.364C74.4289 150.463 74.6408 150.589 74.8326 150.74C75.0267 150.889 75.1818 151.073 75.2978 151.29C75.4161 151.506 75.4753 151.765 75.4753 152.068C75.4753 152.456 75.3747 152.806 75.1735 153.116C74.9722 153.426 74.6834 153.672 74.307 153.854C73.9306 154.034 73.4796 154.124 72.954 154.124C72.4592 154.124 72.0295 154.043 71.665 153.879C71.3004 153.714 71.0139 153.485 70.8056 153.194C70.5972 152.903 70.4801 152.565 70.454 152.182H71.1358C71.1595 152.468 71.2542 152.711 71.4199 152.91C71.5856 153.109 71.8011 153.26 72.0662 153.364C72.3314 153.466 72.6273 153.517 72.954 153.517C73.3162 153.517 73.6382 153.457 73.9199 153.336C74.204 153.213 74.4266 153.042 74.5875 152.825C74.7509 152.604 74.8326 152.349 74.8326 152.058C74.8326 151.811 74.7686 151.605 74.6408 151.44C74.513 151.272 74.3342 151.131 74.1046 151.017C73.8773 150.903 73.6133 150.803 73.3127 150.715L72.4426 150.46C71.8721 150.289 71.4294 150.054 71.1145 149.753C70.7997 149.452 70.6422 149.069 70.6422 148.602C70.6422 148.212 70.7464 147.868 70.9547 147.572C71.1654 147.274 71.4495 147.042 71.807 146.876C72.1668 146.708 72.5705 146.624 73.0179 146.624C73.4701 146.624 73.8702 146.707 74.2182 146.873C74.5662 147.039 74.842 147.267 75.0456 147.558C75.2516 147.847 75.3617 148.176 75.3759 148.545H74.7331ZM77.0733 154V146.727H77.7374V150.062H81.8638V146.727H82.5279V154H81.8638V150.658H77.7374V154H77.0733ZM93.231 150.364C93.231 151.121 93.0961 151.781 92.8262 152.342C92.5563 152.9 92.1846 153.334 91.7111 153.641C91.24 153.947 90.6979 154.099 90.0847 154.099C89.4715 154.099 88.9282 153.947 88.4547 153.641C87.9836 153.334 87.6131 152.9 87.3432 152.342C87.0757 151.781 86.9419 151.121 86.9419 150.364C86.9419 149.606 87.0757 148.948 87.3432 148.389C87.6131 147.828 87.9848 147.395 88.4583 147.089C88.9318 146.782 89.4739 146.628 90.0847 146.628C90.6979 146.628 91.24 146.782 91.7111 147.089C92.1846 147.395 92.5563 147.828 92.8262 148.389C93.0961 148.948 93.231 149.606 93.231 150.364ZM92.5847 150.364C92.5847 149.713 92.4758 149.155 92.258 148.691C92.0402 148.225 91.7431 147.868 91.3667 147.622C90.9902 147.376 90.5629 147.253 90.0847 147.253C89.6088 147.253 89.1827 147.376 88.8063 147.622C88.4299 147.868 88.1316 148.223 87.9114 148.688C87.6936 149.152 87.5847 149.71 87.5847 150.364C87.5847 151.015 87.6936 151.572 87.9114 152.036C88.1292 152.5 88.4263 152.857 88.8027 153.105C89.1792 153.351 89.6065 153.474 90.0847 153.474C90.5629 153.474 90.9902 153.351 91.3667 153.105C91.7454 152.859 92.0437 152.504 92.2615 152.04C92.4793 151.573 92.5871 151.015 92.5847 150.364ZM100.501 146.727V154H99.8548L95.5579 147.91H95.5011V154H94.837V146.727H95.4798L99.7908 152.825H99.8477V146.727H100.501ZM107.452 154.099C107.005 154.099 106.605 154.019 106.252 153.858C105.899 153.695 105.62 153.469 105.414 153.18C105.208 152.891 105.099 152.558 105.087 152.182H105.759C105.77 152.447 105.852 152.679 106.004 152.878C106.155 153.074 106.356 153.228 106.607 153.339C106.858 153.448 107.138 153.503 107.445 153.503C107.781 153.503 108.077 153.44 108.333 153.315C108.591 153.189 108.792 153.018 108.937 152.8C109.084 152.58 109.157 152.331 109.157 152.054C109.157 151.76 109.082 151.501 108.933 151.276C108.784 151.051 108.57 150.876 108.29 150.751C108.013 150.625 107.682 150.562 107.296 150.562H106.87V149.966H107.296C107.611 149.966 107.889 149.909 108.131 149.795C108.375 149.679 108.566 149.517 108.706 149.309C108.846 149.101 108.915 148.856 108.915 148.574C108.915 148.306 108.855 148.071 108.734 147.867C108.614 147.664 108.443 147.504 108.223 147.388C108.005 147.272 107.751 147.214 107.46 147.214C107.178 147.214 106.92 147.268 106.685 147.377C106.451 147.486 106.262 147.64 106.117 147.839C105.975 148.038 105.899 148.273 105.89 148.545H105.247C105.257 148.167 105.361 147.834 105.56 147.548C105.761 147.259 106.027 147.034 106.359 146.873C106.692 146.71 107.062 146.628 107.467 146.628C107.895 146.628 108.266 146.715 108.578 146.891C108.891 147.066 109.132 147.299 109.303 147.59C109.475 147.879 109.562 148.197 109.562 148.545C109.562 148.96 109.449 149.315 109.224 149.611C109 149.904 108.696 150.108 108.315 150.222V150.268C108.779 150.36 109.144 150.566 109.409 150.886C109.677 151.203 109.81 151.592 109.81 152.054C109.81 152.442 109.709 152.791 109.505 153.102C109.301 153.409 109.022 153.653 108.667 153.833C108.314 154.011 107.909 154.099 107.452 154.099ZM113.624 146.727V154H112.96V147.423H112.918L111.213 148.556V147.867L112.932 146.727H113.624ZM118.219 146.386L115.876 155.094H115.283L117.626 146.386H118.219ZM121.534 146.727V154H120.87V147.423H120.828L119.123 148.556V147.867L120.842 146.727H121.534ZM123.743 154V153.513L126.119 150.843C126.429 150.493 126.679 150.193 126.868 149.945C127.058 149.696 127.195 149.466 127.28 149.256C127.368 149.045 127.412 148.826 127.412 148.599C127.412 148.322 127.346 148.08 127.216 147.874C127.088 147.666 126.912 147.504 126.687 147.388C126.462 147.272 126.209 147.214 125.927 147.214C125.629 147.214 125.367 147.278 125.142 147.406C124.92 147.533 124.747 147.709 124.624 147.931C124.501 148.154 124.439 148.409 124.439 148.698H123.804C123.804 148.296 123.896 147.939 124.081 147.629C124.268 147.317 124.522 147.072 124.844 146.894C125.168 146.717 125.535 146.628 125.945 146.628C126.35 146.628 126.71 146.715 127.025 146.891C127.339 147.063 127.587 147.299 127.767 147.597C127.947 147.896 128.037 148.229 128.037 148.599C128.037 148.866 127.989 149.125 127.895 149.376C127.802 149.627 127.642 149.907 127.415 150.214C127.188 150.522 126.873 150.899 126.471 151.344L124.667 153.357V153.403H128.264V154H123.743ZM132.233 146.386L129.889 155.094H129.296L131.64 146.386H132.233ZM133.304 154V153.513L135.68 150.843C135.99 150.493 136.239 150.193 136.429 149.945C136.618 149.696 136.756 149.466 136.841 149.256C136.928 149.045 136.972 148.826 136.972 148.599C136.972 148.322 136.907 148.08 136.777 147.874C136.649 147.666 136.473 147.504 136.248 147.388C136.023 147.272 135.769 147.214 135.488 147.214C135.189 147.214 134.928 147.278 134.703 147.406C134.48 147.533 134.308 147.709 134.184 147.931C134.061 148.154 134 148.409 134 148.698H133.364C133.364 148.296 133.456 147.939 133.641 147.629C133.828 147.317 134.083 147.072 134.405 146.894C134.729 146.717 135.096 146.628 135.506 146.628C135.91 146.628 136.27 146.715 136.585 146.891C136.9 147.063 137.147 147.299 137.327 147.597C137.507 147.896 137.597 148.229 137.597 148.599C137.597 148.866 137.55 149.125 137.455 149.376C137.363 149.627 137.203 149.907 136.976 150.214C136.748 150.522 136.434 150.899 136.031 151.344L134.227 153.357V153.403H137.824V154H133.304ZM141.666 154.099C141.154 154.099 140.718 153.953 140.355 153.659C139.996 153.363 139.719 152.936 139.525 152.377C139.333 151.818 139.237 151.147 139.237 150.364C139.237 149.582 139.333 148.914 139.525 148.357C139.719 147.799 139.997 147.371 140.359 147.075C140.724 146.777 141.159 146.628 141.666 146.628C142.172 146.628 142.607 146.777 142.969 147.075C143.334 147.371 143.612 147.799 143.804 148.357C143.998 148.914 144.095 149.582 144.095 150.364C144.095 151.147 143.998 151.818 143.804 152.377C143.612 152.936 143.335 153.363 142.973 153.659C142.613 153.953 142.177 154.099 141.666 154.099ZM141.666 153.503C142.227 153.503 142.665 153.229 142.98 152.683C143.295 152.133 143.452 151.36 143.452 150.364C143.452 149.701 143.38 149.135 143.235 148.666C143.093 148.195 142.889 147.835 142.621 147.587C142.356 147.338 142.038 147.214 141.666 147.214C141.109 147.214 140.673 147.491 140.355 148.045C140.038 148.596 139.88 149.369 139.88 150.364C139.88 151.027 139.951 151.592 140.093 152.061C140.237 152.53 140.442 152.887 140.707 153.134C140.975 153.38 141.294 153.503 141.666 153.503ZM145.54 154V153.513L147.916 150.843C148.226 150.493 148.476 150.193 148.665 149.945C148.855 149.696 148.992 149.466 149.077 149.256C149.165 149.045 149.208 148.826 149.208 148.599C149.208 148.322 149.143 148.08 149.013 147.874C148.885 147.666 148.709 147.504 148.484 147.388C148.259 147.272 148.006 147.214 147.724 147.214C147.426 147.214 147.164 147.278 146.939 147.406C146.717 147.533 146.544 147.709 146.421 147.931C146.298 148.154 146.236 148.409 146.236 148.698H145.6C145.6 148.296 145.693 147.939 145.877 147.629C146.065 147.317 146.319 147.072 146.641 146.894C146.965 146.717 147.332 146.628 147.742 146.628C148.147 146.628 148.507 146.715 148.821 146.891C149.136 147.063 149.384 147.299 149.564 147.597C149.743 147.896 149.833 148.229 149.833 148.599C149.833 148.866 149.786 149.125 149.691 149.376C149.599 149.627 149.439 149.907 149.212 150.214C148.985 150.522 148.67 150.899 148.267 151.344L146.463 153.357V153.403H150.061V154H145.54ZM151.313 152.438V151.898L154.556 146.727H154.953V147.633H154.659L152.056 151.795V151.841H156.306V152.438H151.313ZM154.708 154V152.267V152.018V146.727H155.34V154H154.708Z" fill="#6C757D"/>
<path d="M68.0874 165.909V179H65.6967L60.0014 170.761H59.9055V179H57.1378V165.909H59.5668L65.2173 174.142H65.3324V165.909H68.0874ZM70.0993 176.699V174.519L75.5645 165.909H77.4437V168.926H76.3315L72.8862 174.379V174.481H80.6525V176.699H70.0993ZM76.3826 179V176.034L76.4338 175.069V165.909H79.0289V179H76.3826ZM82.2985 176.699V174.519L87.7637 165.909H89.6429V168.926H88.5307L85.0854 174.379V174.481H92.8517V176.699H82.2985ZM88.5819 179V176.034L88.633 175.069V165.909H91.2282V179H88.5819ZM99.4771 179.179C98.5737 179.179 97.7683 179.013 97.0609 178.68C96.3578 178.348 95.7995 177.89 95.3862 177.306C94.9728 176.722 94.7576 176.053 94.7406 175.299H97.4252C97.4551 175.806 97.6681 176.217 98.0645 176.533C98.4608 176.848 98.9316 177.006 99.4771 177.006C99.9118 177.006 100.295 176.91 100.628 176.718C100.964 176.522 101.226 176.251 101.414 175.906C101.606 175.557 101.702 175.156 101.702 174.705C101.702 174.244 101.604 173.839 101.407 173.49C101.216 173.141 100.949 172.868 100.608 172.672C100.268 172.476 99.8777 172.376 99.4387 172.371C99.0552 172.371 98.6824 172.45 98.3201 172.608C97.9622 172.766 97.6831 172.981 97.4828 173.254L95.0218 172.812L95.6419 165.909H103.645V168.172H97.9238L97.585 171.451H97.6618C97.8919 171.127 98.2392 170.859 98.7037 170.646C99.1681 170.433 99.688 170.326 100.263 170.326C101.052 170.326 101.755 170.511 102.373 170.882C102.991 171.253 103.479 171.762 103.836 172.41C104.194 173.053 104.371 173.795 104.367 174.634C104.371 175.516 104.167 176.3 103.753 176.987C103.344 177.668 102.771 178.205 102.034 178.597C101.301 178.985 100.449 179.179 99.4771 179.179ZM108.861 177.21L108.79 177.913C108.735 178.476 108.628 179.036 108.471 179.594C108.317 180.157 108.155 180.666 107.985 181.122C107.819 181.578 107.684 181.936 107.582 182.196H105.818C105.882 181.945 105.969 181.593 106.08 181.141C106.191 180.694 106.295 180.191 106.393 179.633C106.491 179.075 106.553 178.506 106.579 177.926L106.611 177.21H108.861ZM115.385 165.909V179H112.618V168.536H112.541L109.543 170.415V167.961L112.784 165.909H115.385ZM118.497 179V177.006L123.156 172.691C123.553 172.308 123.885 171.962 124.154 171.656C124.426 171.349 124.633 171.048 124.774 170.754C124.914 170.456 124.985 170.134 124.985 169.789C124.985 169.406 124.897 169.075 124.722 168.798C124.548 168.517 124.309 168.302 124.007 168.153C123.704 167.999 123.361 167.923 122.977 167.923C122.577 167.923 122.227 168.004 121.929 168.165C121.631 168.327 121.401 168.56 121.239 168.862C121.077 169.165 120.996 169.525 120.996 169.942H118.369C118.369 169.086 118.563 168.342 118.95 167.712C119.338 167.081 119.882 166.593 120.58 166.248C121.279 165.903 122.085 165.73 122.997 165.73C123.934 165.73 124.75 165.896 125.445 166.229C126.144 166.557 126.687 167.013 127.075 167.597C127.463 168.18 127.656 168.849 127.656 169.604C127.656 170.098 127.558 170.586 127.362 171.067C127.171 171.549 126.828 172.084 126.333 172.672C125.839 173.256 125.142 173.957 124.243 174.775L122.332 176.648V176.737H127.829V179H118.497ZM134.571 165.73C135.244 165.73 135.892 165.843 136.514 166.069C137.141 166.295 137.699 166.655 138.189 167.149C138.683 167.643 139.073 168.3 139.359 169.118C139.648 169.932 139.795 170.931 139.8 172.116C139.8 173.228 139.674 174.221 139.423 175.094C139.175 175.964 138.82 176.703 138.355 177.312C137.891 177.922 137.33 178.386 136.674 178.706C136.018 179.021 135.285 179.179 134.475 179.179C133.602 179.179 132.83 179.011 132.161 178.674C131.492 178.333 130.953 177.871 130.544 177.287C130.139 176.699 129.894 176.038 129.809 175.305H132.538C132.645 175.783 132.869 176.153 133.21 176.418C133.55 176.678 133.972 176.808 134.475 176.808C135.327 176.808 135.975 176.437 136.418 175.695C136.862 174.95 137.085 173.929 137.089 172.634H137C136.804 173.017 136.54 173.347 136.207 173.624C135.875 173.897 135.494 174.108 135.063 174.257C134.637 174.406 134.183 174.481 133.702 174.481C132.93 174.481 132.242 174.3 131.637 173.938C131.032 173.575 130.555 173.077 130.205 172.442C129.856 171.807 129.681 171.082 129.681 170.268C129.677 169.391 129.879 168.609 130.288 167.923C130.697 167.237 131.268 166.7 132.001 166.312C132.739 165.92 133.595 165.726 134.571 165.73ZM134.59 167.903C134.16 167.903 133.776 168.006 133.44 168.21C133.107 168.415 132.843 168.69 132.647 169.035C132.455 169.38 132.362 169.766 132.366 170.192C132.366 170.622 132.46 171.01 132.647 171.355C132.839 171.696 133.099 171.969 133.427 172.173C133.759 172.374 134.138 172.474 134.565 172.474C134.884 172.474 135.18 172.414 135.453 172.295C135.726 172.175 135.962 172.011 136.163 171.803C136.367 171.589 136.527 171.344 136.642 171.067C136.757 170.79 136.815 170.496 136.815 170.185C136.81 169.772 136.712 169.393 136.521 169.048C136.329 168.702 136.065 168.425 135.728 168.217C135.391 168.008 135.012 167.903 134.59 167.903ZM144.175 177.21L144.105 177.913C144.049 178.476 143.943 179.036 143.785 179.594C143.632 180.157 143.47 180.666 143.299 181.122C143.133 181.578 142.999 181.936 142.897 182.196H141.132C141.196 181.945 141.284 181.593 141.395 181.141C141.505 180.694 141.61 180.191 141.708 179.633C141.806 179.075 141.868 178.506 141.893 177.926L141.925 177.21H144.175ZM150.7 165.909V179H147.932V168.536H147.855L144.857 170.415V167.961L148.098 165.909H150.7ZM159.506 165.909V179H156.739V168.536H156.662L153.664 170.415V167.961L156.905 165.909H159.506ZM167.354 165.73C168.028 165.73 168.675 165.843 169.297 166.069C169.924 166.295 170.482 166.655 170.972 167.149C171.466 167.643 171.856 168.3 172.142 169.118C172.432 169.932 172.579 170.931 172.583 172.116C172.583 173.228 172.457 174.221 172.206 175.094C171.959 175.964 171.603 176.703 171.138 177.312C170.674 177.922 170.113 178.386 169.457 178.706C168.801 179.021 168.068 179.179 167.258 179.179C166.385 179.179 165.613 179.011 164.944 178.674C164.275 178.333 163.736 177.871 163.327 177.287C162.922 176.699 162.677 176.038 162.592 175.305H165.322C165.428 175.783 165.652 176.153 165.993 176.418C166.334 176.678 166.756 176.808 167.258 176.808C168.111 176.808 168.758 176.437 169.202 175.695C169.645 174.95 169.868 173.929 169.873 172.634H169.783C169.587 173.017 169.323 173.347 168.991 173.624C168.658 173.897 168.277 174.108 167.846 174.257C167.42 174.406 166.966 174.481 166.485 174.481C165.714 174.481 165.025 174.3 164.42 173.938C163.815 173.575 163.338 173.077 162.988 172.442C162.639 171.807 162.464 171.082 162.464 170.268C162.46 169.391 162.662 168.609 163.072 167.923C163.481 167.237 164.052 166.7 164.785 166.312C165.522 165.92 166.378 165.726 167.354 165.73ZM167.373 167.903C166.943 167.903 166.559 168.006 166.223 168.21C165.89 168.415 165.626 168.69 165.43 169.035C165.238 169.38 165.145 169.766 165.149 170.192C165.149 170.622 165.243 171.01 165.43 171.355C165.622 171.696 165.882 171.969 166.21 172.173C166.542 172.374 166.922 172.474 167.348 172.474C167.667 172.474 167.964 172.414 168.236 172.295C168.509 172.175 168.746 172.011 168.946 171.803C169.15 171.589 169.31 171.344 169.425 171.067C169.54 170.79 169.598 170.496 169.598 170.185C169.594 169.772 169.496 169.393 169.304 169.048C169.112 168.702 168.848 168.425 168.511 168.217C168.175 168.008 167.795 167.903 167.373 167.903ZM175.59 179.166C175.169 179.166 174.806 179.017 174.504 178.719C174.205 178.416 174.056 178.054 174.056 177.632C174.056 177.214 174.205 176.857 174.504 176.558C174.806 176.26 175.169 176.111 175.59 176.111C175.999 176.111 176.357 176.26 176.664 176.558C176.971 176.857 177.124 177.214 177.124 177.632C177.124 177.913 177.052 178.171 176.907 178.406C176.767 178.636 176.581 178.821 176.351 178.962C176.121 179.098 175.867 179.166 175.59 179.166ZM184.01 179.179C183.107 179.179 182.301 179.013 181.594 178.68C180.891 178.348 180.333 177.89 179.919 177.306C179.506 176.722 179.291 176.053 179.274 175.299H181.958C181.988 175.806 182.201 176.217 182.598 176.533C182.994 176.848 183.465 177.006 184.01 177.006C184.445 177.006 184.828 176.91 185.161 176.718C185.498 176.522 185.76 176.251 185.947 175.906C186.139 175.557 186.235 175.156 186.235 174.705C186.235 174.244 186.137 173.839 185.941 173.49C185.749 173.141 185.483 172.868 185.142 172.672C184.801 172.476 184.411 172.376 183.972 172.371C183.588 172.371 183.216 172.45 182.853 172.608C182.495 172.766 182.216 172.981 182.016 173.254L179.555 172.812L180.175 165.909H188.178V168.172H182.457L182.118 171.451H182.195C182.425 171.127 182.772 170.859 183.237 170.646C183.701 170.433 184.221 170.326 184.797 170.326C185.585 170.326 186.288 170.511 186.906 170.882C187.524 171.253 188.012 171.762 188.37 172.41C188.728 173.053 188.904 173.795 188.9 174.634C188.904 175.516 188.7 176.3 188.287 176.987C187.877 177.668 187.304 178.205 186.567 178.597C185.834 178.985 184.982 179.179 184.01 179.179ZM195.612 179.179C194.708 179.179 193.903 179.013 193.196 178.68C192.493 178.348 191.934 177.89 191.521 177.306C191.108 176.722 190.892 176.053 190.875 175.299H193.56C193.59 175.806 193.803 176.217 194.199 176.533C194.596 176.848 195.066 177.006 195.612 177.006C196.047 177.006 196.43 176.91 196.762 176.718C197.099 176.522 197.361 176.251 197.549 175.906C197.74 175.557 197.836 175.156 197.836 174.705C197.836 174.244 197.738 173.839 197.542 173.49C197.35 173.141 197.084 172.868 196.743 172.672C196.402 172.476 196.012 172.376 195.574 172.371C195.19 172.371 194.817 172.45 194.455 172.608C194.097 172.766 193.818 172.981 193.618 173.254L191.157 172.812L191.777 165.909H199.779V168.172H194.059L193.72 171.451H193.797C194.027 171.127 194.374 170.859 194.838 170.646C195.303 170.433 195.823 170.326 196.398 170.326C197.186 170.326 197.89 170.511 198.507 170.882C199.125 171.253 199.613 171.762 199.971 172.41C200.329 173.053 200.506 173.795 200.502 174.634C200.506 175.516 200.301 176.3 199.888 176.987C199.479 177.668 198.906 178.205 198.169 178.597C197.436 178.985 196.583 179.179 195.612 179.179Z" fill="#343A40"/>
<path d="M251.63 67.7273V75H250.966V67.7273H251.63ZM259.228 67.7273V75H258.581L254.284 68.9098H254.228V75H253.564V67.7273H254.206L258.517 73.8246H258.574V67.7273H259.228ZM266.857 70H266.19C266.14 69.7514 266.05 69.5218 265.92 69.3111C265.792 69.098 265.631 68.9122 265.437 68.7536C265.243 68.5949 265.022 68.4718 264.776 68.3842C264.53 68.2966 264.264 68.2528 263.977 68.2528C263.518 68.2528 263.099 68.3724 262.72 68.6115C262.344 68.8506 262.042 69.2022 261.815 69.6662C261.59 70.1278 261.477 70.6937 261.477 71.3636C261.477 72.0384 261.59 72.6065 261.815 73.0682C262.042 73.5298 262.344 73.8802 262.72 74.1193C263.099 74.3561 263.518 74.4744 263.977 74.4744C264.264 74.4744 264.53 74.4306 264.776 74.343C265.022 74.2554 265.243 74.1335 265.437 73.9773C265.631 73.8187 265.792 73.6328 265.92 73.4197C266.05 73.2067 266.14 72.9759 266.19 72.7273H266.857C266.798 73.0611 266.687 73.3724 266.523 73.6612C266.362 73.9477 266.156 74.1986 265.906 74.4141C265.657 74.6295 265.371 74.7976 265.046 74.9183C264.722 75.0391 264.366 75.0994 263.977 75.0994C263.366 75.0994 262.824 74.9467 262.351 74.6413C261.877 74.3336 261.506 73.9003 261.236 73.3416C260.968 72.7829 260.835 72.1236 260.835 71.3636C260.835 70.6037 260.968 69.9444 261.236 69.3857C261.506 68.8269 261.877 68.3949 262.351 68.0895C262.824 67.7817 263.366 67.6278 263.977 67.6278C264.366 67.6278 264.722 67.6882 265.046 67.8089C265.371 67.9273 265.657 68.0954 265.906 68.3132C266.156 68.5286 266.362 68.7796 266.523 69.0661C266.687 69.3525 266.798 69.6638 266.857 70ZM274.379 71.3636C274.379 72.1212 274.244 72.7805 273.975 73.3416C273.705 73.9003 273.333 74.3336 272.86 74.6413C272.388 74.9467 271.846 75.0994 271.233 75.0994C270.62 75.0994 270.077 74.9467 269.603 74.6413C269.132 74.3336 268.762 73.9003 268.492 73.3416C268.224 72.7805 268.09 72.1212 268.09 71.3636C268.09 70.6061 268.224 69.9479 268.492 69.3892C268.762 68.8281 269.133 68.3949 269.607 68.0895C270.08 67.7817 270.622 67.6278 271.233 67.6278C271.846 67.6278 272.388 67.7817 272.86 68.0895C273.333 68.3949 273.705 68.8281 273.975 69.3892C274.244 69.9479 274.379 70.6061 274.379 71.3636ZM273.733 71.3636C273.733 70.7126 273.624 70.1551 273.406 69.6911C273.189 69.2247 272.892 68.8684 272.515 68.6222C272.139 68.3759 271.711 68.2528 271.233 68.2528C270.757 68.2528 270.331 68.3759 269.955 68.6222C269.578 68.8684 269.28 69.2235 269.06 69.6875C268.842 70.1515 268.733 70.7102 268.733 71.3636C268.733 72.0147 268.842 72.5722 269.06 73.0362C269.278 73.5002 269.575 73.8565 269.951 74.1051C270.328 74.3513 270.755 74.4744 271.233 74.4744C271.711 74.4744 272.139 74.3513 272.515 74.1051C272.894 73.8589 273.192 73.5038 273.41 73.0398C273.628 72.5734 273.735 72.0147 273.733 71.3636ZM275.985 67.7273H276.752L279.391 74.0625H279.455L282.093 67.7273H282.86V75H282.235V69.13H282.179L279.725 75H279.121L276.667 69.13H276.61V75H275.985V67.7273ZM285.458 67.7273V75H284.794V67.7273H285.458ZM293.056 67.7273V75H292.409L288.113 68.9098H288.056V75H287.392V67.7273H288.034L292.346 73.8246H292.402V67.7273H293.056ZM300.021 70C299.955 69.7585 299.858 69.5324 299.73 69.3217C299.602 69.1087 299.444 68.9228 299.254 68.7642C299.067 68.6032 298.851 68.4777 298.604 68.3878C298.361 68.2978 298.088 68.2528 297.788 68.2528C297.314 68.2528 296.89 68.3759 296.516 68.6222C296.142 68.8684 295.846 69.2235 295.629 69.6875C295.413 70.1515 295.305 70.7102 295.305 71.3636C295.305 72.0147 295.414 72.5722 295.632 73.0362C295.85 73.5002 296.148 73.8565 296.527 74.1051C296.908 74.3513 297.344 74.4744 297.834 74.4744C298.281 74.4744 298.677 74.375 299.02 74.1761C299.363 73.9773 299.631 73.6932 299.822 73.3239C300.017 72.9545 300.111 72.5154 300.107 72.0064L300.32 72.0739H297.99V71.4773H300.753V72.0739C300.753 72.6941 300.627 73.2304 300.376 73.6825C300.125 74.1347 299.781 74.4839 299.343 74.7301C298.905 74.9763 298.402 75.0994 297.834 75.0994C297.199 75.0994 296.644 74.9467 296.168 74.6413C295.692 74.3336 295.322 73.9003 295.057 73.3416C294.794 72.7805 294.663 72.1212 294.663 71.3636C294.663 70.7931 294.738 70.2782 294.89 69.8189C295.041 69.3596 295.256 68.9666 295.533 68.6399C295.812 68.3132 296.142 68.0634 296.523 67.8906C296.905 67.7154 297.326 67.6278 297.788 67.6278C298.185 67.6278 298.549 67.6906 298.878 67.8161C299.209 67.9415 299.5 68.1143 299.751 68.3345C300.005 68.5523 300.212 68.8045 300.373 69.0909C300.536 69.375 300.646 69.678 300.703 70H300.021Z" fill="#2D995F"/>
<path d="M262.087 86.9091V100H259.697L254.001 91.7607H253.906V100H251.138V86.9091H253.567L259.217 95.142H259.332V86.9091H262.087ZM264.815 100L270.242 89.2614V89.1719H263.92V86.9091H273.106V89.2038L267.672 100H264.815ZM279.608 100.179C278.705 100.179 277.899 100.013 277.192 99.6804C276.489 99.348 275.93 98.8899 275.517 98.3061C275.104 97.7223 274.888 97.0533 274.871 96.299H277.556C277.586 96.8061 277.799 97.2173 278.195 97.5327C278.592 97.848 279.062 98.0057 279.608 98.0057C280.043 98.0057 280.426 97.9098 280.759 97.718C281.095 97.522 281.357 97.2514 281.545 96.9062C281.737 96.5568 281.832 96.1562 281.832 95.7045C281.832 95.2443 281.734 94.8395 281.538 94.4901C281.347 94.1406 281.08 93.8679 280.739 93.6719C280.398 93.4759 280.009 93.3757 279.57 93.3714C279.186 93.3714 278.813 93.4503 278.451 93.608C278.093 93.7656 277.814 93.9808 277.614 94.2536L275.153 93.8125L275.773 86.9091H283.776V89.1719H278.055L277.716 92.451H277.793C278.023 92.1271 278.37 91.8587 278.835 91.6456C279.299 91.4325 279.819 91.326 280.394 91.326C281.183 91.326 281.886 91.5114 282.504 91.8821C283.121 92.2528 283.609 92.7621 283.967 93.4098C284.325 94.0533 284.502 94.7947 284.498 95.6342C284.502 96.5163 284.298 97.3004 283.884 97.9865C283.475 98.6683 282.902 99.2053 282.165 99.5973C281.432 99.9851 280.58 100.179 279.608 100.179ZM291.561 100.288C290.462 100.283 289.516 100.013 288.723 99.4759C287.935 98.9389 287.327 98.1612 286.901 97.1428C286.479 96.1243 286.271 94.8991 286.275 93.4673C286.275 92.0398 286.486 90.8232 286.908 89.8175C287.334 88.8118 287.941 88.0469 288.729 87.5227C289.522 86.9943 290.466 86.7301 291.561 86.7301C292.656 86.7301 293.598 86.9943 294.386 87.5227C295.179 88.0511 295.788 88.8182 296.214 89.8239C296.641 90.8253 296.852 92.0398 296.847 93.4673C296.847 94.9034 296.634 96.1307 296.208 97.1491C295.786 98.1676 295.181 98.9453 294.393 99.4822C293.604 100.019 292.661 100.288 291.561 100.288ZM291.561 97.9929C292.311 97.9929 292.91 97.6158 293.357 96.8615C293.805 96.1072 294.026 94.9759 294.022 93.4673C294.022 92.4744 293.92 91.6477 293.715 90.9872C293.515 90.3267 293.229 89.8303 292.859 89.4979C292.492 89.1655 292.06 88.9993 291.561 88.9993C290.815 88.9993 290.219 89.3722 289.771 90.1179C289.324 90.8636 289.098 91.9801 289.094 93.4673C289.094 94.473 289.194 95.3125 289.394 95.9858C289.599 96.6548 289.886 97.1577 290.257 97.4943C290.628 97.8267 291.062 97.9929 291.561 97.9929ZM301.279 98.2102L301.208 98.9134C301.153 99.4759 301.046 100.036 300.889 100.594C300.735 101.157 300.573 101.666 300.403 102.122C300.237 102.578 300.102 102.936 300 103.196H298.236C298.3 102.945 298.387 102.593 298.498 102.141C298.609 101.694 298.713 101.191 298.811 100.633C298.909 100.075 298.971 99.5057 298.997 98.9261L299.029 98.2102H301.279ZM308.16 100.179C307.205 100.179 306.355 100.015 305.609 99.6868C304.868 99.3544 304.282 98.8984 303.851 98.3189C303.425 97.7351 303.206 97.0618 303.193 96.299H305.98C305.997 96.6186 306.101 96.8999 306.293 97.1428C306.489 97.3814 306.749 97.5668 307.073 97.6989C307.397 97.831 307.761 97.897 308.166 97.897C308.588 97.897 308.961 97.8224 309.285 97.6733C309.608 97.5241 309.862 97.3175 310.045 97.0533C310.229 96.7891 310.32 96.4844 310.32 96.1392C310.32 95.7898 310.222 95.4808 310.026 95.2124C309.834 94.9396 309.557 94.7266 309.195 94.5732C308.837 94.4197 308.411 94.343 307.917 94.343H306.696V92.3104H307.917C308.334 92.3104 308.703 92.2379 309.023 92.093C309.346 91.9482 309.598 91.7479 309.777 91.4922C309.956 91.2322 310.045 90.9297 310.045 90.5845C310.045 90.2564 309.966 89.9688 309.809 89.7216C309.655 89.4702 309.438 89.2741 309.157 89.1335C308.88 88.9929 308.556 88.9226 308.185 88.9226C307.81 88.9226 307.467 88.9908 307.156 89.1271C306.845 89.2592 306.596 89.4489 306.408 89.696C306.221 89.9432 306.121 90.233 306.108 90.5653H303.455C303.468 89.8111 303.683 89.1463 304.101 88.571C304.518 87.9957 305.081 87.5462 305.788 87.2223C306.5 86.8942 307.303 86.7301 308.198 86.7301C309.101 86.7301 309.892 86.8942 310.569 87.2223C311.247 87.5504 311.773 87.9936 312.148 88.5518C312.528 89.1058 312.715 89.728 312.711 90.4183C312.715 91.1513 312.487 91.7628 312.027 92.2528C311.571 92.7429 310.976 93.054 310.243 93.1861V93.2884C311.206 93.4119 311.939 93.7464 312.442 94.2919C312.949 94.8331 313.201 95.5107 313.197 96.3246C313.201 97.0703 312.986 97.733 312.551 98.3125C312.121 98.892 311.526 99.348 310.768 99.6804C310.009 100.013 309.14 100.179 308.16 100.179ZM315.186 100V98.0057L319.846 93.6911C320.242 93.3075 320.575 92.9624 320.843 92.6555C321.116 92.3487 321.322 92.0483 321.463 91.7543C321.604 91.456 321.674 91.1342 321.674 90.7891C321.674 90.4055 321.587 90.0753 321.412 89.7983C321.237 89.517 320.999 89.3018 320.696 89.1527C320.393 88.9993 320.05 88.9226 319.667 88.9226C319.266 88.9226 318.917 89.0036 318.619 89.1655C318.32 89.3274 318.09 89.5597 317.928 89.8622C317.766 90.1648 317.685 90.5249 317.685 90.9425H315.058C315.058 90.0859 315.252 89.3423 315.64 88.7116C316.028 88.081 316.571 87.593 317.27 87.2479C317.969 86.9027 318.774 86.7301 319.686 86.7301C320.624 86.7301 321.44 86.8963 322.134 87.2287C322.833 87.5568 323.376 88.0128 323.764 88.5966C324.152 89.1804 324.346 89.8494 324.346 90.6037C324.346 91.098 324.248 91.5859 324.052 92.0675C323.86 92.549 323.517 93.0838 323.023 93.6719C322.528 94.2557 321.832 94.9567 320.933 95.7749L319.021 97.6477V97.7372H324.518V100H315.186ZM331.657 100.288C330.557 100.283 329.611 100.013 328.819 99.4759C328.03 98.9389 327.423 98.1612 326.997 97.1428C326.575 96.1243 326.366 94.8991 326.371 93.4673C326.371 92.0398 326.581 90.8232 327.003 89.8175C327.43 88.8118 328.037 88.0469 328.825 87.5227C329.618 86.9943 330.562 86.7301 331.657 86.7301C332.752 86.7301 333.694 86.9943 334.482 87.5227C335.275 88.0511 335.884 88.8182 336.31 89.8239C336.736 90.8253 336.947 92.0398 336.943 93.4673C336.943 94.9034 336.73 96.1307 336.304 97.1491C335.882 98.1676 335.277 98.9453 334.488 99.4822C333.7 100.019 332.756 100.288 331.657 100.288ZM331.657 97.9929C332.407 97.9929 333.006 97.6158 333.453 96.8615C333.9 96.1072 334.122 94.9759 334.118 93.4673C334.118 92.4744 334.015 91.6477 333.811 90.9872C333.611 90.3267 333.325 89.8303 332.954 89.4979C332.588 89.1655 332.155 88.9993 331.657 88.9993C330.911 88.9993 330.314 89.3722 329.867 90.1179C329.42 90.8636 329.194 91.9801 329.189 93.4673C329.189 94.473 329.29 95.3125 329.49 95.9858C329.694 96.6548 329.982 97.1577 330.353 97.4943C330.724 97.8267 331.158 97.9929 331.657 97.9929ZM341.374 98.2102L341.304 98.9134C341.249 99.4759 341.142 100.036 340.984 100.594C340.831 101.157 340.669 101.666 340.499 102.122C340.332 102.578 340.198 102.936 340.096 103.196H338.332C338.396 102.945 338.483 102.593 338.594 102.141C338.705 101.694 338.809 101.191 338.907 100.633C339.005 100.075 339.067 99.5057 339.092 98.9261L339.124 98.2102H341.374ZM348.444 100.288C347.344 100.283 346.398 100.013 345.606 99.4759C344.817 98.9389 344.21 98.1612 343.784 97.1428C343.362 96.1243 343.153 94.8991 343.158 93.4673C343.158 92.0398 343.369 90.8232 343.79 89.8175C344.217 88.8118 344.824 88.0469 345.612 87.5227C346.405 86.9943 347.349 86.7301 348.444 86.7301C349.539 86.7301 350.481 86.9943 351.269 87.5227C352.062 88.0511 352.671 88.8182 353.097 89.8239C353.523 90.8253 353.734 92.0398 353.73 93.4673C353.73 94.9034 353.517 96.1307 353.091 97.1491C352.669 98.1676 352.064 98.9453 351.276 99.4822C350.487 100.019 349.543 100.288 348.444 100.288ZM348.444 97.9929C349.194 97.9929 349.793 97.6158 350.24 96.8615C350.688 96.1072 350.909 94.9759 350.905 93.4673C350.905 92.4744 350.803 91.6477 350.598 90.9872C350.398 90.3267 350.112 89.8303 349.741 89.4979C349.375 89.1655 348.942 88.9993 348.444 88.9993C347.698 88.9993 347.102 89.3722 346.654 90.1179C346.207 90.8636 345.981 91.9801 345.977 93.4673C345.977 94.473 346.077 95.3125 346.277 95.9858C346.482 96.6548 346.769 97.1577 347.14 97.4943C347.511 97.8267 347.945 97.9929 348.444 97.9929ZM361.399 86.9091V100H358.631V89.5362H358.555L355.557 91.4155V88.9609L358.797 86.9091H361.399ZM369.643 100.288C368.544 100.283 367.598 100.013 366.805 99.4759C366.017 98.9389 365.409 98.1612 364.983 97.1428C364.561 96.1243 364.353 94.8991 364.357 93.4673C364.357 92.0398 364.568 90.8232 364.99 89.8175C365.416 88.8118 366.023 88.0469 366.811 87.5227C367.604 86.9943 368.548 86.7301 369.643 86.7301C370.738 86.7301 371.68 86.9943 372.468 87.5227C373.261 88.0511 373.87 88.8182 374.297 89.8239C374.723 90.8253 374.934 92.0398 374.929 93.4673C374.929 94.9034 374.716 96.1307 374.29 97.1491C373.868 98.1676 373.263 98.9453 372.475 99.4822C371.686 100.019 370.743 100.288 369.643 100.288ZM369.643 97.9929C370.393 97.9929 370.992 97.6158 371.439 96.8615C371.887 96.1072 372.108 94.9759 372.104 93.4673C372.104 92.4744 372.002 91.6477 371.797 90.9872C371.597 90.3267 371.311 89.8303 370.941 89.4979C370.574 89.1655 370.142 88.9993 369.643 88.9993C368.897 88.9993 368.301 89.3722 367.853 90.1179C367.406 90.8636 367.18 91.9801 367.176 93.4673C367.176 94.473 367.276 95.3125 367.476 95.9858C367.681 96.6548 367.968 97.1577 368.339 97.4943C368.71 97.8267 369.145 97.9929 369.643 97.9929ZM377.993 100.166C377.571 100.166 377.209 100.017 376.906 99.7188C376.608 99.4162 376.459 99.054 376.459 98.6321C376.459 98.2145 376.608 97.8565 376.906 97.5582C377.209 97.2599 377.571 97.1108 377.993 97.1108C378.402 97.1108 378.76 97.2599 379.067 97.5582C379.373 97.8565 379.527 98.2145 379.527 98.6321C379.527 98.9134 379.454 99.1712 379.309 99.4055C379.169 99.6357 378.983 99.821 378.753 99.9616C378.523 100.098 378.27 100.166 377.993 100.166ZM386.342 100.288C385.243 100.283 384.297 100.013 383.504 99.4759C382.716 98.9389 382.109 98.1612 381.683 97.1428C381.261 96.1243 381.052 94.8991 381.056 93.4673C381.056 92.0398 381.267 90.8232 381.689 89.8175C382.115 88.8118 382.722 88.0469 383.511 87.5227C384.303 86.9943 385.247 86.7301 386.342 86.7301C387.438 86.7301 388.379 86.9943 389.168 87.5227C389.96 88.0511 390.57 88.8182 390.996 89.8239C391.422 90.8253 391.633 92.0398 391.629 93.4673C391.629 94.9034 391.415 96.1307 390.989 97.1491C390.567 98.1676 389.962 98.9453 389.174 99.4822C388.386 100.019 387.442 100.288 386.342 100.288ZM386.342 97.9929C387.092 97.9929 387.691 97.6158 388.138 96.8615C388.586 96.1072 388.808 94.9759 388.803 93.4673C388.803 92.4744 388.701 91.6477 388.496 90.9872C388.296 90.3267 388.011 89.8303 387.64 89.4979C387.273 89.1655 386.841 88.9993 386.342 88.9993C385.597 88.9993 385 89.3722 384.553 90.1179C384.105 90.8636 383.879 91.9801 383.875 93.4673C383.875 94.473 383.975 95.3125 384.175 95.9858C384.38 96.6548 384.668 97.1577 385.038 97.4943C385.409 97.8267 385.844 97.9929 386.342 97.9929ZM398.383 100.179C397.48 100.179 396.675 100.013 395.967 99.6804C395.264 99.348 394.706 98.8899 394.292 98.3061C393.879 97.7223 393.664 97.0533 393.647 96.299H396.331C396.361 96.8061 396.574 97.2173 396.971 97.5327C397.367 97.848 397.838 98.0057 398.383 98.0057C398.818 98.0057 399.202 97.9098 399.534 97.718C399.871 97.522 400.133 97.2514 400.32 96.9062C400.512 96.5568 400.608 96.1562 400.608 95.7045C400.608 95.2443 400.51 94.8395 400.314 94.4901C400.122 94.1406 399.856 93.8679 399.515 93.6719C399.174 93.4759 398.784 93.3757 398.345 93.3714C397.961 93.3714 397.589 93.4503 397.226 93.608C396.868 93.7656 396.589 93.9808 396.389 94.2536L393.928 93.8125L394.548 86.9091H402.551V89.1719H396.83L396.491 92.451H396.568C396.798 92.1271 397.145 91.8587 397.61 91.6456C398.074 91.4325 398.594 91.326 399.17 91.326C399.958 91.326 400.661 91.5114 401.279 91.8821C401.897 92.2528 402.385 92.7621 402.743 93.4098C403.101 94.0533 403.278 94.7947 403.273 95.6342C403.278 96.5163 403.073 97.3004 402.66 97.9865C402.251 98.6683 401.677 99.2053 400.94 99.5973C400.207 99.9851 399.355 100.179 398.383 100.179Z" fill="#343A40"/>
<path d="M256.928 150.364C256.928 151.121 256.793 151.781 256.523 152.342C256.254 152.9 255.882 153.334 255.408 153.641C254.937 153.947 254.395 154.099 253.782 154.099C253.169 154.099 252.625 153.947 252.152 153.641C251.681 153.334 251.31 152.9 251.04 152.342C250.773 151.781 250.639 151.121 250.639 150.364C250.639 149.606 250.773 148.948 251.04 148.389C251.31 147.828 251.682 147.395 252.156 147.089C252.629 146.782 253.171 146.628 253.782 146.628C254.395 146.628 254.937 146.782 255.408 147.089C255.882 147.395 256.254 147.828 256.523 148.389C256.793 148.948 256.928 149.606 256.928 150.364ZM256.282 150.364C256.282 149.713 256.173 149.155 255.955 148.691C255.737 148.225 255.44 147.868 255.064 147.622C254.688 147.376 254.26 147.253 253.782 147.253C253.306 147.253 252.88 147.376 252.504 147.622C252.127 147.868 251.829 148.223 251.609 148.688C251.391 149.152 251.282 149.71 251.282 150.364C251.282 151.015 251.391 151.572 251.609 152.036C251.826 152.5 252.124 152.857 252.5 153.105C252.876 153.351 253.304 153.474 253.782 153.474C254.26 153.474 254.688 153.351 255.064 153.105C255.443 152.859 255.741 152.504 255.959 152.04C256.177 151.573 256.284 151.015 256.282 150.364ZM263.382 146.727H264.046V151.543C264.046 152.037 263.93 152.48 263.698 152.871C263.466 153.259 263.142 153.566 262.728 153.79C262.316 154.013 261.837 154.124 261.29 154.124C260.745 154.124 260.266 154.012 259.852 153.787C259.437 153.562 259.114 153.255 258.882 152.867C258.65 152.479 258.534 152.037 258.534 151.543V146.727H259.198V151.496C259.198 151.882 259.285 152.227 259.458 152.53C259.63 152.83 259.873 153.067 260.186 153.24C260.5 153.413 260.869 153.499 261.29 153.499C261.711 153.499 262.079 153.413 262.394 153.24C262.709 153.067 262.952 152.83 263.122 152.53C263.295 152.227 263.382 151.882 263.382 151.496V146.727ZM265.535 147.324V146.727H270.809V147.324H268.504V154H267.84V147.324H265.535ZM277.033 149C276.967 148.759 276.87 148.532 276.742 148.322C276.614 148.109 276.455 147.923 276.266 147.764C276.079 147.603 275.862 147.478 275.616 147.388C275.372 147.298 275.1 147.253 274.799 147.253C274.326 147.253 273.902 147.376 273.528 147.622C273.154 147.868 272.858 148.223 272.64 148.688C272.425 149.152 272.317 149.71 272.317 150.364C272.317 151.015 272.426 151.572 272.644 152.036C272.862 152.5 273.16 152.857 273.539 153.105C273.92 153.351 274.355 153.474 274.846 153.474C275.293 153.474 275.688 153.375 276.032 153.176C276.375 152.977 276.642 152.693 276.834 152.324C277.028 151.955 277.123 151.515 277.118 151.006L277.331 151.074H275.002V150.477H277.765V151.074C277.765 151.694 277.639 152.23 277.388 152.683C277.137 153.135 276.793 153.484 276.355 153.73C275.917 153.976 275.414 154.099 274.846 154.099C274.211 154.099 273.656 153.947 273.18 153.641C272.704 153.334 272.334 152.9 272.069 152.342C271.806 151.781 271.674 151.121 271.674 150.364C271.674 149.793 271.75 149.278 271.902 148.819C272.053 148.36 272.267 147.967 272.544 147.64C272.824 147.313 273.154 147.063 273.535 146.891C273.916 146.715 274.338 146.628 274.799 146.628C275.197 146.628 275.56 146.691 275.89 146.816C276.221 146.942 276.512 147.114 276.763 147.335C277.016 147.552 277.224 147.804 277.385 148.091C277.548 148.375 277.658 148.678 277.715 149H277.033ZM285.376 150.364C285.376 151.121 285.241 151.781 284.971 152.342C284.701 152.9 284.329 153.334 283.856 153.641C283.385 153.947 282.842 154.099 282.229 154.099C281.616 154.099 281.073 153.947 280.599 153.641C280.128 153.334 279.758 152.9 279.488 152.342C279.22 151.781 279.086 151.121 279.086 150.364C279.086 149.606 279.22 148.948 279.488 148.389C279.758 147.828 280.129 147.395 280.603 147.089C281.076 146.782 281.618 146.628 282.229 146.628C282.842 146.628 283.385 146.782 283.856 147.089C284.329 147.395 284.701 147.828 284.971 148.389C285.241 148.948 285.376 149.606 285.376 150.364ZM284.729 150.364C284.729 149.713 284.62 149.155 284.403 148.691C284.185 148.225 283.888 147.868 283.511 147.622C283.135 147.376 282.707 147.253 282.229 147.253C281.753 147.253 281.327 147.376 280.951 147.622C280.574 147.868 280.276 148.223 280.056 148.688C279.838 149.152 279.729 149.71 279.729 150.364C279.729 151.015 279.838 151.572 280.056 152.036C280.274 152.5 280.571 152.857 280.947 153.105C281.324 153.351 281.751 153.474 282.229 153.474C282.707 153.474 283.135 153.351 283.511 153.105C283.89 152.859 284.188 152.504 284.406 152.04C284.624 151.573 284.732 151.015 284.729 150.364ZM287.646 146.727V154H286.982V146.727H287.646ZM295.243 146.727V154H294.597L290.3 147.91H290.243V154H289.579V146.727H290.222L294.533 152.825H294.59V146.727H295.243ZM302.209 149C302.143 148.759 302.045 148.532 301.918 148.322C301.79 148.109 301.631 147.923 301.442 147.764C301.255 147.603 301.038 147.478 300.792 147.388C300.548 147.298 300.276 147.253 299.975 147.253C299.502 147.253 299.078 147.376 298.704 147.622C298.33 147.868 298.034 148.223 297.816 148.688C297.601 149.152 297.493 149.71 297.493 150.364C297.493 151.015 297.602 151.572 297.82 152.036C298.037 152.5 298.336 152.857 298.714 153.105C299.096 153.351 299.531 153.474 300.021 153.474C300.469 153.474 300.864 153.375 301.207 153.176C301.551 152.977 301.818 152.693 302.01 152.324C302.204 151.955 302.299 151.515 302.294 151.006L302.507 151.074H300.178V150.477H302.94V151.074C302.94 151.694 302.815 152.23 302.564 152.683C302.313 153.135 301.969 153.484 301.531 153.73C301.093 153.976 300.589 154.099 300.021 154.099C299.387 154.099 298.832 153.947 298.356 153.641C297.88 153.334 297.509 152.9 297.244 152.342C296.982 151.781 296.85 151.121 296.85 150.364C296.85 149.793 296.926 149.278 297.077 148.819C297.229 148.36 297.443 147.967 297.72 147.64C298 147.313 298.33 147.063 298.711 146.891C299.092 146.715 299.513 146.628 299.975 146.628C300.373 146.628 300.736 146.691 301.065 146.816C301.397 146.942 301.688 147.114 301.939 147.335C302.192 147.552 302.399 147.804 302.56 148.091C302.724 148.375 302.834 148.678 302.891 149H302.209Z" fill="#FF1708"/>
<path d="M262.087 165.909V179H259.697L254.001 170.761H253.906V179H251.138V165.909H253.567L259.217 174.142H259.332V165.909H262.087ZM269.136 179.179C268.182 179.179 267.331 179.015 266.586 178.687C265.844 178.354 265.258 177.898 264.828 177.319C264.402 176.735 264.182 176.062 264.17 175.299H266.956C266.974 175.619 267.078 175.9 267.27 176.143C267.466 176.381 267.726 176.567 268.05 176.699C268.373 176.831 268.738 176.897 269.143 176.897C269.564 176.897 269.937 176.822 270.261 176.673C270.585 176.524 270.839 176.317 271.022 176.053C271.205 175.789 271.297 175.484 271.297 175.139C271.297 174.79 271.199 174.481 271.003 174.212C270.811 173.94 270.534 173.727 270.172 173.573C269.814 173.42 269.388 173.343 268.893 173.343H267.672V171.31H268.893C269.311 171.31 269.68 171.238 269.999 171.093C270.323 170.948 270.574 170.748 270.753 170.492C270.932 170.232 271.022 169.93 271.022 169.585C271.022 169.256 270.943 168.969 270.785 168.722C270.632 168.47 270.415 168.274 270.133 168.134C269.856 167.993 269.532 167.923 269.162 167.923C268.787 167.923 268.444 167.991 268.133 168.127C267.822 168.259 267.572 168.449 267.385 168.696C267.197 168.943 267.097 169.233 267.084 169.565H264.432C264.444 168.811 264.66 168.146 265.077 167.571C265.495 166.996 266.057 166.546 266.765 166.222C267.476 165.894 268.28 165.73 269.175 165.73C270.078 165.73 270.868 165.894 271.546 166.222C272.224 166.55 272.75 166.994 273.125 167.552C273.504 168.106 273.692 168.728 273.687 169.418C273.692 170.151 273.464 170.763 273.003 171.253C272.547 171.743 271.953 172.054 271.22 172.186V172.288C272.183 172.412 272.916 172.746 273.419 173.292C273.926 173.833 274.177 174.511 274.173 175.325C274.177 176.07 273.962 176.733 273.528 177.312C273.097 177.892 272.503 178.348 271.744 178.68C270.986 179.013 270.116 179.179 269.136 179.179ZM281.295 179.288C280.196 179.283 279.25 179.013 278.457 178.476C277.669 177.939 277.062 177.161 276.636 176.143C276.214 175.124 276.005 173.899 276.009 172.467C276.009 171.04 276.22 169.823 276.642 168.817C277.068 167.812 277.675 167.047 278.464 166.523C279.256 165.994 280.2 165.73 281.295 165.73C282.391 165.73 283.332 165.994 284.121 166.523C284.913 167.051 285.523 167.818 285.949 168.824C286.375 169.825 286.586 171.04 286.582 172.467C286.582 173.903 286.369 175.131 285.942 176.149C285.521 177.168 284.915 177.945 284.127 178.482C283.339 179.019 282.395 179.288 281.295 179.288ZM281.295 176.993C282.045 176.993 282.644 176.616 283.092 175.862C283.539 175.107 283.761 173.976 283.756 172.467C283.756 171.474 283.654 170.648 283.45 169.987C283.249 169.327 282.964 168.83 282.593 168.498C282.227 168.165 281.794 167.999 281.295 167.999C280.55 167.999 279.953 168.372 279.506 169.118C279.058 169.864 278.832 170.98 278.828 172.467C278.828 173.473 278.928 174.312 279.129 174.986C279.333 175.655 279.621 176.158 279.991 176.494C280.362 176.827 280.797 176.993 281.295 176.993ZM293.336 179.179C292.433 179.179 291.628 179.013 290.92 178.68C290.217 178.348 289.659 177.89 289.246 177.306C288.832 176.722 288.617 176.053 288.6 175.299H291.285C291.314 175.806 291.528 176.217 291.924 176.533C292.32 176.848 292.791 177.006 293.336 177.006C293.771 177.006 294.155 176.91 294.487 176.718C294.824 176.522 295.086 176.251 295.273 175.906C295.465 175.557 295.561 175.156 295.561 174.705C295.561 174.244 295.463 173.839 295.267 173.49C295.075 173.141 294.809 172.868 294.468 172.672C294.127 172.476 293.737 172.376 293.298 172.371C292.915 172.371 292.542 172.45 292.18 172.608C291.822 172.766 291.542 172.981 291.342 173.254L288.881 172.812L289.501 165.909H297.504V168.172H291.783L291.444 171.451H291.521C291.751 171.127 292.099 170.859 292.563 170.646C293.028 170.433 293.547 170.326 294.123 170.326C294.911 170.326 295.614 170.511 296.232 170.882C296.85 171.253 297.338 171.762 297.696 172.41C298.054 173.053 298.231 173.795 298.226 174.634C298.231 175.516 298.026 176.3 297.613 176.987C297.204 177.668 296.631 178.205 295.893 178.597C295.16 178.985 294.308 179.179 293.336 179.179ZM302.72 177.21L302.65 177.913C302.594 178.476 302.488 179.036 302.33 179.594C302.177 180.157 302.015 180.666 301.844 181.122C301.678 181.578 301.544 181.936 301.442 182.196H299.677C299.741 181.945 299.829 181.593 299.939 181.141C300.05 180.694 300.155 180.191 300.253 179.633C300.351 179.075 300.412 178.506 300.438 177.926L300.47 177.21H302.72ZM309.245 165.909V179H306.477V168.536H306.4L303.402 170.415V167.961L306.643 165.909H309.245ZM317.093 165.73C317.766 165.73 318.414 165.843 319.036 166.069C319.662 166.295 320.22 166.655 320.71 167.149C321.205 167.643 321.595 168.3 321.88 169.118C322.17 169.932 322.317 170.931 322.321 172.116C322.321 173.228 322.195 174.221 321.944 175.094C321.697 175.964 321.341 176.703 320.877 177.312C320.412 177.922 319.852 178.386 319.195 178.706C318.539 179.021 317.806 179.179 316.997 179.179C316.123 179.179 315.352 179.011 314.683 178.674C314.014 178.333 313.475 177.871 313.066 177.287C312.661 176.699 312.416 176.038 312.33 175.305H315.06C315.166 175.783 315.39 176.153 315.731 176.418C316.072 176.678 316.494 176.808 316.997 176.808C317.849 176.808 318.497 176.437 318.94 175.695C319.383 174.95 319.607 173.929 319.611 172.634H319.521C319.325 173.017 319.061 173.347 318.729 173.624C318.396 173.897 318.015 174.108 317.585 174.257C317.159 174.406 316.705 174.481 316.223 174.481C315.452 174.481 314.764 174.3 314.159 173.938C313.553 173.575 313.076 173.077 312.727 172.442C312.377 171.807 312.203 171.082 312.203 170.268C312.198 169.391 312.401 168.609 312.81 167.923C313.219 167.237 313.79 166.7 314.523 166.312C315.26 165.92 316.117 165.726 317.093 165.73ZM317.112 167.903C316.681 167.903 316.298 168.006 315.961 168.21C315.629 168.415 315.365 168.69 315.169 169.035C314.977 169.38 314.883 169.766 314.887 170.192C314.887 170.622 314.981 171.01 315.169 171.355C315.36 171.696 315.62 171.969 315.948 172.173C316.281 172.374 316.66 172.474 317.086 172.474C317.406 172.474 317.702 172.414 317.975 172.295C318.247 172.175 318.484 172.011 318.684 171.803C318.889 171.589 319.048 171.344 319.164 171.067C319.279 170.79 319.336 170.496 319.336 170.185C319.332 169.772 319.234 169.393 319.042 169.048C318.85 168.702 318.586 168.425 318.249 168.217C317.913 168.008 317.534 167.903 317.112 167.903ZM329.372 179.288C328.272 179.283 327.326 179.013 326.534 178.476C325.745 177.939 325.138 177.161 324.712 176.143C324.29 175.124 324.081 173.899 324.085 172.467C324.085 171.04 324.296 169.823 324.718 168.817C325.144 167.812 325.752 167.047 326.54 166.523C327.333 165.994 328.276 165.73 329.372 165.73C330.467 165.73 331.409 165.994 332.197 166.523C332.99 167.051 333.599 167.818 334.025 168.824C334.451 169.825 334.662 171.04 334.658 172.467C334.658 173.903 334.445 175.131 334.019 176.149C333.597 177.168 332.992 177.945 332.203 178.482C331.415 179.019 330.471 179.288 329.372 179.288ZM329.372 176.993C330.122 176.993 330.72 176.616 331.168 175.862C331.615 175.107 331.837 173.976 331.833 172.467C331.833 171.474 331.73 170.648 331.526 169.987C331.325 169.327 331.04 168.83 330.669 168.498C330.303 168.165 329.87 167.999 329.372 167.999C328.626 167.999 328.029 168.372 327.582 169.118C327.134 169.864 326.909 170.98 326.904 172.467C326.904 173.473 327.004 174.312 327.205 174.986C327.409 175.655 327.697 176.158 328.068 176.494C328.438 176.827 328.873 176.993 329.372 176.993ZM339.089 177.21L339.019 177.913C338.963 178.476 338.857 179.036 338.699 179.594C338.546 180.157 338.384 180.666 338.213 181.122C338.047 181.578 337.913 181.936 337.811 182.196H336.047C336.11 181.945 336.198 181.593 336.309 181.141C336.419 180.694 336.524 180.191 336.622 179.633C336.72 179.075 336.782 178.506 336.807 177.926L336.839 177.21H339.089ZM345.909 179.179C344.925 179.179 344.049 179.019 343.282 178.7C342.52 178.376 341.921 177.935 341.486 177.376C341.051 176.818 340.834 176.185 340.834 175.478C340.834 174.933 340.958 174.432 341.205 173.976C341.456 173.516 341.797 173.134 342.228 172.832C342.658 172.525 343.14 172.329 343.672 172.244V172.154C342.973 172.013 342.407 171.675 341.972 171.138C341.537 170.597 341.32 169.968 341.32 169.252C341.32 168.575 341.518 167.972 341.914 167.443C342.311 166.911 342.854 166.493 343.544 166.19C344.239 165.884 345.027 165.73 345.909 165.73C346.792 165.73 347.578 165.884 348.268 166.19C348.963 166.497 349.508 166.917 349.904 167.45C350.301 167.978 350.501 168.579 350.505 169.252C350.501 169.972 350.279 170.601 349.841 171.138C349.402 171.675 348.839 172.013 348.153 172.154V172.244C348.677 172.329 349.152 172.525 349.578 172.832C350.009 173.134 350.35 173.516 350.601 173.976C350.857 174.432 350.987 174.933 350.991 175.478C350.987 176.185 350.767 176.818 350.333 177.376C349.898 177.935 349.297 178.376 348.53 178.7C347.767 179.019 346.894 179.179 345.909 179.179ZM345.909 177.146C346.348 177.146 346.732 177.067 347.06 176.91C347.388 176.748 347.644 176.526 347.827 176.245C348.015 175.96 348.108 175.631 348.108 175.261C348.108 174.881 348.012 174.547 347.821 174.257C347.629 173.963 347.369 173.733 347.041 173.567C346.713 173.396 346.336 173.311 345.909 173.311C345.488 173.311 345.11 173.396 344.778 173.567C344.446 173.733 344.184 173.963 343.992 174.257C343.804 174.547 343.711 174.881 343.711 175.261C343.711 175.631 343.802 175.96 343.985 176.245C344.169 176.526 344.426 176.748 344.759 176.91C345.091 177.067 345.475 177.146 345.909 177.146ZM345.909 171.298C346.276 171.298 346.602 171.223 346.887 171.074C347.173 170.925 347.397 170.718 347.559 170.454C347.721 170.19 347.801 169.885 347.801 169.54C347.801 169.199 347.721 168.901 347.559 168.645C347.397 168.385 347.175 168.183 346.894 168.038C346.613 167.888 346.284 167.814 345.909 167.814C345.539 167.814 345.211 167.888 344.925 168.038C344.64 168.183 344.416 168.385 344.254 168.645C344.096 168.901 344.017 169.199 344.017 169.54C344.017 169.885 344.098 170.19 344.26 170.454C344.422 170.718 344.646 170.925 344.931 171.074C345.217 171.223 345.543 171.298 345.909 171.298ZM357.663 165.73C358.336 165.73 358.984 165.843 359.606 166.069C360.232 166.295 360.791 166.655 361.281 167.149C361.775 167.643 362.165 168.3 362.45 169.118C362.74 169.932 362.887 170.931 362.892 172.116C362.892 173.228 362.766 174.221 362.514 175.094C362.267 175.964 361.911 176.703 361.447 177.312C360.982 177.922 360.422 178.386 359.766 178.706C359.11 179.021 358.377 179.179 357.567 179.179C356.693 179.179 355.922 179.011 355.253 178.674C354.584 178.333 354.045 177.871 353.636 177.287C353.231 176.699 352.986 176.038 352.901 175.305H355.63C355.737 175.783 355.96 176.153 356.301 176.418C356.642 176.678 357.064 176.808 357.567 176.808C358.419 176.808 359.067 176.437 359.51 175.695C359.953 174.95 360.177 173.929 360.181 172.634H360.092C359.896 173.017 359.632 173.347 359.299 173.624C358.967 173.897 358.585 174.108 358.155 174.257C357.729 174.406 357.275 174.481 356.794 174.481C356.022 174.481 355.334 174.3 354.729 173.938C354.124 173.575 353.646 173.077 353.297 172.442C352.948 171.807 352.773 171.082 352.773 170.268C352.769 169.391 352.971 168.609 353.38 167.923C353.789 167.237 354.36 166.7 355.093 166.312C355.83 165.92 356.687 165.726 357.663 165.73ZM357.682 167.903C357.252 167.903 356.868 168.006 356.531 168.21C356.199 168.415 355.935 168.69 355.739 169.035C355.547 169.38 355.453 169.766 355.458 170.192C355.458 170.622 355.551 171.01 355.739 171.355C355.931 171.696 356.191 171.969 356.519 172.173C356.851 172.374 357.23 172.474 357.656 172.474C357.976 172.474 358.272 172.414 358.545 172.295C358.818 172.175 359.054 172.011 359.254 171.803C359.459 171.589 359.619 171.344 359.734 171.067C359.849 170.79 359.906 170.496 359.906 170.185C359.902 169.772 359.804 169.393 359.612 169.048C359.421 168.702 359.156 168.425 358.82 168.217C358.483 168.008 358.104 167.903 357.682 167.903ZM369.942 179.288C368.843 179.283 367.896 179.013 367.104 178.476C366.316 177.939 365.708 177.161 365.282 176.143C364.86 175.124 364.651 173.899 364.656 172.467C364.656 171.04 364.867 169.823 365.289 168.817C365.715 167.812 366.322 167.047 367.11 166.523C367.903 165.994 368.847 165.73 369.942 165.73C371.037 165.73 371.979 165.994 372.767 166.523C373.56 167.051 374.169 167.818 374.595 168.824C375.021 169.825 375.232 171.04 375.228 172.467C375.228 173.903 375.015 175.131 374.589 176.149C374.167 177.168 373.562 177.945 372.774 178.482C371.985 179.019 371.041 179.288 369.942 179.288ZM369.942 176.993C370.692 176.993 371.291 176.616 371.738 175.862C372.186 175.107 372.407 173.976 372.403 172.467C372.403 171.474 372.301 170.648 372.096 169.987C371.896 169.327 371.61 168.83 371.24 168.498C370.873 168.165 370.441 167.999 369.942 167.999C369.196 167.999 368.6 168.372 368.152 169.118C367.705 169.864 367.479 170.98 367.475 172.467C367.475 173.473 367.575 174.312 367.775 174.986C367.98 175.655 368.267 176.158 368.638 176.494C369.009 176.827 369.443 176.993 369.942 176.993ZM378.292 179.166C377.87 179.166 377.507 179.017 377.205 178.719C376.907 178.416 376.757 178.054 376.757 177.632C376.757 177.214 376.907 176.857 377.205 176.558C377.507 176.26 377.87 176.111 378.292 176.111C378.701 176.111 379.059 176.26 379.365 176.558C379.672 176.857 379.826 177.214 379.826 177.632C379.826 177.913 379.753 178.171 379.608 178.406C379.468 178.636 379.282 178.821 379.052 178.962C378.822 179.098 378.569 179.166 378.292 179.166ZM386.711 179.179C385.808 179.179 385.003 179.013 384.295 178.68C383.592 178.348 383.034 177.89 382.621 177.306C382.207 176.722 381.992 176.053 381.975 175.299H384.66C384.689 175.806 384.903 176.217 385.299 176.533C385.695 176.848 386.166 177.006 386.711 177.006C387.146 177.006 387.53 176.91 387.862 176.718C388.199 176.522 388.461 176.251 388.648 175.906C388.84 175.557 388.936 175.156 388.936 174.705C388.936 174.244 388.838 173.839 388.642 173.49C388.45 173.141 388.184 172.868 387.843 172.672C387.502 172.476 387.112 172.376 386.673 172.371C386.29 172.371 385.917 172.45 385.555 172.608C385.197 172.766 384.917 172.981 384.717 173.254L382.256 172.812L382.876 165.909H390.879V168.172H385.158L384.819 171.451H384.896C385.126 171.127 385.474 170.859 385.938 170.646C386.403 170.433 386.922 170.326 387.498 170.326C388.286 170.326 388.989 170.511 389.607 170.882C390.225 171.253 390.713 171.762 391.071 172.41C391.429 173.053 391.606 173.795 391.601 174.634C391.606 175.516 391.401 176.3 390.988 176.987C390.579 177.668 390.006 178.205 389.268 178.597C388.535 178.985 387.683 179.179 386.711 179.179ZM398.665 179.288C397.565 179.283 396.619 179.013 395.827 178.476C395.038 177.939 394.431 177.161 394.005 176.143C393.583 175.124 393.374 173.899 393.378 172.467C393.378 171.04 393.589 169.823 394.011 168.817C394.437 167.812 395.045 167.047 395.833 166.523C396.626 165.994 397.569 165.73 398.665 165.73C399.76 165.73 400.702 165.994 401.49 166.523C402.282 167.051 402.892 167.818 403.318 168.824C403.744 169.825 403.955 171.04 403.951 172.467C403.951 173.903 403.738 175.131 403.312 176.149C402.89 177.168 402.285 177.945 401.496 178.482C400.708 179.019 399.764 179.288 398.665 179.288ZM398.665 176.993C399.415 176.993 400.013 176.616 400.461 175.862C400.908 175.107 401.13 173.976 401.126 172.467C401.126 171.474 401.023 170.648 400.819 169.987C400.618 169.327 400.333 168.83 399.962 168.498C399.596 168.165 399.163 167.999 398.665 167.999C397.919 167.999 397.322 168.372 396.875 169.118C396.427 169.864 396.202 170.98 396.197 172.467C396.197 173.473 396.297 174.312 396.498 174.986C396.702 175.655 396.99 176.158 397.361 176.494C397.731 176.827 398.166 176.993 398.665 176.993Z" fill="#343A40"/>
</g>
<defs>
<filter id="filter0_d_6180_495" x="0" y="0" width="460" height="265" filterUnits="userSpaceOnUse" color-interpolation-filters="sRGB">
<feFlood flood-opacity="0" result="BackgroundImageFix"/>
<feColorMatrix in="SourceAlpha" type="matrix" values="0 0 0 0 0 0 0 0 0 0 0 0 0 0 0 0 0 0 127 0" result="hardAlpha"/>
<feOffset dy="4"/>
<feGaussianBlur stdDeviation="10"/>
<feComposite in2="hardAlpha" operator="out"/>
<feColorMatrix type="matrix" values="0 0 0 0 0.675455 0 0 0 0 0.904545 0 0 0 0 0.781515 0 0 0 0.24 0"/>
<feBlend mode="normal" in2="BackgroundImageFix" result="effect1_dropShadow_6180_495"/>
<feBlend mode="normal" in="SourceGraphic" in2="effect1_dropShadow_6180_495" result="shape"/>
</filter>
</defs>
</svg>
