<svg width="500" height="475" viewBox="0 0 500 475" fill="none" xmlns="http://www.w3.org/2000/svg">
<g filter="url(#filter0_d_6180_356)">
<rect x="40.5" y="36.5" width="419" height="394" rx="7.5" stroke="#2D995F" shape-rendering="crispEdges"/>
<path d="M74.8011 67.3636C74.7415 66.8598 74.4995 66.4688 74.0753 66.1903C73.651 65.9119 73.1307 65.7727 72.5142 65.7727C72.0634 65.7727 71.669 65.8456 71.331 65.9915C70.9962 66.1373 70.7344 66.3378 70.5455 66.593C70.3598 66.8482 70.267 67.1383 70.267 67.4631C70.267 67.7348 70.3317 67.9685 70.4609 68.1641C70.5935 68.3563 70.7625 68.517 70.968 68.6463C71.1735 68.7723 71.389 68.8767 71.6143 68.9595C71.8397 69.0391 72.0469 69.1037 72.2358 69.1534L73.2699 69.4318C73.535 69.5014 73.83 69.5975 74.1548 69.7202C74.483 69.8428 74.7962 70.0102 75.0945 70.2223C75.3961 70.4311 75.6446 70.6996 75.8402 71.0277C76.0357 71.3558 76.1335 71.7585 76.1335 72.2358C76.1335 72.786 75.9893 73.2831 75.701 73.7273C75.416 74.1714 74.9983 74.5244 74.4482 74.7862C73.9013 75.0481 73.2367 75.179 72.4545 75.179C71.7254 75.179 71.094 75.0613 70.5604 74.826C70.0301 74.5907 69.6125 74.2625 69.3075 73.8416C69.0059 73.4207 68.8352 72.9318 68.7955 72.375H70.0682C70.1013 72.7595 70.2306 73.0777 70.456 73.3295C70.6847 73.5781 70.973 73.7637 71.321 73.8864C71.6723 74.0057 72.0502 74.0653 72.4545 74.0653C72.9252 74.0653 73.3478 73.9891 73.7223 73.8366C74.0968 73.6809 74.3935 73.4654 74.6122 73.1903C74.831 72.9119 74.9403 72.5871 74.9403 72.2159C74.9403 71.8778 74.8459 71.6027 74.657 71.3906C74.468 71.1785 74.2195 71.0062 73.9112 70.8736C73.603 70.741 73.2699 70.625 72.9119 70.5256L71.6591 70.1676C70.8636 69.9389 70.2339 69.6125 69.7699 69.1882C69.3059 68.764 69.0739 68.2088 69.0739 67.5227C69.0739 66.9527 69.228 66.4555 69.5362 66.0312C69.8478 65.6037 70.2654 65.2723 70.7891 65.0369C71.3161 64.7983 71.9044 64.679 72.554 64.679C73.2102 64.679 73.7936 64.7966 74.304 65.032C74.8144 65.264 75.2188 65.5821 75.517 65.9865C75.8187 66.3909 75.9777 66.8499 75.9943 67.3636H74.8011ZM78.5783 75H77.2857L81.0243 64.8182H82.2971L86.0357 75H84.7431L81.7005 66.429H81.6209L78.5783 75ZM79.0556 71.0227H84.2658V72.1165H79.0556V71.0227ZM87.6216 75V64.8182H88.8546V73.9062H93.5875V75H87.6216ZM95.4966 75V64.8182H101.642V65.9119H96.7296V69.3523H101.323V70.446H96.7296V73.9062H101.721V75H95.4966ZM109.432 67.3636C109.372 66.8598 109.13 66.4688 108.706 66.1903C108.282 65.9119 107.762 65.7727 107.145 65.7727C106.694 65.7727 106.3 65.8456 105.962 65.9915C105.627 66.1373 105.365 66.3378 105.176 66.593C104.991 66.8482 104.898 67.1383 104.898 67.4631C104.898 67.7348 104.963 67.9685 105.092 68.1641C105.224 68.3563 105.393 68.517 105.599 68.6463C105.804 68.7723 106.02 68.8767 106.245 68.9595C106.471 69.0391 106.678 69.1037 106.867 69.1534L107.901 69.4318C108.166 69.5014 108.461 69.5975 108.786 69.7202C109.114 69.8428 109.427 70.0102 109.725 70.2223C110.027 70.4311 110.276 70.6996 110.471 71.0277C110.667 71.3558 110.764 71.7585 110.764 72.2358C110.764 72.786 110.62 73.2831 110.332 73.7273C110.047 74.1714 109.629 74.5244 109.079 74.7862C108.532 75.0481 107.868 75.179 107.085 75.179C106.356 75.179 105.725 75.0613 105.191 74.826C104.661 74.5907 104.243 74.2625 103.938 73.8416C103.637 73.4207 103.466 72.9318 103.426 72.375H104.699C104.732 72.7595 104.861 73.0777 105.087 73.3295C105.316 73.5781 105.604 73.7637 105.952 73.8864C106.303 74.0057 106.681 74.0653 107.085 74.0653C107.556 74.0653 107.979 73.9891 108.353 73.8366C108.728 73.6809 109.024 73.4654 109.243 73.1903C109.462 72.9119 109.571 72.5871 109.571 72.2159C109.571 71.8778 109.477 71.6027 109.288 71.3906C109.099 71.1785 108.85 71.0062 108.542 70.8736C108.234 70.741 107.901 70.625 107.543 70.5256L106.29 70.1676C105.494 69.9389 104.865 69.6125 104.401 69.1882C103.937 68.764 103.705 68.2088 103.705 67.5227C103.705 66.9527 103.859 66.4555 104.167 66.0312C104.479 65.6037 104.896 65.2723 105.42 65.0369C105.947 64.7983 106.535 64.679 107.185 64.679C107.841 64.679 108.424 64.7966 108.935 65.032C109.445 65.264 109.85 65.5821 110.148 65.9865C110.45 66.3909 110.609 66.8499 110.625 67.3636H109.432Z" fill="#343A40"/>
<path d="M68.5795 140.21V139.273H75.125V140.21H72.3807V148H71.3239V140.21H68.5795ZM78.3295 148.136C77.7386 148.136 77.2202 147.996 76.7741 147.714C76.331 147.433 75.9844 147.04 75.7344 146.534C75.4872 146.028 75.3636 145.437 75.3636 144.761C75.3636 144.08 75.4872 143.484 75.7344 142.976C75.9844 142.467 76.331 142.072 76.7741 141.791C77.2202 141.51 77.7386 141.369 78.3295 141.369C78.9205 141.369 79.4375 141.51 79.8807 141.791C80.3267 142.072 80.6733 142.467 80.9205 142.976C81.1705 143.484 81.2955 144.08 81.2955 144.761C81.2955 145.437 81.1705 146.028 80.9205 146.534C80.6733 147.04 80.3267 147.433 79.8807 147.714C79.4375 147.996 78.9205 148.136 78.3295 148.136ZM78.3295 147.233C78.7784 147.233 79.1477 147.118 79.4375 146.888C79.7273 146.658 79.9418 146.355 80.081 145.98C80.2202 145.605 80.2898 145.199 80.2898 144.761C80.2898 144.324 80.2202 143.916 80.081 143.538C79.9418 143.161 79.7273 142.855 79.4375 142.622C79.1477 142.389 78.7784 142.273 78.3295 142.273C77.8807 142.273 77.5114 142.389 77.2216 142.622C76.9318 142.855 76.7173 143.161 76.5781 143.538C76.4389 143.916 76.3693 144.324 76.3693 144.761C76.3693 145.199 76.4389 145.605 76.5781 145.98C76.7173 146.355 76.9318 146.658 77.2216 146.888C77.5114 147.118 77.8807 147.233 78.3295 147.233ZM85.6772 141.455V142.307H82.2852V141.455H85.6772ZM83.2738 139.886H84.2795V146.125C84.2795 146.409 84.3207 146.622 84.4031 146.764C84.4883 146.903 84.5962 146.997 84.7269 147.045C84.8604 147.091 85.0011 147.114 85.1488 147.114C85.2596 147.114 85.3505 147.108 85.4215 147.097C85.4925 147.082 85.5494 147.071 85.592 147.062L85.7965 147.966C85.7283 147.991 85.6332 148.017 85.511 148.043C85.3888 148.071 85.234 148.085 85.0465 148.085C84.7624 148.085 84.484 148.024 84.2113 147.902C83.9414 147.78 83.717 147.594 83.538 147.344C83.3619 147.094 83.2738 146.778 83.2738 146.398V139.886ZM89.1161 148.153C88.7013 148.153 88.3249 148.075 87.9869 147.919C87.6488 147.76 87.3803 147.531 87.1815 147.233C86.9826 146.932 86.8832 146.568 86.8832 146.142C86.8832 145.767 86.957 145.463 87.1048 145.23C87.2525 144.994 87.4499 144.81 87.6971 144.676C87.9442 144.543 88.217 144.443 88.5153 144.378C88.8164 144.31 89.119 144.256 89.4229 144.216C89.8207 144.165 90.1431 144.126 90.3903 144.101C90.6403 144.072 90.8221 144.026 90.9357 143.96C91.0522 143.895 91.1104 143.781 91.1104 143.619V143.585C91.1104 143.165 90.9954 142.838 90.7653 142.605C90.538 142.372 90.1928 142.256 89.7298 142.256C89.2496 142.256 88.8732 142.361 88.6005 142.571C88.3278 142.781 88.136 143.006 88.0252 143.244L87.0707 142.903C87.2411 142.506 87.4684 142.196 87.7525 141.974C88.0394 141.75 88.3519 141.594 88.69 141.506C89.0309 141.415 89.3661 141.369 89.6957 141.369C89.9059 141.369 90.1474 141.395 90.4201 141.446C90.6957 141.494 90.9613 141.595 91.217 141.749C91.4755 141.902 91.69 142.134 91.8604 142.443C92.0309 142.753 92.1161 143.168 92.1161 143.688V148H91.1104V147.114H91.0593C90.9911 147.256 90.8775 147.408 90.7184 147.57C90.5593 147.732 90.3477 147.869 90.0835 147.983C89.8192 148.097 89.4968 148.153 89.1161 148.153ZM89.2695 147.25C89.6673 147.25 90.0025 147.172 90.2752 147.016C90.5508 146.859 90.7582 146.658 90.8974 146.411C91.0394 146.163 91.1104 145.903 91.1104 145.631V144.71C91.0678 144.761 90.9741 144.808 90.8292 144.851C90.6871 144.891 90.5224 144.926 90.3349 144.957C90.1502 144.986 89.9698 145.011 89.7937 145.034C89.6204 145.054 89.4798 145.071 89.3718 145.085C89.1104 145.119 88.8661 145.175 88.6388 145.251C88.4144 145.325 88.2326 145.437 88.0934 145.588C87.957 145.736 87.8888 145.937 87.8888 146.193C87.8888 146.543 88.0181 146.807 88.2766 146.986C88.538 147.162 88.869 147.25 89.2695 147.25ZM94.9574 139.273V148H93.9517V139.273H94.9574ZM100.311 148V139.273H103.26C103.944 139.273 104.504 139.396 104.939 139.643C105.376 139.888 105.7 140.219 105.91 140.636C106.12 141.054 106.225 141.52 106.225 142.034C106.225 142.548 106.12 143.016 105.91 143.436C105.703 143.857 105.382 144.192 104.947 144.442C104.512 144.689 103.956 144.812 103.277 144.812H101.163V143.875H103.243C103.711 143.875 104.088 143.794 104.372 143.632C104.656 143.47 104.862 143.251 104.99 142.976C105.12 142.697 105.186 142.384 105.186 142.034C105.186 141.685 105.12 141.372 104.99 141.097C104.862 140.821 104.654 140.605 104.368 140.449C104.081 140.29 103.7 140.21 103.225 140.21H101.368V148H100.311ZM107.792 148V141.455H108.763V142.443H108.831C108.951 142.119 109.167 141.857 109.479 141.655C109.792 141.453 110.144 141.352 110.536 141.352C110.61 141.352 110.702 141.354 110.813 141.357C110.924 141.359 111.007 141.364 111.064 141.369V142.392C111.03 142.384 110.952 142.371 110.83 142.354C110.711 142.334 110.584 142.324 110.451 142.324C110.132 142.324 109.848 142.391 109.598 142.524C109.351 142.655 109.155 142.837 109.01 143.07C108.868 143.3 108.797 143.562 108.797 143.858V148H107.792ZM114.716 148.136C114.125 148.136 113.607 147.996 113.161 147.714C112.718 147.433 112.371 147.04 112.121 146.534C111.874 146.028 111.75 145.437 111.75 144.761C111.75 144.08 111.874 143.484 112.121 142.976C112.371 142.467 112.718 142.072 113.161 141.791C113.607 141.51 114.125 141.369 114.716 141.369C115.307 141.369 115.824 141.51 116.267 141.791C116.713 142.072 117.06 142.467 117.307 142.976C117.557 143.484 117.682 144.08 117.682 144.761C117.682 145.437 117.557 146.028 117.307 146.534C117.06 147.04 116.713 147.433 116.267 147.714C115.824 147.996 115.307 148.136 114.716 148.136ZM114.716 147.233C115.165 147.233 115.534 147.118 115.824 146.888C116.114 146.658 116.328 146.355 116.468 145.98C116.607 145.605 116.676 145.199 116.676 144.761C116.676 144.324 116.607 143.916 116.468 143.538C116.328 143.161 116.114 142.855 115.824 142.622C115.534 142.389 115.165 142.273 114.716 142.273C114.267 142.273 113.898 142.389 113.608 142.622C113.319 142.855 113.104 143.161 112.965 143.538C112.826 143.916 112.756 144.324 112.756 144.761C112.756 145.199 112.826 145.605 112.965 145.98C113.104 146.355 113.319 146.658 113.608 146.888C113.898 147.118 114.267 147.233 114.716 147.233ZM122.132 141.455V142.307H118.604V141.455H122.132ZM119.661 148V140.551C119.661 140.176 119.749 139.864 119.925 139.614C120.101 139.364 120.33 139.176 120.611 139.051C120.892 138.926 121.189 138.864 121.501 138.864C121.749 138.864 121.95 138.884 122.107 138.923C122.263 138.963 122.379 139 122.456 139.034L122.166 139.903C122.115 139.886 122.044 139.865 121.953 139.839C121.865 139.814 121.749 139.801 121.604 139.801C121.271 139.801 121.031 139.885 120.884 140.053C120.739 140.22 120.666 140.466 120.666 140.79V148H119.661ZM123.542 148V141.455H124.547V148H123.542ZM124.053 140.364C123.857 140.364 123.688 140.297 123.546 140.163C123.407 140.03 123.337 139.869 123.337 139.682C123.337 139.494 123.407 139.334 123.546 139.2C123.688 139.067 123.857 139 124.053 139C124.249 139 124.417 139.067 124.556 139.2C124.698 139.334 124.769 139.494 124.769 139.682C124.769 139.869 124.698 140.03 124.556 140.163C124.417 140.297 124.249 140.364 124.053 140.364ZM129.236 141.455V142.307H125.844V141.455H129.236ZM126.832 139.886H127.838V146.125C127.838 146.409 127.879 146.622 127.962 146.764C128.047 146.903 128.155 146.997 128.286 147.045C128.419 147.091 128.56 147.114 128.707 147.114C128.818 147.114 128.909 147.108 128.98 147.097C129.051 147.082 129.108 147.071 129.151 147.062L129.355 147.966C129.287 147.991 129.192 148.017 129.07 148.043C128.947 148.071 128.793 148.085 128.605 148.085C128.321 148.085 128.043 148.024 127.77 147.902C127.5 147.78 127.276 147.594 127.097 147.344C126.92 147.094 126.832 146.778 126.832 146.398V139.886Z" fill="#343A40"/>
<path d="M86.8026 103.636V124H83.0838L74.2244 111.183H74.0753V124H69.7699V103.636H73.5483L82.3381 116.443H82.517V103.636H86.8026ZM97.6779 124.278C96.2726 124.278 95.0198 124.02 93.9194 123.503C92.8256 122.986 91.9573 122.273 91.3143 121.365C90.6713 120.457 90.3365 119.416 90.31 118.243H94.4862C94.5326 119.032 94.864 119.671 95.4805 120.162C96.0969 120.652 96.8294 120.898 97.6779 120.898C98.354 120.898 98.9506 120.749 99.4677 120.45C99.9914 120.145 100.399 119.724 100.691 119.188C100.989 118.644 101.138 118.021 101.138 117.318C101.138 116.602 100.986 115.973 100.681 115.429C100.382 114.885 99.9682 114.461 99.4379 114.156C98.9076 113.851 98.301 113.696 97.6183 113.689C97.0217 113.689 96.4416 113.812 95.8782 114.057C95.3214 114.302 94.8872 114.637 94.5756 115.061L90.7475 114.375L91.712 103.636H104.161V107.156H95.2617L94.7347 112.257H94.854C95.212 111.753 95.7522 111.336 96.4748 111.004C97.1973 110.673 98.006 110.507 98.9009 110.507C100.127 110.507 101.221 110.795 102.182 111.372C103.143 111.949 103.902 112.741 104.459 113.749C105.016 114.75 105.291 115.903 105.284 117.209C105.291 118.581 104.973 119.801 104.33 120.868C103.694 121.929 102.802 122.764 101.655 123.374C100.515 123.977 99.1893 124.278 97.6779 124.278ZM107.979 120.42V117.03L116.48 103.636H119.404V108.33H117.674L112.314 116.811V116.97H124.395V120.42H107.979ZM117.753 124V119.386L117.833 117.885V103.636H121.87V124H117.753ZM131.525 121.216L131.415 122.31C131.329 123.185 131.163 124.056 130.918 124.925C130.679 125.8 130.427 126.592 130.162 127.301C129.904 128.01 129.695 128.567 129.536 128.972H126.792C126.891 128.58 127.027 128.034 127.199 127.331C127.372 126.635 127.534 125.853 127.686 124.984C127.839 124.116 127.935 123.231 127.975 122.33L128.025 121.216H131.525ZM135.358 124V120.898L142.606 114.186C143.223 113.589 143.74 113.053 144.157 112.575C144.582 112.098 144.903 111.631 145.122 111.173C145.341 110.709 145.45 110.209 145.45 109.672C145.45 109.075 145.314 108.562 145.042 108.131C144.77 107.693 144.399 107.358 143.929 107.126C143.458 106.888 142.924 106.768 142.328 106.768C141.705 106.768 141.161 106.894 140.697 107.146C140.233 107.398 139.875 107.759 139.623 108.23C139.371 108.701 139.245 109.261 139.245 109.911H135.159C135.159 108.578 135.46 107.421 136.064 106.44C136.667 105.459 137.512 104.7 138.599 104.163C139.686 103.626 140.939 103.358 142.358 103.358C143.816 103.358 145.085 103.616 146.166 104.134C147.253 104.644 148.098 105.353 148.701 106.261C149.305 107.17 149.606 108.21 149.606 109.384C149.606 110.152 149.454 110.911 149.149 111.661C148.85 112.41 148.317 113.241 147.548 114.156C146.779 115.064 145.695 116.155 144.297 117.428L141.324 120.341V120.48H149.875V124H135.358ZM160.979 124.447C159.268 124.441 157.797 124.02 156.564 123.185C155.338 122.349 154.393 121.14 153.73 119.555C153.074 117.971 152.749 116.065 152.756 113.838C152.756 111.617 153.084 109.725 153.74 108.161C154.403 106.596 155.348 105.406 156.574 104.591C157.807 103.769 159.275 103.358 160.979 103.358C162.682 103.358 164.147 103.769 165.374 104.591C166.607 105.413 167.554 106.606 168.217 108.17C168.88 109.728 169.208 111.617 169.202 113.838C169.202 116.072 168.87 117.981 168.207 119.565C167.551 121.15 166.61 122.359 165.384 123.195C164.157 124.03 162.689 124.447 160.979 124.447ZM160.979 120.878C162.145 120.878 163.077 120.291 163.773 119.118C164.469 117.945 164.813 116.185 164.807 113.838C164.807 112.294 164.648 111.008 164.33 109.98C164.018 108.953 163.574 108.18 162.997 107.663C162.427 107.146 161.754 106.888 160.979 106.888C159.819 106.888 158.891 107.468 158.195 108.628C157.499 109.788 157.147 111.525 157.141 113.838C157.141 115.402 157.296 116.708 157.608 117.756C157.926 118.796 158.374 119.579 158.95 120.102C159.527 120.619 160.203 120.878 160.979 120.878ZM180.256 124.447C178.546 124.441 177.074 124.02 175.841 123.185C174.615 122.349 173.67 121.14 173.007 119.555C172.351 117.971 172.026 116.065 172.033 113.838C172.033 111.617 172.361 109.725 173.017 108.161C173.68 106.596 174.625 105.406 175.851 104.591C177.084 103.769 178.552 103.358 180.256 103.358C181.96 103.358 183.425 103.769 184.651 104.591C185.884 105.413 186.832 106.606 187.495 108.17C188.158 109.728 188.486 111.617 188.479 113.838C188.479 116.072 188.148 117.981 187.485 119.565C186.828 121.15 185.887 122.359 184.661 123.195C183.435 124.03 181.966 124.447 180.256 124.447ZM180.256 120.878C181.423 120.878 182.354 120.291 183.05 119.118C183.746 117.945 184.091 116.185 184.084 113.838C184.084 112.294 183.925 111.008 183.607 109.98C183.295 108.953 182.851 108.18 182.275 107.663C181.704 107.146 181.032 106.888 180.256 106.888C179.096 106.888 178.168 107.468 177.472 108.628C176.776 109.788 176.425 111.525 176.418 113.838C176.418 115.402 176.574 116.708 176.885 117.756C177.203 118.796 177.651 119.579 178.228 120.102C178.804 120.619 179.48 120.878 180.256 120.878ZM195.372 121.216L195.263 122.31C195.177 123.185 195.011 124.056 194.766 124.925C194.527 125.8 194.275 126.592 194.01 127.301C193.751 128.01 193.543 128.567 193.384 128.972H190.639C190.739 128.58 190.875 128.034 191.047 127.331C191.219 126.635 191.382 125.853 191.534 124.984C191.687 124.116 191.783 123.231 191.822 122.33L191.872 121.216H195.372ZM206.479 124.278C205.073 124.278 203.821 124.02 202.72 123.503C201.626 122.986 200.758 122.273 200.115 121.365C199.472 120.457 199.137 119.416 199.111 118.243H203.287C203.333 119.032 203.665 119.671 204.281 120.162C204.898 120.652 205.63 120.898 206.479 120.898C207.155 120.898 207.751 120.749 208.268 120.45C208.792 120.145 209.2 119.724 209.491 119.188C209.79 118.644 209.939 118.021 209.939 117.318C209.939 116.602 209.786 115.973 209.482 115.429C209.183 114.885 208.769 114.461 208.239 114.156C207.708 113.851 207.102 113.696 206.419 113.689C205.822 113.689 205.242 113.812 204.679 114.057C204.122 114.302 203.688 114.637 203.376 115.061L199.548 114.375L200.513 103.636H212.962V107.156H204.062L203.536 112.257H203.655C204.013 111.753 204.553 111.336 205.276 111.004C205.998 110.673 206.807 110.507 207.702 110.507C208.928 110.507 210.022 110.795 210.983 111.372C211.944 111.949 212.703 112.741 213.26 113.749C213.817 114.75 214.092 115.903 214.085 117.209C214.092 118.581 213.774 119.801 213.131 120.868C212.494 121.929 211.603 122.764 210.456 123.374C209.316 123.977 207.99 124.278 206.479 124.278ZM217.893 124L226.335 107.295V107.156H216.501V103.636H230.79V107.206L222.338 124H217.893ZM240.904 124.278C239.499 124.278 238.246 124.02 237.146 123.503C236.052 122.986 235.184 122.273 234.541 121.365C233.898 120.457 233.563 119.416 233.537 118.243H237.713C237.759 119.032 238.091 119.671 238.707 120.162C239.324 120.652 240.056 120.898 240.904 120.898C241.581 120.898 242.177 120.749 242.694 120.45C243.218 120.145 243.626 119.724 243.917 119.188C244.216 118.644 244.365 118.021 244.365 117.318C244.365 116.602 244.212 115.973 243.907 115.429C243.609 114.885 243.195 114.461 242.664 114.156C242.134 113.851 241.528 113.696 240.845 113.689C240.248 113.689 239.668 113.812 239.105 114.057C238.548 114.302 238.114 114.637 237.802 115.061L233.974 114.375L234.939 103.636H247.387V107.156H238.488L237.961 112.257H238.081C238.439 111.753 238.979 111.336 239.701 111.004C240.424 110.673 241.233 110.507 242.127 110.507C243.354 110.507 244.448 110.795 245.409 111.372C246.37 111.949 247.129 112.741 247.686 113.749C248.243 114.75 248.518 115.903 248.511 117.209C248.518 118.581 248.199 119.801 247.556 120.868C246.92 121.929 246.029 122.764 244.882 123.374C243.742 123.977 242.416 124.278 240.904 124.278ZM253.373 124.259C252.717 124.259 252.154 124.027 251.683 123.562C251.219 123.092 250.987 122.528 250.987 121.872C250.987 121.223 251.219 120.666 251.683 120.202C252.154 119.738 252.717 119.506 253.373 119.506C254.01 119.506 254.566 119.738 255.044 120.202C255.521 120.666 255.76 121.223 255.76 121.872C255.76 122.31 255.647 122.711 255.422 123.075C255.203 123.433 254.914 123.722 254.556 123.94C254.199 124.152 253.804 124.259 253.373 124.259ZM266.362 124.447C264.651 124.441 263.18 124.02 261.947 123.185C260.72 122.349 259.776 121.14 259.113 119.555C258.457 117.971 258.132 116.065 258.138 113.838C258.138 111.617 258.467 109.725 259.123 108.161C259.786 106.596 260.73 105.406 261.957 104.591C263.19 103.769 264.658 103.358 266.362 103.358C268.065 103.358 269.53 103.769 270.756 104.591C271.989 105.413 272.937 106.606 273.6 108.17C274.263 109.728 274.591 111.617 274.585 113.838C274.585 116.072 274.253 117.981 273.59 119.565C272.934 121.15 271.993 122.359 270.766 123.195C269.54 124.03 268.072 124.447 266.362 124.447ZM266.362 120.878C267.528 120.878 268.46 120.291 269.156 119.118C269.852 117.945 270.196 116.185 270.19 113.838C270.19 112.294 270.031 111.008 269.712 109.98C269.401 108.953 268.957 108.18 268.38 107.663C267.81 107.146 267.137 106.888 266.362 106.888C265.201 106.888 264.273 107.468 263.577 108.628C262.881 109.788 262.53 111.525 262.523 113.838C262.523 115.402 262.679 116.708 262.991 117.756C263.309 118.796 263.756 119.579 264.333 120.102C264.91 120.619 265.586 120.878 266.362 120.878ZM285.639 124.447C283.929 124.441 282.457 124.02 281.224 123.185C279.998 122.349 279.053 121.14 278.39 119.555C277.734 117.971 277.409 116.065 277.416 113.838C277.416 111.617 277.744 109.725 278.4 108.161C279.063 106.596 280.008 105.406 281.234 104.591C282.467 103.769 283.935 103.358 285.639 103.358C287.342 103.358 288.807 103.769 290.034 104.591C291.267 105.413 292.215 106.606 292.877 108.17C293.54 109.728 293.868 111.617 293.862 113.838C293.862 116.072 293.53 117.981 292.868 119.565C292.211 121.15 291.27 122.359 290.044 123.195C288.817 124.03 287.349 124.447 285.639 124.447ZM285.639 120.878C286.806 120.878 287.737 120.291 288.433 119.118C289.129 117.945 289.474 116.185 289.467 113.838C289.467 112.294 289.308 111.008 288.99 109.98C288.678 108.953 288.234 108.18 287.657 107.663C287.087 107.146 286.414 106.888 285.639 106.888C284.479 106.888 283.551 107.468 282.855 108.628C282.159 109.788 281.807 111.525 281.801 113.838C281.801 115.402 281.957 116.708 282.268 117.756C282.586 118.796 283.034 119.579 283.61 120.102C284.187 120.619 284.863 120.878 285.639 120.878Z" fill="#2D995F"/>
<line x1="100.5" y1="353.012" x2="100.5" y2="179" stroke="#E9ECEF"/>
<line x1="101" y1="352.506" x2="414" y2="352.499" stroke="#E9ECEF"/>
<path d="M70.8097 194.006V193.519L73.1854 190.849C73.4955 190.499 73.7453 190.199 73.9347 189.95C74.1241 189.702 74.2614 189.472 74.3466 189.262C74.4342 189.051 74.478 188.832 74.478 188.605C74.478 188.328 74.4129 188.086 74.2827 187.88C74.1548 187.672 73.9785 187.51 73.7536 187.394C73.5286 187.278 73.2753 187.22 72.9936 187.22C72.6953 187.22 72.4337 187.284 72.2088 187.411C71.9863 187.539 71.8134 187.714 71.6903 187.937C71.5672 188.16 71.5057 188.415 71.5057 188.704H70.87C70.87 188.302 70.9624 187.945 71.147 187.635C71.334 187.323 71.5885 187.078 71.9105 186.9C72.2348 186.722 72.6018 186.634 73.0114 186.634C73.4162 186.634 73.776 186.721 74.0909 186.896C74.4058 187.069 74.6532 187.305 74.8331 187.603C75.013 187.901 75.103 188.235 75.103 188.605C75.103 188.872 75.0556 189.131 74.9609 189.382C74.8686 189.633 74.7088 189.913 74.4815 190.22C74.2543 190.528 73.9394 190.905 73.5369 191.35L71.733 193.363V193.409H75.3303V194.006H70.8097ZM79.1717 194.105C78.6603 194.105 78.2235 193.959 77.8613 193.665C77.5015 193.369 77.2245 192.942 77.0304 192.383C76.8386 191.824 76.7427 191.153 76.7427 190.369C76.7427 189.588 76.8386 188.919 77.0304 188.363C77.2245 187.804 77.5027 187.377 77.8649 187.081C78.2295 186.783 78.6651 186.634 79.1717 186.634C79.6783 186.634 80.1127 186.783 80.475 187.081C80.8395 187.377 81.1177 187.804 81.3095 188.363C81.5036 188.919 81.6007 189.588 81.6007 190.369C81.6007 191.153 81.5036 191.824 81.3095 192.383C81.1177 192.942 80.8407 193.369 80.4785 193.665C80.1187 193.959 79.6831 194.105 79.1717 194.105ZM79.1717 193.509C79.7328 193.509 80.1708 193.235 80.4856 192.688C80.8005 192.139 80.9579 191.366 80.9579 190.369C80.9579 189.707 80.8857 189.141 80.7413 188.672C80.5993 188.201 80.3945 187.841 80.127 187.593C79.8618 187.344 79.5434 187.22 79.1717 187.22C78.6154 187.22 78.1786 187.497 77.8613 188.051C77.5441 188.602 77.3855 189.375 77.3855 190.369C77.3855 191.032 77.4565 191.598 77.5985 192.067C77.743 192.536 77.9477 192.893 78.2129 193.139C78.4804 193.386 78.8 193.509 79.1717 193.509ZM83.2022 186.733H83.9693L86.6078 193.068H86.6717L89.3102 186.733H90.0772V194.006H89.4522V188.136H89.3954L86.9416 194.006H86.3379L83.8841 188.136H83.8272V194.006H83.2022V186.733Z" fill="#CED4DA"/>
<path d="M73.054 227.733V235.006H72.3899V228.429H72.3473L70.6428 229.562V228.873L72.3615 227.733H73.054ZM77.3899 235.105C76.9851 235.105 76.6229 235.024 76.3033 234.86C75.986 234.695 75.7327 234.467 75.5433 234.178C75.3563 233.89 75.2569 233.559 75.245 233.188H75.8878C75.9091 233.574 76.0606 233.891 76.3423 234.139C76.6241 234.386 76.9732 234.509 77.3899 234.509C77.7143 234.509 78.0031 234.432 78.2564 234.278C78.5097 234.122 78.7074 233.909 78.8494 233.639C78.9938 233.366 79.0661 233.06 79.0661 232.719C79.0637 232.364 78.9867 232.051 78.8352 231.781C78.6837 231.509 78.4777 231.296 78.2173 231.142C77.9593 230.988 77.6693 230.911 77.3473 230.911C77.1035 230.909 76.8643 230.949 76.63 231.032C76.3956 231.115 76.2003 231.222 76.044 231.352L75.38 231.267L75.8168 227.733H79.4105V228.33H76.3743L76.0831 230.762H76.1186C76.2796 230.627 76.4749 230.517 76.7045 230.432C76.9366 230.347 77.1816 230.304 77.4396 230.304C77.8681 230.304 78.2528 230.407 78.5938 230.613C78.937 230.819 79.2081 231.103 79.407 231.465C79.6082 231.825 79.7088 232.24 79.7088 232.708C79.7088 233.168 79.6082 233.578 79.407 233.941C79.2081 234.3 78.9335 234.584 78.5831 234.793C78.2351 235.001 77.8374 235.105 77.3899 235.105ZM81.3761 227.733H82.1431L84.7816 234.068H84.8455L87.484 227.733H88.2511V235.006H87.6261V229.136H87.5692L85.1154 235.006H84.5117L82.0579 229.136H82.0011V235.006H81.3761V227.733Z" fill="#CED4DA"/>
<path d="M73.054 268.733V276.006H72.3899V269.429H72.3473L70.6428 270.562V269.873L72.3615 268.733H73.054ZM77.5213 276.105C77.0099 276.105 76.5732 275.959 76.2109 275.665C75.8511 275.369 75.5741 274.942 75.38 274.383C75.1882 273.824 75.0923 273.153 75.0923 272.369C75.0923 271.588 75.1882 270.919 75.38 270.363C75.5741 269.804 75.8523 269.377 76.2145 269.081C76.5791 268.783 77.0147 268.634 77.5213 268.634C78.0279 268.634 78.4624 268.783 78.8246 269.081C79.1892 269.377 79.4673 269.804 79.6591 270.363C79.8532 270.919 79.9503 271.588 79.9503 272.369C79.9503 273.153 79.8532 273.824 79.6591 274.383C79.4673 274.942 79.1903 275.369 78.8281 275.665C78.4683 275.959 78.0327 276.105 77.5213 276.105ZM77.5213 275.509C78.0824 275.509 78.5204 275.235 78.8352 274.688C79.1501 274.139 79.3075 273.366 79.3075 272.369C79.3075 271.707 79.2353 271.141 79.0909 270.672C78.9489 270.201 78.7441 269.841 78.4766 269.593C78.2114 269.344 77.893 269.22 77.5213 269.22C76.965 269.22 76.5282 269.497 76.2109 270.051C75.8937 270.602 75.7351 271.375 75.7351 272.369C75.7351 273.032 75.8061 273.598 75.9482 274.067C76.0926 274.536 76.2973 274.893 76.5625 275.139C76.83 275.386 77.1496 275.509 77.5213 275.509ZM81.5518 268.733H82.3189L84.9574 275.068H85.0213L87.6598 268.733H88.4268V276.006H87.8018V270.136H87.745L85.2912 276.006H84.6875L82.2337 270.136H82.1768V276.006H81.5518V268.733Z" fill="#CED4DA"/>
<path d="M72.9368 317.105C72.532 317.105 72.1697 317.024 71.8501 316.86C71.5329 316.695 71.2796 316.467 71.0902 316.178C70.9032 315.89 70.8037 315.559 70.7919 315.188H71.4347C71.456 315.574 71.6075 315.891 71.8892 316.139C72.1709 316.386 72.5201 316.509 72.9368 316.509C73.2611 316.509 73.55 316.432 73.8033 316.278C74.0566 316.122 74.2543 315.909 74.3963 315.639C74.5407 315.366 74.6129 315.06 74.6129 314.719C74.6106 314.364 74.5336 314.051 74.3821 313.781C74.2306 313.509 74.0246 313.296 73.7642 313.142C73.5062 312.988 73.2161 312.911 72.8942 312.911C72.6503 312.909 72.4112 312.949 72.1768 313.032C71.9425 313.115 71.7472 313.222 71.5909 313.352L70.9268 313.267L71.3636 309.733H74.9574V310.33H71.9212L71.63 312.762H71.6655C71.8265 312.627 72.0218 312.517 72.2514 312.432C72.4834 312.347 72.7285 312.304 72.9865 312.304C73.415 312.304 73.7997 312.407 74.1406 312.613C74.4839 312.819 74.755 313.103 74.9538 313.465C75.1551 313.825 75.2557 314.24 75.2557 314.708C75.2557 315.168 75.1551 315.578 74.9538 315.941C74.755 316.3 74.4804 316.584 74.13 316.793C73.782 317.001 73.3842 317.105 72.9368 317.105ZM76.9229 309.733H77.69L80.3285 316.068H80.3924L83.0309 309.733H83.7979V317.006H83.1729V311.136H83.1161L80.6623 317.006H80.0586L77.6048 311.136H77.5479V317.006H76.9229V309.733Z" fill="#CED4DA"/>
<path d="M135.466 364.727H136.13V369.972C136.127 370.446 136.042 370.841 135.874 371.158C135.706 371.473 135.474 371.709 135.178 371.865C134.882 372.021 134.542 372.099 134.159 372.099C133.782 372.099 133.446 372.03 133.15 371.89C132.854 371.75 132.621 371.554 132.451 371.3C132.283 371.047 132.199 370.75 132.199 370.409H132.852C132.852 370.625 132.909 370.815 133.023 370.981C133.136 371.144 133.291 371.272 133.488 371.364C133.687 371.457 133.91 371.503 134.159 371.503C134.417 371.503 134.643 371.448 134.837 371.339C135.034 371.231 135.188 371.064 135.299 370.839C135.41 370.612 135.466 370.323 135.466 369.972V364.727ZM138.072 372H137.376L140.022 364.727H140.732L143.378 372H142.682L140.402 365.59H140.352L138.072 372ZM138.573 369.212H142.181V369.809H138.573V369.212ZM150.288 364.727V372H149.642L145.345 365.91H145.288V372H144.624V364.727H145.267L149.578 370.825H149.635V364.727H150.288ZM130.088 384V383.513L132.464 380.843C132.774 380.493 133.024 380.193 133.213 379.945C133.402 379.696 133.54 379.466 133.625 379.256C133.713 379.045 133.756 378.826 133.756 378.599C133.756 378.322 133.691 378.08 133.561 377.874C133.433 377.666 133.257 377.504 133.032 377.388C132.807 377.272 132.554 377.214 132.272 377.214C131.974 377.214 131.712 377.278 131.487 377.406C131.265 377.533 131.092 377.709 130.969 377.931C130.846 378.154 130.784 378.409 130.784 378.698H130.148C130.148 378.296 130.241 377.939 130.425 377.629C130.612 377.317 130.867 377.072 131.189 376.894C131.513 376.717 131.88 376.628 132.29 376.628C132.695 376.628 133.054 376.715 133.369 376.891C133.684 377.063 133.931 377.299 134.111 377.597C134.291 377.896 134.381 378.229 134.381 378.599C134.381 378.866 134.334 379.125 134.239 379.376C134.147 379.627 133.987 379.907 133.76 380.214C133.533 380.522 133.218 380.899 132.815 381.344L131.011 383.357V383.403H134.609V384H130.088ZM138.45 384.099C137.939 384.099 137.502 383.953 137.14 383.659C136.78 383.363 136.503 382.936 136.309 382.377C136.117 381.818 136.021 381.147 136.021 380.364C136.021 379.582 136.117 378.914 136.309 378.357C136.503 377.799 136.781 377.371 137.143 377.075C137.508 376.777 137.943 376.628 138.45 376.628C138.957 376.628 139.391 376.777 139.753 377.075C140.118 377.371 140.396 377.799 140.588 378.357C140.782 378.914 140.879 379.582 140.879 380.364C140.879 381.147 140.782 381.818 140.588 382.377C140.396 382.936 140.119 383.363 139.757 383.659C139.397 383.953 138.961 384.099 138.45 384.099ZM138.45 383.503C139.011 383.503 139.449 383.229 139.764 382.683C140.079 382.133 140.236 381.36 140.236 380.364C140.236 379.701 140.164 379.135 140.02 378.666C139.878 378.195 139.673 377.835 139.405 377.587C139.14 377.338 138.822 377.214 138.45 377.214C137.894 377.214 137.457 377.491 137.14 378.045C136.822 378.596 136.664 379.369 136.664 380.364C136.664 381.027 136.735 381.592 136.877 382.061C137.021 382.53 137.226 382.887 137.491 383.134C137.759 383.38 138.078 383.503 138.45 383.503ZM142.324 384V383.513L144.7 380.843C145.01 380.493 145.26 380.193 145.449 379.945C145.639 379.696 145.776 379.466 145.861 379.256C145.949 379.045 145.993 378.826 145.993 378.599C145.993 378.322 145.928 378.08 145.797 377.874C145.669 377.666 145.493 377.504 145.268 377.388C145.043 377.272 144.79 377.214 144.508 377.214C144.21 377.214 143.948 377.278 143.723 377.406C143.501 377.533 143.328 377.709 143.205 377.931C143.082 378.154 143.02 378.409 143.02 378.698H142.385C142.385 378.296 142.477 377.939 142.662 377.629C142.849 377.317 143.103 377.072 143.425 376.894C143.749 376.717 144.116 376.628 144.526 376.628C144.931 376.628 145.291 376.715 145.606 376.891C145.92 377.063 146.168 377.299 146.348 377.597C146.528 377.896 146.618 378.229 146.618 378.599C146.618 378.866 146.57 379.125 146.476 379.376C146.383 379.627 146.223 379.907 145.996 380.214C145.769 380.522 145.454 380.899 145.052 381.344L143.248 383.357V383.403H146.845V384H142.324ZM148.098 382.438V381.898L151.34 376.727H151.737V377.633H151.443L148.84 381.795V381.841H153.09V382.438H148.098ZM151.492 384V382.267V382.018V376.727H152.125V384H151.492Z" fill="#CED4DA"/>
<path d="M186.33 372V364.727H190.538V365.324H186.994V368.062H190.208V368.658H186.994V372H186.33ZM192.19 372V364.727H196.408V365.324H192.854V368.062H196.185V368.658H192.854V371.403H196.479V372H192.19ZM198.127 372V364.727H200.581C201.054 364.727 201.449 364.81 201.763 364.976C202.081 365.142 202.319 365.368 202.477 365.654C202.636 365.941 202.715 366.266 202.715 366.631C202.715 366.934 202.664 367.193 202.562 367.408C202.461 367.624 202.322 367.798 202.147 367.93C201.972 368.063 201.776 368.159 201.561 368.218V368.275C201.795 368.291 202.023 368.374 202.243 368.523C202.463 368.67 202.644 368.876 202.786 369.141C202.928 369.406 202.999 369.724 202.999 370.093C202.999 370.46 202.918 370.788 202.754 371.077C202.591 371.363 202.34 371.589 202.001 371.755C201.665 371.918 201.237 372 200.716 372H198.127ZM198.791 371.403H200.716C201.277 371.403 201.691 371.279 201.959 371.031C202.229 370.782 202.364 370.469 202.364 370.093C202.364 369.816 202.296 369.565 202.161 369.34C202.029 369.113 201.84 368.933 201.597 368.8C201.355 368.668 201.071 368.602 200.744 368.602H198.791V371.403ZM198.791 368.012H200.641C200.928 368.012 201.179 367.953 201.394 367.835C201.61 367.716 201.778 367.553 201.898 367.344C202.019 367.136 202.079 366.898 202.079 366.631C202.079 366.245 201.954 365.931 201.703 365.69C201.452 365.446 201.078 365.324 200.581 365.324H198.791V368.012ZM183.088 384V383.513L185.464 380.843C185.774 380.493 186.024 380.193 186.213 379.945C186.402 379.696 186.54 379.466 186.625 379.256C186.713 379.045 186.756 378.826 186.756 378.599C186.756 378.322 186.691 378.08 186.561 377.874C186.433 377.666 186.257 377.504 186.032 377.388C185.807 377.272 185.554 377.214 185.272 377.214C184.974 377.214 184.712 377.278 184.487 377.406C184.265 377.533 184.092 377.709 183.969 377.931C183.846 378.154 183.784 378.409 183.784 378.698H183.148C183.148 378.296 183.241 377.939 183.425 377.629C183.612 377.317 183.867 377.072 184.189 376.894C184.513 376.717 184.88 376.628 185.29 376.628C185.695 376.628 186.054 376.715 186.369 376.891C186.684 377.063 186.931 377.299 187.111 377.597C187.291 377.896 187.381 378.229 187.381 378.599C187.381 378.866 187.334 379.125 187.239 379.376C187.147 379.627 186.987 379.907 186.76 380.214C186.533 380.522 186.218 380.899 185.815 381.344L184.011 383.357V383.403H187.609V384H183.088ZM191.45 384.099C190.939 384.099 190.502 383.953 190.14 383.659C189.78 383.363 189.503 382.936 189.309 382.377C189.117 381.818 189.021 381.147 189.021 380.364C189.021 379.582 189.117 378.914 189.309 378.357C189.503 377.799 189.781 377.371 190.143 377.075C190.508 376.777 190.943 376.628 191.45 376.628C191.957 376.628 192.391 376.777 192.753 377.075C193.118 377.371 193.396 377.799 193.588 378.357C193.782 378.914 193.879 379.582 193.879 380.364C193.879 381.147 193.782 381.818 193.588 382.377C193.396 382.936 193.119 383.363 192.757 383.659C192.397 383.953 191.961 384.099 191.45 384.099ZM191.45 383.503C192.011 383.503 192.449 383.229 192.764 382.683C193.079 382.133 193.236 381.36 193.236 380.364C193.236 379.701 193.164 379.135 193.02 378.666C192.878 378.195 192.673 377.835 192.405 377.587C192.14 377.338 191.822 377.214 191.45 377.214C190.894 377.214 190.457 377.491 190.14 378.045C189.822 378.596 189.664 379.369 189.664 380.364C189.664 381.027 189.735 381.592 189.877 382.061C190.021 382.53 190.226 382.887 190.491 383.134C190.759 383.38 191.078 383.503 191.45 383.503ZM195.324 384V383.513L197.7 380.843C198.01 380.493 198.26 380.193 198.449 379.945C198.639 379.696 198.776 379.466 198.861 379.256C198.949 379.045 198.993 378.826 198.993 378.599C198.993 378.322 198.928 378.08 198.797 377.874C198.669 377.666 198.493 377.504 198.268 377.388C198.043 377.272 197.79 377.214 197.508 377.214C197.21 377.214 196.948 377.278 196.723 377.406C196.501 377.533 196.328 377.709 196.205 377.931C196.082 378.154 196.02 378.409 196.02 378.698H195.385C195.385 378.296 195.477 377.939 195.662 377.629C195.849 377.317 196.103 377.072 196.425 376.894C196.749 376.717 197.116 376.628 197.526 376.628C197.931 376.628 198.291 376.715 198.606 376.891C198.92 377.063 199.168 377.299 199.348 377.597C199.528 377.896 199.618 378.229 199.618 378.599C199.618 378.866 199.57 379.125 199.476 379.376C199.383 379.627 199.223 379.907 198.996 380.214C198.769 380.522 198.454 380.899 198.052 381.344L196.248 383.357V383.403H199.845V384H195.324ZM201.098 382.438V381.898L204.34 376.727H204.737V377.633H204.443L201.84 381.795V381.841H206.09V382.438H201.098ZM204.492 384V382.267V382.018V376.727H205.125V384H204.492Z" fill="#CED4DA"/>
<path d="M237.626 364.727H238.393L241.032 371.062H241.096L243.734 364.727H244.501V372H243.876V366.13H243.819L241.365 372H240.762L238.308 366.13H238.251V372H237.626V364.727ZM246.445 372H245.749L248.395 364.727H249.105L251.751 372H251.055L248.775 365.59H248.725L246.445 372ZM246.946 369.212H250.554V369.809H246.946V369.212ZM252.997 372V364.727H255.344C255.861 364.727 256.291 364.821 256.637 365.008C256.985 365.192 257.247 365.449 257.422 365.778C257.599 366.105 257.688 366.48 257.688 366.904C257.688 367.328 257.599 367.702 257.422 368.026C257.247 368.351 256.986 368.604 256.641 368.786C256.295 368.969 255.866 369.06 255.355 369.06H253.356V368.452H255.337C255.716 368.452 256.031 368.39 256.282 368.264C256.535 368.139 256.723 367.96 256.847 367.728C256.972 367.496 257.035 367.221 257.035 366.904C257.035 366.587 256.972 366.31 256.847 366.073C256.721 365.834 256.532 365.649 256.278 365.519C256.027 365.389 255.71 365.324 255.327 365.324H253.661V372H252.997ZM256.204 368.719L257.994 372H257.227L255.455 368.719H256.204ZM236.088 384V383.513L238.464 380.843C238.774 380.493 239.024 380.193 239.213 379.945C239.402 379.696 239.54 379.466 239.625 379.256C239.713 379.045 239.756 378.826 239.756 378.599C239.756 378.322 239.691 378.08 239.561 377.874C239.433 377.666 239.257 377.504 239.032 377.388C238.807 377.272 238.554 377.214 238.272 377.214C237.974 377.214 237.712 377.278 237.487 377.406C237.265 377.533 237.092 377.709 236.969 377.931C236.846 378.154 236.784 378.409 236.784 378.698H236.148C236.148 378.296 236.241 377.939 236.425 377.629C236.612 377.317 236.867 377.072 237.189 376.894C237.513 376.717 237.88 376.628 238.29 376.628C238.695 376.628 239.054 376.715 239.369 376.891C239.684 377.063 239.931 377.299 240.111 377.597C240.291 377.896 240.381 378.229 240.381 378.599C240.381 378.866 240.334 379.125 240.239 379.376C240.147 379.627 239.987 379.907 239.76 380.214C239.533 380.522 239.218 380.899 238.815 381.344L237.011 383.357V383.403H240.609V384H236.088ZM244.45 384.099C243.939 384.099 243.502 383.953 243.14 383.659C242.78 383.363 242.503 382.936 242.309 382.377C242.117 381.818 242.021 381.147 242.021 380.364C242.021 379.582 242.117 378.914 242.309 378.357C242.503 377.799 242.781 377.371 243.143 377.075C243.508 376.777 243.943 376.628 244.45 376.628C244.957 376.628 245.391 376.777 245.753 377.075C246.118 377.371 246.396 377.799 246.588 378.357C246.782 378.914 246.879 379.582 246.879 380.364C246.879 381.147 246.782 381.818 246.588 382.377C246.396 382.936 246.119 383.363 245.757 383.659C245.397 383.953 244.961 384.099 244.45 384.099ZM244.45 383.503C245.011 383.503 245.449 383.229 245.764 382.683C246.079 382.133 246.236 381.36 246.236 380.364C246.236 379.701 246.164 379.135 246.02 378.666C245.878 378.195 245.673 377.835 245.405 377.587C245.14 377.338 244.822 377.214 244.45 377.214C243.894 377.214 243.457 377.491 243.14 378.045C242.822 378.596 242.664 379.369 242.664 380.364C242.664 381.027 242.735 381.592 242.877 382.061C243.021 382.53 243.226 382.887 243.491 383.134C243.759 383.38 244.078 383.503 244.45 383.503ZM248.324 384V383.513L250.7 380.843C251.01 380.493 251.26 380.193 251.449 379.945C251.639 379.696 251.776 379.466 251.861 379.256C251.949 379.045 251.993 378.826 251.993 378.599C251.993 378.322 251.928 378.08 251.797 377.874C251.669 377.666 251.493 377.504 251.268 377.388C251.043 377.272 250.79 377.214 250.508 377.214C250.21 377.214 249.948 377.278 249.723 377.406C249.501 377.533 249.328 377.709 249.205 377.931C249.082 378.154 249.02 378.409 249.02 378.698H248.385C248.385 378.296 248.477 377.939 248.662 377.629C248.849 377.317 249.103 377.072 249.425 376.894C249.749 376.717 250.116 376.628 250.526 376.628C250.931 376.628 251.291 376.715 251.606 376.891C251.92 377.063 252.168 377.299 252.348 377.597C252.528 377.896 252.618 378.229 252.618 378.599C252.618 378.866 252.57 379.125 252.476 379.376C252.383 379.627 252.223 379.907 251.996 380.214C251.769 380.522 251.454 380.899 251.052 381.344L249.248 383.357V383.403H252.845V384H248.324ZM254.098 382.438V381.898L257.34 376.727H257.737V377.633H257.443L254.84 381.795V381.841H259.09V382.438H254.098ZM257.492 384V382.267V382.018V376.727H258.125V384H257.492Z" fill="#CED4DA"/>
<path d="M291.916 372H291.22L293.866 364.727H294.576L297.221 372H296.525L294.246 365.59H294.196L291.916 372ZM292.417 369.212H296.025V369.809H292.417V369.212ZM298.468 372V364.727H300.815C301.331 364.727 301.762 364.827 302.108 365.026C302.456 365.222 302.717 365.49 302.893 365.828C303.07 366.167 303.159 366.548 303.159 366.972C303.159 367.395 303.071 367.778 302.896 368.119C302.721 368.457 302.461 368.726 302.115 368.925C301.769 369.121 301.34 369.219 300.826 369.219H298.979V368.623H300.808C301.189 368.623 301.505 368.552 301.756 368.41C302.007 368.265 302.194 368.069 302.317 367.82C302.443 367.572 302.506 367.289 302.506 366.972C302.506 366.654 302.443 366.371 302.317 366.123C302.194 365.874 302.006 365.679 301.753 365.537C301.502 365.395 301.183 365.324 300.797 365.324H299.132V372H298.468ZM304.718 372V364.727H307.065C307.581 364.727 308.012 364.821 308.358 365.008C308.706 365.192 308.967 365.449 309.143 365.778C309.32 366.105 309.409 366.48 309.409 366.904C309.409 367.328 309.32 367.702 309.143 368.026C308.967 368.351 308.707 368.604 308.361 368.786C308.016 368.969 307.587 369.06 307.076 369.06H305.077V368.452H307.058C307.437 368.452 307.752 368.39 308.003 368.264C308.256 368.139 308.444 367.96 308.567 367.728C308.693 367.496 308.756 367.221 308.756 366.904C308.756 366.587 308.693 366.31 308.567 366.073C308.442 365.834 308.252 365.649 307.999 365.519C307.748 365.389 307.431 365.324 307.047 365.324H305.382V372H304.718ZM307.925 368.719L309.714 372H308.947L307.175 368.719H307.925ZM289.088 384V383.513L291.464 380.843C291.774 380.493 292.024 380.193 292.213 379.945C292.402 379.696 292.54 379.466 292.625 379.256C292.713 379.045 292.756 378.826 292.756 378.599C292.756 378.322 292.691 378.08 292.561 377.874C292.433 377.666 292.257 377.504 292.032 377.388C291.807 377.272 291.554 377.214 291.272 377.214C290.974 377.214 290.712 377.278 290.487 377.406C290.265 377.533 290.092 377.709 289.969 377.931C289.846 378.154 289.784 378.409 289.784 378.698H289.148C289.148 378.296 289.241 377.939 289.425 377.629C289.612 377.317 289.867 377.072 290.189 376.894C290.513 376.717 290.88 376.628 291.29 376.628C291.695 376.628 292.054 376.715 292.369 376.891C292.684 377.063 292.931 377.299 293.111 377.597C293.291 377.896 293.381 378.229 293.381 378.599C293.381 378.866 293.334 379.125 293.239 379.376C293.147 379.627 292.987 379.907 292.76 380.214C292.533 380.522 292.218 380.899 291.815 381.344L290.011 383.357V383.403H293.609V384H289.088ZM297.45 384.099C296.939 384.099 296.502 383.953 296.14 383.659C295.78 383.363 295.503 382.936 295.309 382.377C295.117 381.818 295.021 381.147 295.021 380.364C295.021 379.582 295.117 378.914 295.309 378.357C295.503 377.799 295.781 377.371 296.143 377.075C296.508 376.777 296.943 376.628 297.45 376.628C297.957 376.628 298.391 376.777 298.753 377.075C299.118 377.371 299.396 377.799 299.588 378.357C299.782 378.914 299.879 379.582 299.879 380.364C299.879 381.147 299.782 381.818 299.588 382.377C299.396 382.936 299.119 383.363 298.757 383.659C298.397 383.953 297.961 384.099 297.45 384.099ZM297.45 383.503C298.011 383.503 298.449 383.229 298.764 382.683C299.079 382.133 299.236 381.36 299.236 380.364C299.236 379.701 299.164 379.135 299.02 378.666C298.878 378.195 298.673 377.835 298.405 377.587C298.14 377.338 297.822 377.214 297.45 377.214C296.894 377.214 296.457 377.491 296.14 378.045C295.822 378.596 295.664 379.369 295.664 380.364C295.664 381.027 295.735 381.592 295.877 382.061C296.021 382.53 296.226 382.887 296.491 383.134C296.759 383.38 297.078 383.503 297.45 383.503ZM301.324 384V383.513L303.7 380.843C304.01 380.493 304.26 380.193 304.449 379.945C304.639 379.696 304.776 379.466 304.861 379.256C304.949 379.045 304.993 378.826 304.993 378.599C304.993 378.322 304.928 378.08 304.797 377.874C304.669 377.666 304.493 377.504 304.268 377.388C304.043 377.272 303.79 377.214 303.508 377.214C303.21 377.214 302.948 377.278 302.723 377.406C302.501 377.533 302.328 377.709 302.205 377.931C302.082 378.154 302.02 378.409 302.02 378.698H301.385C301.385 378.296 301.477 377.939 301.662 377.629C301.849 377.317 302.103 377.072 302.425 376.894C302.749 376.717 303.116 376.628 303.526 376.628C303.931 376.628 304.291 376.715 304.606 376.891C304.92 377.063 305.168 377.299 305.348 377.597C305.528 377.896 305.618 378.229 305.618 378.599C305.618 378.866 305.57 379.125 305.476 379.376C305.383 379.627 305.223 379.907 304.996 380.214C304.769 380.522 304.454 380.899 304.052 381.344L302.248 383.357V383.403H305.845V384H301.324ZM307.098 382.438V381.898L310.34 376.727H310.737V377.633H310.443L307.84 381.795V381.841H312.09V382.438H307.098ZM310.492 384V382.267V382.018V376.727H311.125V384H310.492Z" fill="#CED4DA"/>
<path d="M343.914 364.727H344.681L347.32 371.062H347.384L350.022 364.727H350.789V372H350.164V366.13H350.107L347.653 372H347.05L344.596 366.13H344.539V372H343.914V364.727ZM352.733 372H352.037L354.683 364.727H355.393L358.039 372H357.343L355.063 365.59H355.013L352.733 372ZM353.234 369.212H356.842V369.809H353.234V369.212ZM357.861 364.727H358.628L360.784 368.179H360.848L363.003 364.727H363.77L361.146 368.85V372H360.486V368.85L357.861 364.727ZM342.088 384V383.513L344.464 380.843C344.774 380.493 345.024 380.193 345.213 379.945C345.402 379.696 345.54 379.466 345.625 379.256C345.713 379.045 345.756 378.826 345.756 378.599C345.756 378.322 345.691 378.08 345.561 377.874C345.433 377.666 345.257 377.504 345.032 377.388C344.807 377.272 344.554 377.214 344.272 377.214C343.974 377.214 343.712 377.278 343.487 377.406C343.265 377.533 343.092 377.709 342.969 377.931C342.846 378.154 342.784 378.409 342.784 378.698H342.148C342.148 378.296 342.241 377.939 342.425 377.629C342.612 377.317 342.867 377.072 343.189 376.894C343.513 376.717 343.88 376.628 344.29 376.628C344.695 376.628 345.054 376.715 345.369 376.891C345.684 377.063 345.931 377.299 346.111 377.597C346.291 377.896 346.381 378.229 346.381 378.599C346.381 378.866 346.334 379.125 346.239 379.376C346.147 379.627 345.987 379.907 345.76 380.214C345.533 380.522 345.218 380.899 344.815 381.344L343.011 383.357V383.403H346.609V384H342.088ZM350.45 384.099C349.939 384.099 349.502 383.953 349.14 383.659C348.78 383.363 348.503 382.936 348.309 382.377C348.117 381.818 348.021 381.147 348.021 380.364C348.021 379.582 348.117 378.914 348.309 378.357C348.503 377.799 348.781 377.371 349.143 377.075C349.508 376.777 349.943 376.628 350.45 376.628C350.957 376.628 351.391 376.777 351.753 377.075C352.118 377.371 352.396 377.799 352.588 378.357C352.782 378.914 352.879 379.582 352.879 380.364C352.879 381.147 352.782 381.818 352.588 382.377C352.396 382.936 352.119 383.363 351.757 383.659C351.397 383.953 350.961 384.099 350.45 384.099ZM350.45 383.503C351.011 383.503 351.449 383.229 351.764 382.683C352.079 382.133 352.236 381.36 352.236 380.364C352.236 379.701 352.164 379.135 352.02 378.666C351.878 378.195 351.673 377.835 351.405 377.587C351.14 377.338 350.822 377.214 350.45 377.214C349.894 377.214 349.457 377.491 349.14 378.045C348.822 378.596 348.664 379.369 348.664 380.364C348.664 381.027 348.735 381.592 348.877 382.061C349.021 382.53 349.226 382.887 349.491 383.134C349.759 383.38 350.078 383.503 350.45 383.503ZM354.324 384V383.513L356.7 380.843C357.01 380.493 357.26 380.193 357.449 379.945C357.639 379.696 357.776 379.466 357.861 379.256C357.949 379.045 357.993 378.826 357.993 378.599C357.993 378.322 357.928 378.08 357.797 377.874C357.669 377.666 357.493 377.504 357.268 377.388C357.043 377.272 356.79 377.214 356.508 377.214C356.21 377.214 355.948 377.278 355.723 377.406C355.501 377.533 355.328 377.709 355.205 377.931C355.082 378.154 355.02 378.409 355.02 378.698H354.385C354.385 378.296 354.477 377.939 354.662 377.629C354.849 377.317 355.103 377.072 355.425 376.894C355.749 376.717 356.116 376.628 356.526 376.628C356.931 376.628 357.291 376.715 357.606 376.891C357.92 377.063 358.168 377.299 358.348 377.597C358.528 377.896 358.618 378.229 358.618 378.599C358.618 378.866 358.57 379.125 358.476 379.376C358.383 379.627 358.223 379.907 357.996 380.214C357.769 380.522 357.454 380.899 357.052 381.344L355.248 383.357V383.403H358.845V384H354.324ZM360.098 382.438V381.898L363.34 376.727H363.737V377.633H363.443L360.84 381.795V381.841H365.09V382.438H360.098ZM363.492 384V382.267V382.018V376.727H364.125V384H363.492Z" fill="#CED4DA"/>
<path d="M400.026 364.727H400.69V369.972C400.688 370.446 400.603 370.841 400.435 371.158C400.267 371.473 400.035 371.709 399.739 371.865C399.443 372.021 399.103 372.099 398.719 372.099C398.343 372.099 398.007 372.03 397.711 371.89C397.415 371.75 397.182 371.554 397.011 371.3C396.843 371.047 396.759 370.75 396.759 370.409H397.413C397.413 370.625 397.469 370.815 397.583 370.981C397.697 371.144 397.852 371.272 398.048 371.364C398.247 371.457 398.471 371.503 398.719 371.503C398.978 371.503 399.204 371.448 399.398 371.339C399.594 371.231 399.748 371.064 399.859 370.839C399.971 370.612 400.026 370.323 400.026 369.972V364.727ZM407.469 364.727H408.134V369.543C408.134 370.037 408.018 370.48 407.786 370.871C407.554 371.259 407.23 371.566 406.816 371.79C406.404 372.013 405.925 372.124 405.378 372.124C404.833 372.124 404.354 372.012 403.94 371.787C403.525 371.562 403.202 371.255 402.97 370.867C402.738 370.479 402.622 370.037 402.622 369.543V364.727H403.286V369.496C403.286 369.882 403.373 370.227 403.545 370.53C403.718 370.83 403.961 371.067 404.273 371.24C404.588 371.413 404.956 371.499 405.378 371.499C405.799 371.499 406.167 371.413 406.482 371.24C406.797 371.067 407.04 370.83 407.21 370.53C407.383 370.227 407.469 369.882 407.469 369.496V364.727ZM415.728 364.727V372H415.081L410.784 365.91H410.728V372H410.064V364.727H410.706L415.017 370.825H415.074V364.727H415.728ZM395.088 384V383.513L397.464 380.843C397.774 380.493 398.024 380.193 398.213 379.945C398.402 379.696 398.54 379.466 398.625 379.256C398.713 379.045 398.756 378.826 398.756 378.599C398.756 378.322 398.691 378.08 398.561 377.874C398.433 377.666 398.257 377.504 398.032 377.388C397.807 377.272 397.554 377.214 397.272 377.214C396.974 377.214 396.712 377.278 396.487 377.406C396.265 377.533 396.092 377.709 395.969 377.931C395.846 378.154 395.784 378.409 395.784 378.698H395.148C395.148 378.296 395.241 377.939 395.425 377.629C395.612 377.317 395.867 377.072 396.189 376.894C396.513 376.717 396.88 376.628 397.29 376.628C397.695 376.628 398.054 376.715 398.369 376.891C398.684 377.063 398.931 377.299 399.111 377.597C399.291 377.896 399.381 378.229 399.381 378.599C399.381 378.866 399.334 379.125 399.239 379.376C399.147 379.627 398.987 379.907 398.76 380.214C398.533 380.522 398.218 380.899 397.815 381.344L396.011 383.357V383.403H399.609V384H395.088ZM403.45 384.099C402.939 384.099 402.502 383.953 402.14 383.659C401.78 383.363 401.503 382.936 401.309 382.377C401.117 381.818 401.021 381.147 401.021 380.364C401.021 379.582 401.117 378.914 401.309 378.357C401.503 377.799 401.781 377.371 402.143 377.075C402.508 376.777 402.943 376.628 403.45 376.628C403.957 376.628 404.391 376.777 404.753 377.075C405.118 377.371 405.396 377.799 405.588 378.357C405.782 378.914 405.879 379.582 405.879 380.364C405.879 381.147 405.782 381.818 405.588 382.377C405.396 382.936 405.119 383.363 404.757 383.659C404.397 383.953 403.961 384.099 403.45 384.099ZM403.45 383.503C404.011 383.503 404.449 383.229 404.764 382.683C405.079 382.133 405.236 381.36 405.236 380.364C405.236 379.701 405.164 379.135 405.02 378.666C404.878 378.195 404.673 377.835 404.405 377.587C404.14 377.338 403.822 377.214 403.45 377.214C402.894 377.214 402.457 377.491 402.14 378.045C401.822 378.596 401.664 379.369 401.664 380.364C401.664 381.027 401.735 381.592 401.877 382.061C402.021 382.53 402.226 382.887 402.491 383.134C402.759 383.38 403.078 383.503 403.45 383.503ZM407.324 384V383.513L409.7 380.843C410.01 380.493 410.26 380.193 410.449 379.945C410.639 379.696 410.776 379.466 410.861 379.256C410.949 379.045 410.993 378.826 410.993 378.599C410.993 378.322 410.928 378.08 410.797 377.874C410.669 377.666 410.493 377.504 410.268 377.388C410.043 377.272 409.79 377.214 409.508 377.214C409.21 377.214 408.948 377.278 408.723 377.406C408.501 377.533 408.328 377.709 408.205 377.931C408.082 378.154 408.02 378.409 408.02 378.698H407.385C407.385 378.296 407.477 377.939 407.662 377.629C407.849 377.317 408.103 377.072 408.425 376.894C408.749 376.717 409.116 376.628 409.526 376.628C409.931 376.628 410.291 376.715 410.606 376.891C410.92 377.063 411.168 377.299 411.348 377.597C411.528 377.896 411.618 378.229 411.618 378.599C411.618 378.866 411.57 379.125 411.476 379.376C411.383 379.627 411.223 379.907 410.996 380.214C410.769 380.522 410.454 380.899 410.052 381.344L408.248 383.357V383.403H411.845V384H407.324ZM413.098 382.438V381.898L416.34 376.727H416.737V377.633H416.443L413.84 381.795V381.841H418.09V382.438H413.098ZM416.492 384V382.267V382.018V376.727H417.125V384H416.492Z" fill="#CED4DA"/>
<circle cx="435.5" cy="56.5" r="1.5" fill="#ADB5BD"/>
<circle cx="435.5" cy="65.5" r="1.5" fill="#ADB5BD"/>
<circle cx="435.5" cy="74.5" r="1.5" fill="#ADB5BD"/>
<line x1="101" y1="312.75" x2="414.001" y2="312.75" stroke="#CED4DA" stroke-width="0.5" stroke-dasharray="5 5"/>
<line x1="101" y1="271.75" x2="414.001" y2="271.75" stroke="#CED4DA" stroke-width="0.5" stroke-dasharray="5 5"/>
<line x1="101" y1="230.75" x2="414.001" y2="230.75" stroke="#CED4DA" stroke-width="0.5" stroke-dasharray="5 5"/>
<line x1="101" y1="189.75" x2="414.001" y2="189.75" stroke="#CED4DA" stroke-width="0.5" stroke-dasharray="5 5"/>
<circle cx="139.5" cy="312.5" r="3.5" fill="#2D995F"/>
<circle cx="191.5" cy="271.5" r="3.5" fill="#2D995F"/>
<circle cx="234.5" cy="233.5" r="3.5" fill="#2D995F"/>
<circle cx="297.5" cy="271.5" r="3.5" fill="#2D995F"/>
<circle cx="350.5" cy="190.5" r="3.5" fill="#2D995F"/>
<circle cx="406.5" cy="233.5" r="3.5" fill="#2D995F"/>
<path d="M138.5 313L191 271.5L234.5 233L297.5 271.5L351 191L405.5 233" stroke="#2D995F" stroke-width="2"/>
</g>
<defs>
<filter id="filter0_d_6180_356" x="0" y="0" width="500" height="475" filterUnits="userSpaceOnUse" color-interpolation-filters="sRGB">
<feFlood flood-opacity="0" result="BackgroundImageFix"/>
<feColorMatrix in="SourceAlpha" type="matrix" values="0 0 0 0 0 0 0 0 0 0 0 0 0 0 0 0 0 0 127 0" result="hardAlpha"/>
<feOffset dy="4"/>
<feGaussianBlur stdDeviation="20"/>
<feComposite in2="hardAlpha" operator="out"/>
<feColorMatrix type="matrix" values="0 0 0 0 0.675455 0 0 0 0 0.904545 0 0 0 0 0.781515 0 0 0 0.31 0"/>
<feBlend mode="normal" in2="BackgroundImageFix" result="effect1_dropShadow_6180_356"/>
<feBlend mode="normal" in="SourceGraphic" in2="effect1_dropShadow_6180_356" result="shape"/>
</filter>
</defs>
</svg>
