<svg width="500" height="475" viewBox="0 0 500 475" fill="none" xmlns="http://www.w3.org/2000/svg">
<g filter="url(#filter0_d_6180_444)">
<rect x="40.5" y="36.5" width="419" height="394" rx="7.5" stroke="#2D995F" shape-rendering="crispEdges"/>
<path d="M69.233 75V64.8182H72.6733C73.4721 64.8182 74.125 64.9624 74.6321 65.2507C75.1425 65.5357 75.5204 65.9219 75.7656 66.4091C76.0109 66.8963 76.1335 67.4399 76.1335 68.0398C76.1335 68.6397 76.0109 69.1849 75.7656 69.6754C75.5237 70.166 75.1491 70.5571 74.642 70.8487C74.1349 71.1371 73.4853 71.2812 72.6932 71.2812H70.2273V70.1875H72.6534C73.2003 70.1875 73.6394 70.093 73.9709 69.9041C74.3023 69.7152 74.5426 69.46 74.6918 69.1385C74.8442 68.8137 74.9205 68.4474 74.9205 68.0398C74.9205 67.6321 74.8442 67.2675 74.6918 66.946C74.5426 66.6245 74.3007 66.3726 73.9659 66.1903C73.6312 66.0047 73.187 65.9119 72.6335 65.9119H70.4659V75H69.233ZM78.1197 75V64.8182H81.56C82.3555 64.8182 83.0084 64.9541 83.5188 65.2259C84.0292 65.4943 84.4071 65.8639 84.6523 66.3345C84.8976 66.8052 85.0202 67.3404 85.0202 67.9403C85.0202 68.5402 84.8976 69.0722 84.6523 69.5362C84.4071 70.0002 84.0309 70.3648 83.5238 70.63C83.0167 70.8918 82.3687 71.0227 81.5799 71.0227H78.7958V69.9091H81.5401C82.0837 69.9091 82.5212 69.8295 82.8526 69.6705C83.1874 69.5114 83.4293 69.286 83.5785 68.9943C83.7309 68.6993 83.8072 68.348 83.8072 67.9403C83.8072 67.5327 83.7309 67.1764 83.5785 66.8714C83.426 66.5665 83.1824 66.3312 82.8477 66.1655C82.5129 65.9964 82.0704 65.9119 81.5202 65.9119H79.3526V75H78.1197ZM82.9123 70.4261L85.418 75H83.9862L81.5202 70.4261H82.9123ZM95.6657 69.9091C95.6657 70.983 95.4718 71.911 95.084 72.6932C94.6962 73.4754 94.1642 74.0786 93.4881 74.5028C92.812 74.9271 92.0397 75.1392 91.1713 75.1392C90.303 75.1392 89.5307 74.9271 88.8546 74.5028C88.1784 74.0786 87.6465 73.4754 87.2587 72.6932C86.8709 71.911 86.677 70.983 86.677 69.9091C86.677 68.8352 86.8709 67.9072 87.2587 67.125C87.6465 66.3428 88.1784 65.7396 88.8546 65.3153C89.5307 64.8911 90.303 64.679 91.1713 64.679C92.0397 64.679 92.812 64.8911 93.4881 65.3153C94.1642 65.7396 94.6962 66.3428 95.084 67.125C95.4718 67.9072 95.6657 68.8352 95.6657 69.9091ZM94.4725 69.9091C94.4725 69.0275 94.325 68.2834 94.03 67.6768C93.7383 67.0703 93.3423 66.6113 92.8418 66.2997C92.3446 65.9882 91.7878 65.8324 91.1713 65.8324C90.5549 65.8324 89.9964 65.9882 89.4959 66.2997C88.9988 66.6113 88.6027 67.0703 88.3077 67.6768C88.016 68.2834 87.8702 69.0275 87.8702 69.9091C87.8702 70.7907 88.016 71.5348 88.3077 72.1413C88.6027 72.7479 88.9988 73.2069 89.4959 73.5185C89.9964 73.83 90.5549 73.9858 91.1713 73.9858C91.7878 73.9858 92.3446 73.83 92.8418 73.5185C93.3423 73.2069 93.7383 72.7479 94.03 72.1413C94.325 71.5348 94.4725 70.7907 94.4725 69.9091ZM97.7388 75V64.8182H103.844V65.9119H98.9718V69.3523H103.387V70.446H98.9718V75H97.7388ZM107.189 64.8182V75H105.956V64.8182H107.189ZM109.104 65.9119V64.8182H116.74V65.9119H113.539V75H112.306V65.9119H109.104ZM122.998 75H121.706L125.444 64.8182H126.717L130.456 75H129.163L126.12 66.429H126.041L122.998 75ZM123.475 71.0227H128.686V72.1165H123.475V71.0227ZM140.115 64.8182V75H138.922L133.374 67.0057H133.275V75H132.042V64.8182H133.235L138.803 72.8324H138.902V64.8182H140.115ZM145.725 75H142.583V64.8182H145.864C146.852 64.8182 147.697 65.022 148.399 65.4297C149.102 65.834 149.641 66.4157 150.015 67.1747C150.39 67.9304 150.577 68.8352 150.577 69.8892C150.577 70.9498 150.388 71.8629 150.01 72.6286C149.632 73.3909 149.082 73.9775 148.36 74.3885C147.637 74.7962 146.759 75 145.725 75ZM143.816 73.9062H145.645C146.487 73.9062 147.185 73.7438 147.738 73.419C148.292 73.0942 148.704 72.6319 148.976 72.032C149.248 71.4321 149.384 70.7178 149.384 69.8892C149.384 69.0672 149.249 68.3596 148.981 67.7663C148.713 67.1697 148.311 66.7124 147.778 66.3942C147.244 66.0727 146.58 65.9119 145.784 65.9119H143.816V73.9062ZM156.583 75V64.8182H157.816V73.9062H162.548V75H156.583ZM172.652 69.9091C172.652 70.983 172.458 71.911 172.07 72.6932C171.683 73.4754 171.151 74.0786 170.474 74.5028C169.798 74.9271 169.026 75.1392 168.158 75.1392C167.289 75.1392 166.517 74.9271 165.841 74.5028C165.165 74.0786 164.633 73.4754 164.245 72.6932C163.857 71.911 163.663 70.983 163.663 69.9091C163.663 68.8352 163.857 67.9072 164.245 67.125C164.633 66.3428 165.165 65.7396 165.841 65.3153C166.517 64.8911 167.289 64.679 168.158 64.679C169.026 64.679 169.798 64.8911 170.474 65.3153C171.151 65.7396 171.683 66.3428 172.07 67.125C172.458 67.9072 172.652 68.8352 172.652 69.9091ZM171.459 69.9091C171.459 69.0275 171.311 68.2834 171.016 67.6768C170.725 67.0703 170.329 66.6113 169.828 66.2997C169.331 65.9882 168.774 65.8324 168.158 65.8324C167.541 65.8324 166.983 65.9882 166.482 66.2997C165.985 66.6113 165.589 67.0703 165.294 67.6768C165.002 68.2834 164.857 69.0275 164.857 69.9091C164.857 70.7907 165.002 71.5348 165.294 72.1413C165.589 72.7479 165.985 73.2069 166.482 73.5185C166.983 73.83 167.541 73.9858 168.158 73.9858C168.774 73.9858 169.331 73.83 169.828 73.5185C170.329 73.2069 170.725 72.7479 171.016 72.1413C171.311 71.5348 171.459 70.7907 171.459 69.9091ZM180.293 67.3636C180.234 66.8598 179.992 66.4688 179.567 66.1903C179.143 65.9119 178.623 65.7727 178.006 65.7727C177.556 65.7727 177.161 65.8456 176.823 65.9915C176.488 66.1373 176.227 66.3378 176.038 66.593C175.852 66.8482 175.759 67.1383 175.759 67.4631C175.759 67.7348 175.824 67.9685 175.953 68.1641C176.086 68.3563 176.255 68.517 176.46 68.6463C176.666 68.7723 176.881 68.8767 177.107 68.9595C177.332 69.0391 177.539 69.1037 177.728 69.1534L178.762 69.4318C179.027 69.5014 179.322 69.5975 179.647 69.7202C179.975 69.8428 180.288 70.0102 180.587 70.2223C180.888 70.4311 181.137 70.6996 181.332 71.0277C181.528 71.3558 181.626 71.7585 181.626 72.2358C181.626 72.786 181.482 73.2831 181.193 73.7273C180.908 74.1714 180.491 74.5244 179.94 74.7862C179.393 75.0481 178.729 75.179 177.947 75.179C177.218 75.179 176.586 75.0613 176.053 74.826C175.522 74.5907 175.105 74.2625 174.8 73.8416C174.498 73.4207 174.327 72.9318 174.288 72.375H175.56C175.594 72.7595 175.723 73.0777 175.948 73.3295C176.177 73.5781 176.465 73.7637 176.813 73.8864C177.165 74.0057 177.542 74.0653 177.947 74.0653C178.417 74.0653 178.84 73.9891 179.214 73.8366C179.589 73.6809 179.886 73.4654 180.104 73.1903C180.323 72.9119 180.433 72.5871 180.433 72.2159C180.433 71.8778 180.338 71.6027 180.149 71.3906C179.96 71.1785 179.712 71.0062 179.403 70.8736C179.095 70.741 178.762 70.625 178.404 70.5256L177.151 70.1676C176.356 69.9389 175.726 69.6125 175.262 69.1882C174.798 68.764 174.566 68.2088 174.566 67.5227C174.566 66.9527 174.72 66.4555 175.028 66.0312C175.34 65.6037 175.758 65.2723 176.281 65.0369C176.808 64.7983 177.397 64.679 178.046 64.679C178.702 64.679 179.286 64.7966 179.796 65.032C180.307 65.264 180.711 65.5821 181.009 65.9865C181.311 66.3909 181.47 66.8499 181.487 67.3636H180.293ZM189.221 67.3636C189.161 66.8598 188.919 66.4688 188.495 66.1903C188.071 65.9119 187.551 65.7727 186.934 65.7727C186.483 65.7727 186.089 65.8456 185.751 65.9915C185.416 66.1373 185.154 66.3378 184.965 66.593C184.78 66.8482 184.687 67.1383 184.687 67.4631C184.687 67.7348 184.752 67.9685 184.881 68.1641C185.013 68.3563 185.182 68.517 185.388 68.6463C185.593 68.7723 185.809 68.8767 186.034 68.9595C186.26 69.0391 186.467 69.1037 186.656 69.1534L187.69 69.4318C187.955 69.5014 188.25 69.5975 188.575 69.7202C188.903 69.8428 189.216 70.0102 189.514 70.2223C189.816 70.4311 190.065 70.6996 190.26 71.0277C190.456 71.3558 190.553 71.7585 190.553 72.2358C190.553 72.786 190.409 73.2831 190.121 73.7273C189.836 74.1714 189.418 74.5244 188.868 74.7862C188.321 75.0481 187.657 75.179 186.874 75.179C186.145 75.179 185.514 75.0613 184.98 74.826C184.45 74.5907 184.032 74.2625 183.727 73.8416C183.426 73.4207 183.255 72.9318 183.215 72.375H184.488C184.521 72.7595 184.651 73.0777 184.876 73.3295C185.105 73.5781 185.393 73.7637 185.741 73.8864C186.092 74.0057 186.47 74.0653 186.874 74.0653C187.345 74.0653 187.768 73.9891 188.142 73.8366C188.517 73.6809 188.813 73.4654 189.032 73.1903C189.251 72.9119 189.36 72.5871 189.36 72.2159C189.36 71.8778 189.266 71.6027 189.077 71.3906C188.888 71.1785 188.639 71.0062 188.331 70.8736C188.023 70.741 187.69 70.625 187.332 70.5256L186.079 70.1676C185.284 69.9389 184.654 69.6125 184.19 69.1882C183.726 68.764 183.494 68.2088 183.494 67.5227C183.494 66.9527 183.648 66.4555 183.956 66.0312C184.268 65.6037 184.685 65.2723 185.209 65.0369C185.736 64.7983 186.324 64.679 186.974 64.679C187.63 64.679 188.213 64.7966 188.724 65.032C189.234 65.264 189.639 65.5821 189.937 65.9865C190.239 66.3909 190.398 66.8499 190.414 67.3636H189.221Z" fill="#343A40"/>
<path d="M75.9773 139.273V148H74.9545L70.1989 141.148H70.1136V148H69.0568V139.273H70.0795L74.8523 146.142H74.9375V139.273H75.9773ZM80.6999 148.136C80.0692 148.136 79.5252 147.997 79.0678 147.719C78.6133 147.438 78.2624 147.045 78.0153 146.543C77.771 146.037 77.6488 145.449 77.6488 144.778C77.6488 144.108 77.771 143.517 78.0153 143.006C78.2624 142.491 78.6062 142.091 79.0465 141.804C79.4897 141.514 80.0067 141.369 80.5977 141.369C80.9386 141.369 81.2752 141.426 81.6076 141.54C81.94 141.653 82.2425 141.838 82.5153 142.094C82.788 142.347 83.0053 142.682 83.1673 143.099C83.3292 143.517 83.4102 144.031 83.4102 144.642V145.068H78.3647V144.199H82.3874C82.3874 143.83 82.3136 143.5 82.1658 143.21C82.021 142.92 81.8136 142.692 81.5437 142.524C81.2766 142.357 80.9613 142.273 80.5977 142.273C80.1971 142.273 79.8505 142.372 79.5579 142.571C79.2681 142.767 79.0451 143.023 78.8888 143.338C78.7326 143.653 78.6545 143.991 78.6545 144.352V144.932C78.6545 145.426 78.7397 145.845 78.9102 146.189C79.0835 146.53 79.3235 146.79 79.6303 146.969C79.9371 147.145 80.2937 147.233 80.6999 147.233C80.9641 147.233 81.2028 147.196 81.4158 147.122C81.6317 147.045 81.8178 146.932 81.9741 146.781C82.1303 146.628 82.2511 146.437 82.3363 146.21L83.3079 146.483C83.2056 146.812 83.0337 147.102 82.7923 147.352C82.5508 147.599 82.2525 147.793 81.8974 147.932C81.5423 148.068 81.1431 148.136 80.6999 148.136ZM87.7866 141.455V142.307H84.3945V141.455H87.7866ZM85.3832 139.886H86.3888V146.125C86.3888 146.409 86.43 146.622 86.5124 146.764C86.5977 146.903 86.7056 146.997 86.8363 147.045C86.9698 147.091 87.1104 147.114 87.2582 147.114C87.369 147.114 87.4599 147.108 87.5309 147.097C87.6019 147.082 87.6587 147.071 87.7013 147.062L87.9059 147.966C87.8377 147.991 87.7425 148.017 87.6204 148.043C87.4982 148.071 87.3434 148.085 87.1559 148.085C86.8718 148.085 86.5934 148.024 86.3207 147.902C86.0508 147.78 85.8263 147.594 85.6474 147.344C85.4712 147.094 85.3832 146.778 85.3832 146.398V139.886ZM93.8675 139.273V148H92.8107V139.273H93.8675ZM96.8558 144.062V148H95.8501V141.455H96.8217V142.477H96.907C97.0604 142.145 97.2933 141.878 97.6058 141.676C97.9183 141.472 98.3217 141.369 98.8161 141.369C99.2592 141.369 99.647 141.46 99.9794 141.642C100.312 141.821 100.57 142.094 100.755 142.46C100.94 142.824 101.032 143.284 101.032 143.841V148H100.026V143.909C100.026 143.395 99.8928 142.994 99.6257 142.707C99.3587 142.418 98.9922 142.273 98.5263 142.273C98.2053 142.273 97.9183 142.342 97.6655 142.482C97.4155 142.621 97.218 142.824 97.0732 143.091C96.9283 143.358 96.8558 143.682 96.8558 144.062ZM105.529 148.136C104.915 148.136 104.387 147.991 103.944 147.702C103.5 147.412 103.159 147.013 102.921 146.504C102.682 145.996 102.563 145.415 102.563 144.761C102.563 144.097 102.685 143.51 102.929 143.001C103.176 142.49 103.52 142.091 103.961 141.804C104.404 141.514 104.921 141.369 105.512 141.369C105.972 141.369 106.387 141.455 106.756 141.625C107.125 141.795 107.428 142.034 107.664 142.341C107.9 142.648 108.046 143.006 108.103 143.415H107.097C107.02 143.116 106.85 142.852 106.586 142.622C106.324 142.389 105.972 142.273 105.529 142.273C105.137 142.273 104.793 142.375 104.498 142.58C104.205 142.781 103.976 143.067 103.811 143.436C103.65 143.803 103.569 144.233 103.569 144.727C103.569 145.233 103.648 145.673 103.807 146.048C103.969 146.423 104.196 146.714 104.489 146.922C104.784 147.129 105.131 147.233 105.529 147.233C105.79 147.233 106.027 147.188 106.24 147.097C106.453 147.006 106.634 146.875 106.782 146.705C106.929 146.534 107.034 146.33 107.097 146.091H108.103C108.046 146.477 107.905 146.825 107.681 147.135C107.459 147.442 107.165 147.686 106.799 147.868C106.435 148.047 106.012 148.136 105.529 148.136ZM112.232 148.136C111.641 148.136 111.123 147.996 110.676 147.714C110.233 147.433 109.887 147.04 109.637 146.534C109.39 146.028 109.266 145.437 109.266 144.761C109.266 144.08 109.39 143.484 109.637 142.976C109.887 142.467 110.233 142.072 110.676 141.791C111.123 141.51 111.641 141.369 112.232 141.369C112.823 141.369 113.34 141.51 113.783 141.791C114.229 142.072 114.576 142.467 114.823 142.976C115.073 143.484 115.198 144.08 115.198 144.761C115.198 145.437 115.073 146.028 114.823 146.534C114.576 147.04 114.229 147.433 113.783 147.714C113.34 147.996 112.823 148.136 112.232 148.136ZM112.232 147.233C112.681 147.233 113.05 147.118 113.34 146.888C113.63 146.658 113.844 146.355 113.983 145.98C114.123 145.605 114.192 145.199 114.192 144.761C114.192 144.324 114.123 143.916 113.983 143.538C113.844 143.161 113.63 142.855 113.34 142.622C113.05 142.389 112.681 142.273 112.232 142.273C111.783 142.273 111.414 142.389 111.124 142.622C110.834 142.855 110.62 143.161 110.48 143.538C110.341 143.916 110.272 144.324 110.272 144.761C110.272 145.199 110.341 145.605 110.48 145.98C110.62 146.355 110.834 146.658 111.124 146.888C111.414 147.118 111.783 147.233 112.232 147.233ZM116.733 148V141.455H117.705V142.477H117.79C117.926 142.128 118.146 141.857 118.45 141.663C118.754 141.467 119.119 141.369 119.545 141.369C119.977 141.369 120.337 141.467 120.624 141.663C120.913 141.857 121.139 142.128 121.301 142.477H121.369C121.537 142.139 121.788 141.871 122.124 141.672C122.459 141.47 122.861 141.369 123.33 141.369C123.915 141.369 124.393 141.553 124.766 141.919C125.138 142.283 125.324 142.849 125.324 143.619V148H124.318V143.619C124.318 143.136 124.186 142.791 123.922 142.584C123.658 142.376 123.347 142.273 122.989 142.273C122.528 142.273 122.172 142.412 121.919 142.69C121.666 142.966 121.54 143.315 121.54 143.739V148H120.517V143.517C120.517 143.145 120.396 142.845 120.155 142.618C119.913 142.388 119.602 142.273 119.222 142.273C118.96 142.273 118.716 142.342 118.489 142.482C118.264 142.621 118.082 142.814 117.943 143.061C117.807 143.305 117.739 143.588 117.739 143.909V148H116.733ZM129.907 148.136C129.276 148.136 128.732 147.997 128.275 147.719C127.82 147.438 127.469 147.045 127.222 146.543C126.978 146.037 126.856 145.449 126.856 144.778C126.856 144.108 126.978 143.517 127.222 143.006C127.469 142.491 127.813 142.091 128.254 141.804C128.697 141.514 129.214 141.369 129.805 141.369C130.146 141.369 130.482 141.426 130.815 141.54C131.147 141.653 131.45 141.838 131.722 142.094C131.995 142.347 132.212 142.682 132.374 143.099C132.536 143.517 132.617 144.031 132.617 144.642V145.068H127.572V144.199H131.594C131.594 143.83 131.521 143.5 131.373 143.21C131.228 142.92 131.021 142.692 130.751 142.524C130.484 142.357 130.168 142.273 129.805 142.273C129.404 142.273 129.058 142.372 128.765 142.571C128.475 142.767 128.252 143.023 128.096 143.338C127.94 143.653 127.862 143.991 127.862 144.352V144.932C127.862 145.426 127.947 145.845 128.117 146.189C128.29 146.53 128.531 146.79 128.837 146.969C129.144 147.145 129.501 147.233 129.907 147.233C130.171 147.233 130.41 147.196 130.623 147.122C130.839 147.045 131.025 146.932 131.181 146.781C131.337 146.628 131.458 146.437 131.543 146.21L132.515 146.483C132.413 146.812 132.241 147.102 131.999 147.352C131.758 147.599 131.46 147.793 131.104 147.932C130.749 148.068 130.35 148.136 129.907 148.136ZM140.437 141.455V142.307H136.908V141.455H140.437ZM137.965 148V140.551C137.965 140.176 138.053 139.864 138.229 139.614C138.406 139.364 138.634 139.176 138.915 139.051C139.197 138.926 139.494 138.864 139.806 138.864C140.053 138.864 140.255 138.884 140.411 138.923C140.567 138.963 140.684 139 140.761 139.034L140.471 139.903C140.42 139.886 140.349 139.865 140.258 139.839C140.17 139.814 140.053 139.801 139.908 139.801C139.576 139.801 139.336 139.885 139.188 140.053C139.043 140.22 138.971 140.466 138.971 140.79V148H137.965ZM144.236 148.136C143.645 148.136 143.126 147.996 142.68 147.714C142.237 147.433 141.891 147.04 141.641 146.534C141.393 146.028 141.27 145.437 141.27 144.761C141.27 144.08 141.393 143.484 141.641 142.976C141.891 142.467 142.237 142.072 142.68 141.791C143.126 141.51 143.645 141.369 144.236 141.369C144.827 141.369 145.344 141.51 145.787 141.791C146.233 142.072 146.58 142.467 146.827 142.976C147.077 143.484 147.202 144.08 147.202 144.761C147.202 145.437 147.077 146.028 146.827 146.534C146.58 147.04 146.233 147.433 145.787 147.714C145.344 147.996 144.827 148.136 144.236 148.136ZM144.236 147.233C144.685 147.233 145.054 147.118 145.344 146.888C145.634 146.658 145.848 146.355 145.987 145.98C146.126 145.605 146.196 145.199 146.196 144.761C146.196 144.324 146.126 143.916 145.987 143.538C145.848 143.161 145.634 142.855 145.344 142.622C145.054 142.389 144.685 142.273 144.236 142.273C143.787 142.273 143.418 142.389 143.128 142.622C142.838 142.855 142.624 143.161 142.484 143.538C142.345 143.916 142.276 144.324 142.276 144.761C142.276 145.199 142.345 145.605 142.484 145.98C142.624 146.355 142.838 146.658 143.128 146.888C143.418 147.118 143.787 147.233 144.236 147.233ZM148.737 148V141.455H149.708V142.443H149.777C149.896 142.119 150.112 141.857 150.424 141.655C150.737 141.453 151.089 141.352 151.481 141.352C151.555 141.352 151.647 141.354 151.758 141.357C151.869 141.359 151.953 141.364 152.01 141.369V142.392C151.975 142.384 151.897 142.371 151.775 142.354C151.656 142.334 151.529 142.324 151.396 142.324C151.078 142.324 150.794 142.391 150.544 142.524C150.297 142.655 150.1 142.837 149.956 143.07C149.814 143.3 149.743 143.562 149.743 143.858V148H148.737ZM157.071 148H155.963L159.168 139.273H160.259L163.463 148H162.355L159.747 140.653H159.679L157.071 148ZM157.48 144.591H161.946V145.528H157.48V144.591ZM164.686 150.455V141.455H165.658V142.494H165.777C165.851 142.381 165.953 142.236 166.084 142.06C166.217 141.881 166.408 141.722 166.655 141.582C166.905 141.44 167.243 141.369 167.669 141.369C168.22 141.369 168.706 141.507 169.126 141.783C169.547 142.058 169.875 142.449 170.111 142.955C170.347 143.46 170.464 144.057 170.464 144.744C170.464 145.438 170.347 146.038 170.111 146.547C169.875 147.053 169.548 147.445 169.131 147.723C168.713 147.999 168.232 148.136 167.686 148.136C167.266 148.136 166.929 148.067 166.676 147.928C166.423 147.786 166.229 147.625 166.092 147.446C165.956 147.264 165.851 147.114 165.777 146.994H165.692V150.455H164.686ZM165.675 144.727C165.675 145.222 165.747 145.658 165.892 146.036C166.037 146.411 166.249 146.705 166.527 146.918C166.805 147.128 167.146 147.233 167.55 147.233C167.97 147.233 168.321 147.122 168.602 146.901C168.886 146.676 169.099 146.375 169.241 145.997C169.386 145.616 169.459 145.193 169.459 144.727C169.459 144.267 169.388 143.852 169.246 143.483C169.107 143.111 168.895 142.817 168.611 142.601C168.33 142.382 167.976 142.273 167.55 142.273C167.141 142.273 166.797 142.376 166.518 142.584C166.24 142.788 166.03 143.075 165.888 143.445C165.746 143.811 165.675 144.239 165.675 144.727ZM171.999 148V141.455H172.97V142.443H173.038C173.158 142.119 173.374 141.857 173.686 141.655C173.999 141.453 174.351 141.352 174.743 141.352C174.817 141.352 174.909 141.354 175.02 141.357C175.131 141.359 175.214 141.364 175.271 141.369V142.392C175.237 142.384 175.159 142.371 175.037 142.354C174.918 142.334 174.791 142.324 174.658 142.324C174.339 142.324 174.055 142.391 173.805 142.524C173.558 142.655 173.362 142.837 173.217 143.07C173.075 143.3 173.004 143.562 173.004 143.858V148H171.999ZM176.463 148V141.455H177.469V148H176.463ZM176.975 140.364C176.779 140.364 176.61 140.297 176.468 140.163C176.328 140.03 176.259 139.869 176.259 139.682C176.259 139.494 176.328 139.334 176.468 139.2C176.61 139.067 176.779 139 176.975 139C177.171 139 177.338 139.067 177.478 139.2C177.62 139.334 177.691 139.494 177.691 139.682C177.691 139.869 177.62 140.03 177.478 140.163C177.338 140.297 177.171 140.364 176.975 140.364ZM180.317 139.273V148H179.311V139.273H180.317Z" fill="#343A40"/>
<path d="M70.1136 203.273V212H69.0568V203.273H70.1136ZM73.1019 208.062V212H72.0962V205.455H73.0678V206.477H73.1531C73.3065 206.145 73.5394 205.878 73.8519 205.676C74.1644 205.472 74.5678 205.369 75.0621 205.369C75.5053 205.369 75.8931 205.46 76.2255 205.642C76.5579 205.821 76.8164 206.094 77.0011 206.46C77.1857 206.824 77.2781 207.284 77.2781 207.841V212H76.2724V207.909C76.2724 207.395 76.1388 206.994 75.8718 206.707C75.6048 206.418 75.2383 206.273 74.7724 206.273C74.4513 206.273 74.1644 206.342 73.9116 206.482C73.6616 206.621 73.4641 206.824 73.3192 207.091C73.1744 207.358 73.1019 207.682 73.1019 208.062ZM81.7749 212.136C81.1612 212.136 80.6328 211.991 80.1896 211.702C79.7464 211.412 79.4055 211.013 79.1669 210.504C78.9283 209.996 78.8089 209.415 78.8089 208.761C78.8089 208.097 78.9311 207.51 79.1754 207.001C79.4226 206.49 79.7663 206.091 80.2067 205.804C80.6499 205.514 81.1669 205.369 81.7578 205.369C82.218 205.369 82.6328 205.455 83.0021 205.625C83.3714 205.795 83.674 206.034 83.9098 206.341C84.1456 206.648 84.2919 207.006 84.3487 207.415H83.343C83.2663 207.116 83.0959 206.852 82.8317 206.622C82.5703 206.389 82.218 206.273 81.7749 206.273C81.3828 206.273 81.0391 206.375 80.7436 206.58C80.451 206.781 80.2223 207.067 80.0575 207.436C79.8956 207.803 79.8146 208.233 79.8146 208.727C79.8146 209.233 79.8942 209.673 80.0533 210.048C80.2152 210.423 80.4425 210.714 80.7351 210.922C81.0305 211.129 81.3771 211.233 81.7749 211.233C82.0362 211.233 82.2734 211.188 82.4865 211.097C82.6996 211.006 82.88 210.875 83.0277 210.705C83.1754 210.534 83.2805 210.33 83.343 210.091H84.3487C84.2919 210.477 84.1513 210.825 83.9268 211.135C83.7053 211.442 83.4112 211.686 83.0447 211.868C82.6811 212.047 82.2578 212.136 81.7749 212.136ZM88.478 212.136C87.8871 212.136 87.3686 211.996 86.9226 211.714C86.4794 211.433 86.1328 211.04 85.8828 210.534C85.6357 210.028 85.5121 209.437 85.5121 208.761C85.5121 208.08 85.6357 207.484 85.8828 206.976C86.1328 206.467 86.4794 206.072 86.9226 205.791C87.3686 205.51 87.8871 205.369 88.478 205.369C89.0689 205.369 89.5859 205.51 90.0291 205.791C90.4751 206.072 90.8217 206.467 91.0689 206.976C91.3189 207.484 91.4439 208.08 91.4439 208.761C91.4439 209.437 91.3189 210.028 91.0689 210.534C90.8217 211.04 90.4751 211.433 90.0291 211.714C89.5859 211.996 89.0689 212.136 88.478 212.136ZM88.478 211.233C88.9268 211.233 89.2962 211.118 89.5859 210.888C89.8757 210.658 90.0902 210.355 90.2294 209.98C90.3686 209.605 90.4382 209.199 90.4382 208.761C90.4382 208.324 90.3686 207.916 90.2294 207.538C90.0902 207.161 89.8757 206.855 89.5859 206.622C89.2962 206.389 88.9268 206.273 88.478 206.273C88.0291 206.273 87.6598 206.389 87.37 206.622C87.0803 206.855 86.8658 207.161 86.7266 207.538C86.5874 207.916 86.5178 208.324 86.5178 208.761C86.5178 209.199 86.5874 209.605 86.7266 209.98C86.8658 210.355 87.0803 210.658 87.37 210.888C87.6598 211.118 88.0291 211.233 88.478 211.233ZM92.979 212V205.455H93.9506V206.477H94.0359C94.1722 206.128 94.3924 205.857 94.6964 205.663C95.0004 205.467 95.3654 205.369 95.7915 205.369C96.2234 205.369 96.5827 205.467 96.8697 205.663C97.1594 205.857 97.3853 206.128 97.5472 206.477H97.6154C97.783 206.139 98.0344 205.871 98.3697 205.672C98.7049 205.47 99.1069 205.369 99.5756 205.369C100.161 205.369 100.64 205.553 101.012 205.919C101.384 206.283 101.57 206.849 101.57 207.619V212H100.564V207.619C100.564 207.136 100.432 206.791 100.168 206.584C99.9038 206.376 99.5927 206.273 99.2347 206.273C98.7745 206.273 98.418 206.412 98.1651 206.69C97.9123 206.966 97.7859 207.315 97.7859 207.739V212H96.7631V207.517C96.7631 207.145 96.6424 206.845 96.4009 206.618C96.1594 206.388 95.8484 206.273 95.4677 206.273C95.2063 206.273 94.962 206.342 94.7347 206.482C94.5103 206.621 94.3285 206.814 94.1893 207.061C94.0529 207.305 93.9847 207.588 93.9847 207.909V212H92.979ZM106.153 212.136C105.522 212.136 104.978 211.997 104.521 211.719C104.066 211.438 103.716 211.045 103.468 210.543C103.224 210.037 103.102 209.449 103.102 208.778C103.102 208.108 103.224 207.517 103.468 207.006C103.716 206.491 104.059 206.091 104.5 205.804C104.943 205.514 105.46 205.369 106.051 205.369C106.392 205.369 106.728 205.426 107.061 205.54C107.393 205.653 107.696 205.838 107.968 206.094C108.241 206.347 108.458 206.682 108.62 207.099C108.782 207.517 108.863 208.031 108.863 208.642V209.068H103.818V208.199H107.841C107.841 207.83 107.767 207.5 107.619 207.21C107.474 206.92 107.267 206.692 106.997 206.524C106.73 206.357 106.414 206.273 106.051 206.273C105.65 206.273 105.304 206.372 105.011 206.571C104.721 206.767 104.498 207.023 104.342 207.338C104.186 207.653 104.108 207.991 104.108 208.352V208.932C104.108 209.426 104.193 209.845 104.363 210.189C104.537 210.53 104.777 210.79 105.083 210.969C105.39 211.145 105.747 211.233 106.153 211.233C106.417 211.233 106.656 211.196 106.869 211.122C107.085 211.045 107.271 210.932 107.427 210.781C107.583 210.628 107.704 210.437 107.789 210.21L108.761 210.483C108.659 210.812 108.487 211.102 108.245 211.352C108.004 211.599 107.706 211.793 107.35 211.932C106.995 212.068 106.596 212.136 106.153 212.136Z" fill="#6C757D"/>
<path d="M69.0568 318V309.273H74.3239V310.21H70.1136V313.159H74.0511V314.097H70.1136V317.062H74.392V318H69.0568ZM76.8423 311.455L78.4105 314.131L79.9787 311.455H81.1378L79.0241 314.727L81.1378 318H79.9787L78.4105 315.46L76.8423 318H75.6832L77.7628 314.727L75.6832 311.455H76.8423ZM82.5728 320.455V311.455H83.5444V312.494H83.6637C83.7376 312.381 83.8398 312.236 83.9705 312.06C84.104 311.881 84.2944 311.722 84.5415 311.582C84.7915 311.44 85.1296 311.369 85.5558 311.369C86.1069 311.369 86.5927 311.507 87.0131 311.783C87.4336 312.058 87.7617 312.449 87.9975 312.955C88.2333 313.46 88.3512 314.057 88.3512 314.744C88.3512 315.438 88.2333 316.038 87.9975 316.547C87.7617 317.053 87.435 317.445 87.0174 317.723C86.5998 317.999 86.1183 318.136 85.5728 318.136C85.1523 318.136 84.8157 318.067 84.5629 317.928C84.31 317.786 84.1154 317.625 83.979 317.446C83.8427 317.264 83.7376 317.114 83.6637 316.994H83.5785V320.455H82.5728ZM83.5614 314.727C83.5614 315.222 83.6339 315.658 83.7788 316.036C83.9237 316.411 84.1353 316.705 84.4137 316.918C84.6921 317.128 85.033 317.233 85.4364 317.233C85.8569 317.233 86.2077 317.122 86.489 316.901C86.7731 316.676 86.9862 316.375 87.1282 315.997C87.2731 315.616 87.3455 315.193 87.3455 314.727C87.3455 314.267 87.2745 313.852 87.1325 313.483C86.9933 313.111 86.7816 312.817 86.4975 312.601C86.2163 312.382 85.8626 312.273 85.4364 312.273C85.0273 312.273 84.6836 312.376 84.4052 312.584C84.1268 312.788 83.9165 313.075 83.7745 313.445C83.6325 313.811 83.5614 314.239 83.5614 314.727ZM92.6296 318.136C91.9989 318.136 91.4549 317.997 90.9975 317.719C90.543 317.438 90.1921 317.045 89.945 316.543C89.7006 316.037 89.5785 315.449 89.5785 314.778C89.5785 314.108 89.7006 313.517 89.945 313.006C90.1921 312.491 90.5359 312.091 90.9762 311.804C91.4194 311.514 91.9364 311.369 92.5273 311.369C92.8683 311.369 93.2049 311.426 93.5373 311.54C93.8697 311.653 94.1722 311.838 94.445 312.094C94.7177 312.347 94.935 312.682 95.0969 313.099C95.2589 313.517 95.3398 314.031 95.3398 314.642V315.068H90.2944V314.199H94.3171C94.3171 313.83 94.2433 313.5 94.0955 313.21C93.9506 312.92 93.7433 312.692 93.4734 312.524C93.2063 312.357 92.891 312.273 92.5273 312.273C92.1268 312.273 91.7802 312.372 91.4876 312.571C91.1978 312.767 90.9748 313.023 90.8185 313.338C90.6623 313.653 90.5842 313.991 90.5842 314.352V314.932C90.5842 315.426 90.6694 315.845 90.8398 316.189C91.0131 316.53 91.2532 316.79 91.56 316.969C91.8668 317.145 92.2234 317.233 92.6296 317.233C92.8938 317.233 93.1325 317.196 93.3455 317.122C93.5614 317.045 93.7475 316.932 93.9038 316.781C94.06 316.628 94.1808 316.437 94.266 316.21L95.2376 316.483C95.1353 316.812 94.9634 317.102 94.7219 317.352C94.4805 317.599 94.1822 317.793 93.8271 317.932C93.4719 318.068 93.0728 318.136 92.6296 318.136ZM97.8754 314.062V318H96.8697V311.455H97.8413V312.477H97.9265C98.0799 312.145 98.3129 311.878 98.6254 311.676C98.9379 311.472 99.3413 311.369 99.8356 311.369C100.279 311.369 100.667 311.46 100.999 311.642C101.331 311.821 101.59 312.094 101.775 312.46C101.959 312.824 102.051 313.284 102.051 313.841V318H101.046V313.909C101.046 313.395 100.912 312.994 100.645 312.707C100.378 312.418 100.012 312.273 99.5458 312.273C99.2248 312.273 98.9379 312.342 98.685 312.482C98.435 312.621 98.2376 312.824 98.0927 313.091C97.9478 313.358 97.8754 313.682 97.8754 314.062ZM108.526 312.92L107.622 313.176C107.565 313.026 107.482 312.879 107.371 312.737C107.263 312.592 107.115 312.473 106.928 312.379C106.74 312.286 106.5 312.239 106.207 312.239C105.807 312.239 105.473 312.331 105.206 312.516C104.942 312.697 104.81 312.929 104.81 313.21C104.81 313.46 104.901 313.658 105.082 313.803C105.264 313.947 105.548 314.068 105.935 314.165L106.906 314.403C107.491 314.545 107.928 314.763 108.214 315.055C108.501 315.345 108.645 315.719 108.645 316.176C108.645 316.551 108.537 316.886 108.321 317.182C108.108 317.477 107.81 317.71 107.426 317.881C107.043 318.051 106.597 318.136 106.088 318.136C105.42 318.136 104.868 317.991 104.43 317.702C103.993 317.412 103.716 316.989 103.599 316.432L104.554 316.193C104.645 316.545 104.817 316.81 105.07 316.986C105.325 317.162 105.659 317.25 106.071 317.25C106.54 317.25 106.912 317.151 107.188 316.952C107.466 316.75 107.605 316.509 107.605 316.227C107.605 316 107.526 315.81 107.366 315.656C107.207 315.5 106.963 315.384 106.634 315.307L105.543 315.051C104.943 314.909 104.503 314.689 104.222 314.391C103.943 314.089 103.804 313.713 103.804 313.261C103.804 312.892 103.908 312.565 104.115 312.281C104.325 311.997 104.611 311.774 104.972 311.612C105.335 311.45 105.747 311.369 106.207 311.369C106.855 311.369 107.364 311.511 107.733 311.795C108.105 312.08 108.369 312.455 108.526 312.92ZM112.903 318.136C112.272 318.136 111.728 317.997 111.271 317.719C110.816 317.438 110.466 317.045 110.218 316.543C109.974 316.037 109.852 315.449 109.852 314.778C109.852 314.108 109.974 313.517 110.218 313.006C110.466 312.491 110.809 312.091 111.25 311.804C111.693 311.514 112.21 311.369 112.801 311.369C113.142 311.369 113.478 311.426 113.811 311.54C114.143 311.653 114.446 311.838 114.718 312.094C114.991 312.347 115.208 312.682 115.37 313.099C115.532 313.517 115.613 314.031 115.613 314.642V315.068H110.568V314.199H114.591C114.591 313.83 114.517 313.5 114.369 313.21C114.224 312.92 114.017 312.692 113.747 312.524C113.48 312.357 113.164 312.273 112.801 312.273C112.4 312.273 112.054 312.372 111.761 312.571C111.471 312.767 111.248 313.023 111.092 313.338C110.936 313.653 110.858 313.991 110.858 314.352V314.932C110.858 315.426 110.943 315.845 111.113 316.189C111.287 316.53 111.527 316.79 111.833 316.969C112.14 317.145 112.497 317.233 112.903 317.233C113.167 317.233 113.406 317.196 113.619 317.122C113.835 317.045 114.021 316.932 114.177 316.781C114.333 316.628 114.454 316.437 114.539 316.21L115.511 316.483C115.409 316.812 115.237 317.102 114.995 317.352C114.754 317.599 114.456 317.793 114.1 317.932C113.745 318.068 113.346 318.136 112.903 318.136ZM121.779 312.92L120.876 313.176C120.819 313.026 120.735 312.879 120.625 312.737C120.517 312.592 120.369 312.473 120.181 312.379C119.994 312.286 119.754 312.239 119.461 312.239C119.061 312.239 118.727 312.331 118.46 312.516C118.196 312.697 118.064 312.929 118.064 313.21C118.064 313.46 118.154 313.658 118.336 313.803C118.518 313.947 118.802 314.068 119.189 314.165L120.16 314.403C120.745 314.545 121.181 314.763 121.468 315.055C121.755 315.345 121.899 315.719 121.899 316.176C121.899 316.551 121.791 316.886 121.575 317.182C121.362 317.477 121.064 317.71 120.68 317.881C120.297 318.051 119.85 318.136 119.342 318.136C118.674 318.136 118.122 317.991 117.684 317.702C117.247 317.412 116.97 316.989 116.853 316.432L117.808 316.193C117.899 316.545 118.071 316.81 118.324 316.986C118.579 317.162 118.913 317.25 119.325 317.25C119.794 317.25 120.166 317.151 120.441 316.952C120.72 316.75 120.859 316.509 120.859 316.227C120.859 316 120.779 315.81 120.62 315.656C120.461 315.5 120.217 315.384 119.887 315.307L118.797 315.051C118.197 314.909 117.757 314.689 117.475 314.391C117.197 314.089 117.058 313.713 117.058 313.261C117.058 312.892 117.162 312.565 117.369 312.281C117.579 311.997 117.865 311.774 118.225 311.612C118.589 311.45 119.001 311.369 119.461 311.369C120.109 311.369 120.618 311.511 120.987 311.795C121.359 312.08 121.623 312.455 121.779 312.92Z" fill="#6C757D"/>
<path d="M86.8026 103.636V124H83.0838L74.2244 111.183H74.0753V124H69.7699V103.636H73.5483L82.3381 116.443H82.517V103.636H86.8026ZM91.0458 124L99.4876 107.295V107.156H89.6538V103.636H103.942V107.206L95.4904 124H91.0458ZM114.079 124.278C112.548 124.278 111.186 124.03 109.993 123.533C108.806 123.029 107.875 122.343 107.199 121.474C106.522 120.606 106.184 119.622 106.184 118.521C106.184 117.673 106.377 116.894 106.761 116.185C107.152 115.469 107.682 114.875 108.352 114.405C109.021 113.928 109.77 113.623 110.599 113.49V113.351C109.512 113.132 108.63 112.605 107.954 111.77C107.278 110.928 106.94 109.95 106.94 108.837C106.94 107.783 107.248 106.845 107.865 106.023C108.481 105.194 109.326 104.545 110.4 104.074C111.481 103.597 112.707 103.358 114.079 103.358C115.451 103.358 116.674 103.597 117.748 104.074C118.829 104.551 119.677 105.204 120.294 106.033C120.91 106.855 121.222 107.789 121.228 108.837C121.222 109.957 120.877 110.935 120.194 111.77C119.511 112.605 118.636 113.132 117.569 113.351V113.49C118.385 113.623 119.124 113.928 119.787 114.405C120.456 114.875 120.986 115.469 121.377 116.185C121.775 116.894 121.977 117.673 121.984 118.521C121.977 119.622 121.636 120.606 120.96 121.474C120.284 122.343 119.349 123.029 118.156 123.533C116.969 124.03 115.61 124.278 114.079 124.278ZM114.079 121.116C114.762 121.116 115.359 120.994 115.869 120.749C116.379 120.497 116.777 120.152 117.062 119.714C117.354 119.27 117.5 118.76 117.5 118.183C117.5 117.593 117.35 117.073 117.052 116.622C116.754 116.165 116.35 115.807 115.839 115.548C115.329 115.283 114.742 115.151 114.079 115.151C113.423 115.151 112.836 115.283 112.319 115.548C111.802 115.807 111.395 116.165 111.096 116.622C110.805 117.073 110.659 117.593 110.659 118.183C110.659 118.76 110.801 119.27 111.086 119.714C111.371 120.152 111.772 120.497 112.289 120.749C112.806 120.994 113.403 121.116 114.079 121.116ZM114.079 112.018C114.649 112.018 115.156 111.902 115.6 111.67C116.045 111.438 116.393 111.117 116.645 110.706C116.896 110.295 117.022 109.821 117.022 109.284C117.022 108.754 116.896 108.29 116.645 107.892C116.393 107.488 116.048 107.173 115.61 106.947C115.173 106.715 114.663 106.599 114.079 106.599C113.502 106.599 112.992 106.715 112.548 106.947C112.104 107.173 111.756 107.488 111.504 107.892C111.259 108.29 111.136 108.754 111.136 109.284C111.136 109.821 111.262 110.295 111.514 110.706C111.766 111.117 112.114 111.438 112.558 111.67C113.002 111.902 113.509 112.018 114.079 112.018ZM129.064 121.216L128.954 122.31C128.868 123.185 128.702 124.056 128.457 124.925C128.218 125.8 127.967 126.592 127.701 127.301C127.443 128.01 127.234 128.567 127.075 128.972H124.331C124.43 128.58 124.566 128.034 124.738 127.331C124.911 126.635 125.073 125.853 125.225 124.984C125.378 124.116 125.474 123.231 125.514 122.33L125.564 121.216H129.064ZM140.061 124.447C138.35 124.441 136.879 124.02 135.646 123.185C134.42 122.349 133.475 121.14 132.812 119.555C132.156 117.971 131.831 116.065 131.838 113.838C131.838 111.617 132.166 109.725 132.822 108.161C133.485 106.596 134.43 105.406 135.656 104.591C136.889 103.769 138.357 103.358 140.061 103.358C141.764 103.358 143.229 103.769 144.456 104.591C145.689 105.413 146.636 106.606 147.299 108.17C147.962 109.728 148.29 111.617 148.284 113.838C148.284 116.072 147.952 117.981 147.289 119.565C146.633 121.15 145.692 122.359 144.466 123.195C143.239 124.03 141.771 124.447 140.061 124.447ZM140.061 120.878C141.227 120.878 142.159 120.291 142.855 119.118C143.551 117.945 143.895 116.185 143.889 113.838C143.889 112.294 143.73 111.008 143.412 109.98C143.1 108.953 142.656 108.18 142.079 107.663C141.509 107.146 140.836 106.888 140.061 106.888C138.901 106.888 137.973 107.468 137.277 108.628C136.581 109.788 136.229 111.525 136.223 113.838C136.223 115.402 136.378 116.708 136.69 117.756C137.008 118.796 137.456 119.579 138.032 120.102C138.609 120.619 139.285 120.878 140.061 120.878ZM159.338 124.447C157.628 124.441 156.156 124.02 154.923 123.185C153.697 122.349 152.752 121.14 152.089 119.555C151.433 117.971 151.108 116.065 151.115 113.838C151.115 111.617 151.443 109.725 152.099 108.161C152.762 106.596 153.707 105.406 154.933 104.591C156.166 103.769 157.634 103.358 159.338 103.358C161.042 103.358 162.507 103.769 163.733 104.591C164.966 105.413 165.914 106.606 166.577 108.17C167.24 109.728 167.568 111.617 167.561 113.838C167.561 116.072 167.23 117.981 166.567 119.565C165.911 121.15 164.969 122.359 163.743 123.195C162.517 124.03 161.048 124.447 159.338 124.447ZM159.338 120.878C160.505 120.878 161.436 120.291 162.132 119.118C162.828 117.945 163.173 116.185 163.166 113.838C163.166 112.294 163.007 111.008 162.689 109.98C162.377 108.953 161.933 108.18 161.357 107.663C160.786 107.146 160.114 106.888 159.338 106.888C158.178 106.888 157.25 107.468 156.554 108.628C155.858 109.788 155.507 111.525 155.5 113.838C155.5 115.402 155.656 116.708 155.967 117.756C156.286 118.796 156.733 119.579 157.31 120.102C157.886 120.619 158.562 120.878 159.338 120.878ZM178.615 124.447C176.905 124.441 175.434 124.02 174.201 123.185C172.974 122.349 172.03 121.14 171.367 119.555C170.711 117.971 170.386 116.065 170.392 113.838C170.392 111.617 170.721 109.725 171.377 108.161C172.04 106.596 172.984 105.406 174.211 104.591C175.444 103.769 176.912 103.358 178.615 103.358C180.319 103.358 181.784 103.769 183.01 104.591C184.243 105.413 185.191 106.606 185.854 108.17C186.517 109.728 186.845 111.617 186.838 113.838C186.838 116.072 186.507 117.981 185.844 119.565C185.188 121.15 184.247 122.359 183.02 123.195C181.794 124.03 180.326 124.447 178.615 124.447ZM178.615 120.878C179.782 120.878 180.713 120.291 181.409 119.118C182.105 117.945 182.45 116.185 182.444 113.838C182.444 112.294 182.284 111.008 181.966 109.98C181.655 108.953 181.211 108.18 180.634 107.663C180.064 107.146 179.391 106.888 178.615 106.888C177.455 106.888 176.527 107.468 175.831 108.628C175.135 109.788 174.784 111.525 174.777 113.838C174.777 115.402 174.933 116.708 175.245 117.756C175.563 118.796 176.01 119.579 176.587 120.102C177.164 120.619 177.84 120.878 178.615 120.878ZM193.732 121.216L193.622 122.31C193.536 123.185 193.37 124.056 193.125 124.925C192.886 125.8 192.634 126.592 192.369 127.301C192.111 128.01 191.902 128.567 191.743 128.972H188.999C189.098 128.58 189.234 128.034 189.406 127.331C189.579 126.635 189.741 125.853 189.893 124.984C190.046 124.116 190.142 123.231 190.182 122.33L190.232 121.216H193.732ZM204.838 124.278C203.433 124.278 202.18 124.02 201.08 123.503C199.986 122.986 199.117 122.273 198.474 121.365C197.831 120.457 197.497 119.416 197.47 118.243H201.646C201.693 119.032 202.024 119.671 202.641 120.162C203.257 120.652 203.99 120.898 204.838 120.898C205.514 120.898 206.111 120.749 206.628 120.45C207.152 120.145 207.559 119.724 207.851 119.188C208.149 118.644 208.298 118.021 208.298 117.318C208.298 116.602 208.146 115.973 207.841 115.429C207.543 114.885 207.128 114.461 206.598 114.156C206.068 113.851 205.461 113.696 204.778 113.689C204.182 113.689 203.602 113.812 203.038 114.057C202.482 114.302 202.047 114.637 201.736 115.061L197.908 114.375L198.872 103.636H211.321V107.156H202.422L201.895 112.257H202.014C202.372 111.753 202.912 111.336 203.635 111.004C204.357 110.673 205.166 110.507 206.061 110.507C207.287 110.507 208.381 110.795 209.342 111.372C210.304 111.949 211.062 112.741 211.619 113.749C212.176 114.75 212.451 115.903 212.445 117.209C212.451 118.581 212.133 119.801 211.49 120.868C210.854 121.929 209.962 122.764 208.815 123.374C207.675 123.977 206.349 124.278 204.838 124.278ZM223.432 124.447C221.722 124.441 220.25 124.02 219.017 123.185C217.791 122.349 216.846 121.14 216.183 119.555C215.527 117.971 215.202 116.065 215.209 113.838C215.209 111.617 215.537 109.725 216.193 108.161C216.856 106.596 217.801 105.406 219.027 104.591C220.26 103.769 221.728 103.358 223.432 103.358C225.135 103.358 226.6 103.769 227.827 104.591C229.06 105.413 230.008 106.606 230.67 108.17C231.333 109.728 231.661 111.617 231.655 113.838C231.655 116.072 231.323 117.981 230.661 119.565C230.004 121.15 229.063 122.359 227.837 123.195C226.61 124.03 225.142 124.447 223.432 124.447ZM223.432 120.878C224.598 120.878 225.53 120.291 226.226 119.118C226.922 117.945 227.267 116.185 227.26 113.838C227.26 112.294 227.101 111.008 226.783 109.98C226.471 108.953 226.027 108.18 225.45 107.663C224.88 107.146 224.207 106.888 223.432 106.888C222.272 106.888 221.344 107.468 220.648 108.628C219.952 109.788 219.6 111.525 219.594 113.838C219.594 115.402 219.75 116.708 220.061 117.756C220.379 118.796 220.827 119.579 221.403 120.102C221.98 120.619 222.656 120.878 223.432 120.878ZM242.709 124.447C240.999 124.441 239.527 124.02 238.294 123.185C237.068 122.349 236.123 121.14 235.461 119.555C234.804 117.971 234.48 116.065 234.486 113.838C234.486 111.617 234.814 109.725 235.471 108.161C236.133 106.596 237.078 105.406 238.304 104.591C239.537 103.769 241.006 103.358 242.709 103.358C244.413 103.358 245.878 103.769 247.104 104.591C248.337 105.413 249.285 106.606 249.948 108.17C250.611 109.728 250.939 111.617 250.932 113.838C250.932 116.072 250.601 117.981 249.938 119.565C249.282 121.15 248.34 122.359 247.114 123.195C245.888 124.03 244.419 124.447 242.709 124.447ZM242.709 120.878C243.876 120.878 244.807 120.291 245.503 119.118C246.199 117.945 246.544 116.185 246.537 113.838C246.537 112.294 246.378 111.008 246.06 109.98C245.748 108.953 245.304 108.18 244.728 107.663C244.158 107.146 243.485 106.888 242.709 106.888C241.549 106.888 240.621 107.468 239.925 108.628C239.229 109.788 238.878 111.525 238.871 113.838C238.871 115.402 239.027 116.708 239.338 117.756C239.657 118.796 240.104 119.579 240.681 120.102C241.257 120.619 241.934 120.878 242.709 120.878ZM255.697 124.259C255.041 124.259 254.478 124.027 254.007 123.562C253.543 123.092 253.311 122.528 253.311 121.872C253.311 121.223 253.543 120.666 254.007 120.202C254.478 119.738 255.041 119.506 255.697 119.506C256.334 119.506 256.891 119.738 257.368 120.202C257.845 120.666 258.084 121.223 258.084 121.872C258.084 122.31 257.971 122.711 257.746 123.075C257.527 123.433 257.239 123.722 256.881 123.94C256.523 124.152 256.128 124.259 255.697 124.259ZM268.686 124.447C266.975 124.441 265.504 124.02 264.271 123.185C263.045 122.349 262.1 121.14 261.437 119.555C260.781 117.971 260.456 116.065 260.463 113.838C260.463 111.617 260.791 109.725 261.447 108.161C262.11 106.596 263.055 105.406 264.281 104.591C265.514 103.769 266.982 103.358 268.686 103.358C270.389 103.358 271.854 103.769 273.081 104.591C274.314 105.413 275.261 106.606 275.924 108.17C276.587 109.728 276.915 111.617 276.909 113.838C276.909 116.072 276.577 117.981 275.914 119.565C275.258 121.15 274.317 122.359 273.091 123.195C271.864 124.03 270.396 124.447 268.686 124.447ZM268.686 120.878C269.852 120.878 270.784 120.291 271.48 119.118C272.176 117.945 272.52 116.185 272.514 113.838C272.514 112.294 272.355 111.008 272.037 109.98C271.725 108.953 271.281 108.18 270.704 107.663C270.134 107.146 269.461 106.888 268.686 106.888C267.526 106.888 266.598 107.468 265.902 108.628C265.206 109.788 264.854 111.525 264.848 113.838C264.848 115.402 265.003 116.708 265.315 117.756C265.633 118.796 266.081 119.579 266.657 120.102C267.234 120.619 267.91 120.878 268.686 120.878ZM287.963 124.447C286.253 124.441 284.781 124.02 283.548 123.185C282.322 122.349 281.377 121.14 280.714 119.555C280.058 117.971 279.733 116.065 279.74 113.838C279.74 111.617 280.068 109.725 280.724 108.161C281.387 106.596 282.332 105.406 283.558 104.591C284.791 103.769 286.259 103.358 287.963 103.358C289.667 103.358 291.132 103.769 292.358 104.591C293.591 105.413 294.539 106.606 295.202 108.17C295.865 109.728 296.193 111.617 296.186 113.838C296.186 116.072 295.855 117.981 295.192 119.565C294.536 121.15 293.594 122.359 292.368 123.195C291.142 124.03 289.673 124.447 287.963 124.447ZM287.963 120.878C289.13 120.878 290.061 120.291 290.757 119.118C291.453 117.945 291.798 116.185 291.791 113.838C291.791 112.294 291.632 111.008 291.314 109.98C291.002 108.953 290.558 108.18 289.982 107.663C289.411 107.146 288.739 106.888 287.963 106.888C286.803 106.888 285.875 107.468 285.179 108.628C284.483 109.788 284.132 111.525 284.125 113.838C284.125 115.402 284.281 116.708 284.592 117.756C284.911 118.796 285.358 119.579 285.935 120.102C286.511 120.619 287.188 120.878 287.963 120.878Z" fill="#2D995F"/>
<circle cx="435.5" cy="56.5" r="1.5" fill="#ADB5BD"/>
<circle cx="435.5" cy="65.5" r="1.5" fill="#ADB5BD"/>
<circle cx="435.5" cy="74.5" r="1.5" fill="#ADB5BD"/>
<path d="M80.0874 220.909V234H77.6967L72.0014 225.761H71.9055V234H69.1378V220.909H71.5668L77.2173 229.142H77.3324V220.909H80.0874ZM82.0993 231.699V229.519L87.5645 220.909H89.4437V223.926H88.3315L84.8862 229.379V229.481H92.6525V231.699H82.0993ZM88.3826 234V231.034L88.4338 230.069V220.909H91.0289V234H88.3826ZM99.6294 234.288C98.53 234.283 97.584 234.013 96.7914 233.476C96.003 232.939 95.3958 232.161 94.9696 231.143C94.5478 230.124 94.339 228.899 94.3432 227.467C94.3432 226.04 94.5542 224.823 94.976 223.817C95.4022 222.812 96.0094 222.047 96.7978 221.523C97.5904 220.994 98.5343 220.73 99.6294 220.73C100.725 220.73 101.666 220.994 102.455 221.523C103.247 222.051 103.857 222.818 104.283 223.824C104.709 224.825 104.92 226.04 104.916 227.467C104.916 228.903 104.703 230.131 104.276 231.149C103.855 232.168 103.249 232.945 102.461 233.482C101.673 234.019 100.729 234.288 99.6294 234.288ZM99.6294 231.993C100.379 231.993 100.978 231.616 101.426 230.862C101.873 230.107 102.095 228.976 102.09 227.467C102.09 226.474 101.988 225.648 101.784 224.987C101.583 224.327 101.298 223.83 100.927 223.498C100.561 223.165 100.128 222.999 99.6294 222.999C98.8837 222.999 98.2871 223.372 97.8397 224.118C97.3922 224.864 97.1664 225.98 97.1621 227.467C97.1621 228.473 97.2623 229.312 97.4625 229.986C97.6671 230.655 97.9547 231.158 98.3255 231.494C98.6962 231.827 99.1309 231.993 99.6294 231.993ZM109.347 232.21L109.277 232.913C109.221 233.476 109.115 234.036 108.957 234.594C108.804 235.157 108.642 235.666 108.471 236.122C108.305 236.578 108.171 236.936 108.069 237.196H106.304C106.368 236.945 106.456 236.593 106.566 236.141C106.677 235.694 106.782 235.191 106.88 234.633C106.978 234.075 107.039 233.506 107.065 232.926L107.097 232.21H109.347ZM116.417 234.288C115.317 234.283 114.371 234.013 113.578 233.476C112.79 232.939 112.183 232.161 111.757 231.143C111.335 230.124 111.126 228.899 111.13 227.467C111.13 226.04 111.341 224.823 111.763 223.817C112.189 222.812 112.797 222.047 113.585 221.523C114.377 220.994 115.321 220.73 116.417 220.73C117.512 220.73 118.453 220.994 119.242 221.523C120.034 222.051 120.644 222.818 121.07 223.824C121.496 224.825 121.707 226.04 121.703 227.467C121.703 228.903 121.49 230.131 121.064 231.149C120.642 232.168 120.037 232.945 119.248 233.482C118.46 234.019 117.516 234.288 116.417 234.288ZM116.417 231.993C117.167 231.993 117.765 231.616 118.213 230.862C118.66 230.107 118.882 228.976 118.877 227.467C118.877 226.474 118.775 225.648 118.571 224.987C118.37 224.327 118.085 223.83 117.714 223.498C117.348 223.165 116.915 222.999 116.417 222.999C115.671 222.999 115.074 223.372 114.627 224.118C114.179 224.864 113.953 225.98 113.949 227.467C113.949 228.473 114.049 229.312 114.25 229.986C114.454 230.655 114.742 231.158 115.113 231.494C115.483 231.827 115.918 231.993 116.417 231.993ZM128.809 234.288C127.71 234.283 126.764 234.013 125.971 233.476C125.183 232.939 124.575 232.161 124.149 231.143C123.727 230.124 123.519 228.899 123.523 227.467C123.523 226.04 123.734 224.823 124.156 223.817C124.582 222.812 125.189 222.047 125.977 221.523C126.77 220.994 127.714 220.73 128.809 220.73C129.904 220.73 130.846 220.994 131.634 221.523C132.427 222.051 133.036 222.818 133.463 223.824C133.889 224.825 134.1 226.04 134.095 227.467C134.095 228.903 133.882 230.131 133.456 231.149C133.034 232.168 132.429 232.945 131.641 233.482C130.852 234.019 129.909 234.288 128.809 234.288ZM128.809 231.993C129.559 231.993 130.158 231.616 130.605 230.862C131.053 230.107 131.274 228.976 131.27 227.467C131.27 226.474 131.168 225.648 130.963 224.987C130.763 224.327 130.477 223.83 130.107 223.498C129.74 223.165 129.308 222.999 128.809 222.999C128.063 222.999 127.467 223.372 127.019 224.118C126.572 224.864 126.346 225.98 126.342 227.467C126.342 228.473 126.442 229.312 126.642 229.986C126.847 230.655 127.134 231.158 127.505 231.494C127.876 231.827 128.311 231.993 128.809 231.993ZM141.202 234.288C140.102 234.283 139.156 234.013 138.364 233.476C137.575 232.939 136.968 232.161 136.542 231.143C136.12 230.124 135.911 228.899 135.915 227.467C135.915 226.04 136.126 224.823 136.548 223.817C136.974 222.812 137.582 222.047 138.37 221.523C139.163 220.994 140.107 220.73 141.202 220.73C142.297 220.73 143.239 220.994 144.027 221.523C144.82 222.051 145.429 222.818 145.855 223.824C146.281 224.825 146.492 226.04 146.488 227.467C146.488 228.903 146.275 230.131 145.849 231.149C145.427 232.168 144.822 232.945 144.033 233.482C143.245 234.019 142.301 234.288 141.202 234.288ZM141.202 231.993C141.952 231.993 142.55 231.616 142.998 230.862C143.445 230.107 143.667 228.976 143.663 227.467C143.663 226.474 143.56 225.648 143.356 224.987C143.156 224.327 142.87 223.83 142.499 223.498C142.133 223.165 141.7 222.999 141.202 222.999C140.456 222.999 139.859 223.372 139.412 224.118C138.964 224.864 138.739 225.98 138.734 227.467C138.734 228.473 138.835 229.312 139.035 229.986C139.239 230.655 139.527 231.158 139.898 231.494C140.268 231.827 140.703 231.993 141.202 231.993ZM150.919 232.21L150.849 232.913C150.794 233.476 150.687 234.036 150.529 234.594C150.376 235.157 150.214 235.666 150.044 236.122C149.877 236.578 149.743 236.936 149.641 237.196H147.877C147.941 236.945 148.028 236.593 148.139 236.141C148.249 235.694 148.354 235.191 148.452 234.633C148.55 234.075 148.612 233.506 148.637 232.926L148.669 232.21H150.919ZM158.059 234.179C157.156 234.179 156.35 234.013 155.643 233.68C154.94 233.348 154.382 232.89 153.968 232.306C153.555 231.722 153.34 231.053 153.323 230.299H156.007C156.037 230.806 156.25 231.217 156.646 231.533C157.043 231.848 157.514 232.006 158.059 232.006C158.494 232.006 158.877 231.91 159.21 231.718C159.546 231.522 159.808 231.251 159.996 230.906C160.188 230.557 160.284 230.156 160.284 229.705C160.284 229.244 160.186 228.839 159.99 228.49C159.798 228.141 159.531 227.868 159.191 227.672C158.85 227.476 158.46 227.376 158.021 227.371C157.637 227.371 157.264 227.45 156.902 227.608C156.544 227.766 156.265 227.981 156.065 228.254L153.604 227.812L154.224 220.909H162.227V223.172H156.506L156.167 226.451H156.244C156.474 226.127 156.821 225.859 157.286 225.646C157.75 225.433 158.27 225.326 158.845 225.326C159.634 225.326 160.337 225.511 160.955 225.882C161.573 226.253 162.061 226.762 162.419 227.41C162.776 228.053 162.953 228.795 162.949 229.634C162.953 230.516 162.749 231.3 162.335 231.987C161.926 232.668 161.353 233.205 160.616 233.597C159.883 233.985 159.031 234.179 158.059 234.179ZM170.012 234.288C168.913 234.283 167.967 234.013 167.174 233.476C166.386 232.939 165.779 232.161 165.352 231.143C164.931 230.124 164.722 228.899 164.726 227.467C164.726 226.04 164.937 224.823 165.359 223.817C165.785 222.812 166.392 222.047 167.181 221.523C167.973 220.994 168.917 220.73 170.012 220.73C171.107 220.73 172.049 220.994 172.838 221.523C173.63 222.051 174.24 222.818 174.666 223.824C175.092 224.825 175.303 226.04 175.298 227.467C175.298 228.903 175.085 230.131 174.659 231.149C174.237 232.168 173.632 232.945 172.844 233.482C172.056 234.019 171.112 234.288 170.012 234.288ZM170.012 231.993C170.762 231.993 171.361 231.616 171.808 230.862C172.256 230.107 172.477 228.976 172.473 227.467C172.473 226.474 172.371 225.648 172.166 224.987C171.966 224.327 171.681 223.83 171.31 223.498C170.943 223.165 170.511 222.999 170.012 222.999C169.267 222.999 168.67 223.372 168.222 224.118C167.775 224.864 167.549 225.98 167.545 227.467C167.545 228.473 167.645 229.312 167.845 229.986C168.05 230.655 168.338 231.158 168.708 231.494C169.079 231.827 169.514 231.993 170.012 231.993ZM182.405 234.288C181.305 234.283 180.359 234.013 179.567 233.476C178.778 232.939 178.171 232.161 177.745 231.143C177.323 230.124 177.114 228.899 177.119 227.467C177.119 226.04 177.33 224.823 177.751 223.817C178.178 222.812 178.785 222.047 179.573 221.523C180.366 220.994 181.31 220.73 182.405 220.73C183.5 220.73 184.442 220.994 185.23 221.523C186.023 222.051 186.632 222.818 187.058 223.824C187.484 224.825 187.695 226.04 187.691 227.467C187.691 228.903 187.478 230.131 187.052 231.149C186.63 232.168 186.025 232.945 185.237 233.482C184.448 234.019 183.504 234.288 182.405 234.288ZM182.405 231.993C183.155 231.993 183.754 231.616 184.201 230.862C184.648 230.107 184.87 228.976 184.866 227.467C184.866 226.474 184.763 225.648 184.559 224.987C184.359 224.327 184.073 223.83 183.702 223.498C183.336 223.165 182.903 222.999 182.405 222.999C181.659 222.999 181.063 223.372 180.615 224.118C180.168 224.864 179.942 225.98 179.938 227.467C179.938 228.473 180.038 229.312 180.238 229.986C180.442 230.655 180.73 231.158 181.101 231.494C181.472 231.827 181.906 231.993 182.405 231.993ZM190.754 234.166C190.333 234.166 189.97 234.017 189.668 233.719C189.369 233.416 189.22 233.054 189.22 232.632C189.22 232.214 189.369 231.857 189.668 231.558C189.97 231.26 190.333 231.111 190.754 231.111C191.164 231.111 191.521 231.26 191.828 231.558C192.135 231.857 192.289 232.214 192.289 232.632C192.289 232.913 192.216 233.171 192.071 233.406C191.931 233.636 191.745 233.821 191.515 233.962C191.285 234.098 191.031 234.166 190.754 234.166ZM199.104 234.288C198.005 234.283 197.059 234.013 196.266 233.476C195.478 232.939 194.87 232.161 194.444 231.143C194.022 230.124 193.814 228.899 193.818 227.467C193.818 226.04 194.029 224.823 194.451 223.817C194.877 222.812 195.484 222.047 196.272 221.523C197.065 220.994 198.009 220.73 199.104 220.73C200.199 220.73 201.141 220.994 201.929 221.523C202.722 222.051 203.331 222.818 203.757 223.824C204.184 224.825 204.395 226.04 204.39 227.467C204.39 228.903 204.177 230.131 203.751 231.149C203.329 232.168 202.724 232.945 201.936 233.482C201.147 234.019 200.203 234.288 199.104 234.288ZM199.104 231.993C199.854 231.993 200.453 231.616 200.9 230.862C201.348 230.107 201.569 228.976 201.565 227.467C201.565 226.474 201.463 225.648 201.258 224.987C201.058 224.327 200.772 223.83 200.402 223.498C200.035 223.165 199.603 222.999 199.104 222.999C198.358 222.999 197.762 223.372 197.314 224.118C196.867 224.864 196.641 225.98 196.637 227.467C196.637 228.473 196.737 229.312 196.937 229.986C197.142 230.655 197.429 231.158 197.8 231.494C198.171 231.827 198.605 231.993 199.104 231.993ZM211.497 234.288C210.397 234.283 209.451 234.013 208.659 233.476C207.87 232.939 207.263 232.161 206.837 231.143C206.415 230.124 206.206 228.899 206.21 227.467C206.21 226.04 206.421 224.823 206.843 223.817C207.269 222.812 207.877 222.047 208.665 221.523C209.458 220.994 210.401 220.73 211.497 220.73C212.592 220.73 213.534 220.994 214.322 221.523C215.115 222.051 215.724 222.818 216.15 223.824C216.576 224.825 216.787 226.04 216.783 227.467C216.783 228.903 216.57 230.131 216.144 231.149C215.722 232.168 215.117 232.945 214.328 233.482C213.54 234.019 212.596 234.288 211.497 234.288ZM211.497 231.993C212.247 231.993 212.845 231.616 213.293 230.862C213.74 230.107 213.962 228.976 213.958 227.467C213.958 226.474 213.855 225.648 213.651 224.987C213.45 224.327 213.165 223.83 212.794 223.498C212.428 223.165 211.995 222.999 211.497 222.999C210.751 222.999 210.154 223.372 209.707 224.118C209.259 224.864 209.034 225.98 209.029 227.467C209.029 228.473 209.129 229.312 209.33 229.986C209.534 230.655 209.822 231.158 210.193 231.494C210.563 231.827 210.998 231.993 211.497 231.993Z" fill="#6C757D"/>
<path d="M80.0874 326.909V340H77.6967L72.0014 331.761H71.9055V340H69.1378V326.909H71.5668L77.2173 335.142H77.3324V326.909H80.0874ZM87.1362 340.179C86.1816 340.179 85.3315 340.015 84.5858 339.687C83.8443 339.354 83.2583 338.898 82.8279 338.319C82.4018 337.735 82.1824 337.062 82.1696 336.299H84.9565C84.9735 336.619 85.0779 336.9 85.2697 337.143C85.4657 337.381 85.7257 337.567 86.0495 337.699C86.3734 337.831 86.7377 337.897 87.1426 337.897C87.5645 337.897 87.9373 337.822 88.2612 337.673C88.585 337.524 88.8386 337.317 89.0218 337.053C89.2051 336.789 89.2967 336.484 89.2967 336.139C89.2967 335.79 89.1987 335.481 89.0027 335.212C88.8109 334.94 88.5339 334.727 88.1717 334.573C87.8137 334.42 87.3876 334.343 86.8933 334.343H85.6724V332.31H86.8933C87.3109 332.31 87.6795 332.238 87.9991 332.093C88.323 331.948 88.5744 331.748 88.7534 331.492C88.9324 331.232 89.0218 330.93 89.0218 330.585C89.0218 330.256 88.943 329.969 88.7853 329.722C88.6319 329.47 88.4146 329.274 88.1333 329.134C87.8564 328.993 87.5325 328.923 87.1618 328.923C86.7868 328.923 86.4437 328.991 86.1326 329.127C85.8216 329.259 85.5723 329.449 85.3848 329.696C85.1973 329.943 85.0971 330.233 85.0843 330.565H82.4316C82.4444 329.811 82.6596 329.146 83.0772 328.571C83.4949 327.996 84.0574 327.546 84.7647 327.222C85.4764 326.894 86.2797 326.73 87.1745 326.73C88.0779 326.73 88.8684 326.894 89.546 327.222C90.2235 327.55 90.7498 327.994 91.1248 328.552C91.5041 329.106 91.6916 329.728 91.6873 330.418C91.6916 331.151 91.4636 331.763 91.0034 332.253C90.5474 332.743 89.9529 333.054 89.22 333.186V333.288C90.1831 333.412 90.916 333.746 91.4189 334.292C91.926 334.833 92.1774 335.511 92.1731 336.325C92.1774 337.07 91.9622 337.733 91.5275 338.312C91.0971 338.892 90.5027 339.348 89.7441 339.68C88.9856 340.013 88.1163 340.179 87.1362 340.179ZM99.0462 340.179C98.0618 340.179 97.1861 340.019 96.419 339.7C95.6563 339.376 95.0575 338.935 94.6229 338.376C94.1882 337.818 93.9709 337.185 93.9709 336.478C93.9709 335.933 94.0945 335.432 94.3416 334.976C94.593 334.516 94.9339 334.134 95.3643 333.832C95.7947 333.525 96.2763 333.329 96.8089 333.244V333.154C96.1101 333.013 95.5433 332.675 95.1087 332.138C94.674 331.597 94.4567 330.968 94.4567 330.252C94.4567 329.575 94.6548 328.972 95.0511 328.443C95.4474 327.911 95.9908 327.493 96.6811 327.19C97.3757 326.884 98.1641 326.73 99.0462 326.73C99.9283 326.73 100.714 326.884 101.405 327.19C102.099 327.497 102.645 327.917 103.041 328.45C103.438 328.978 103.638 329.579 103.642 330.252C103.638 330.972 103.416 331.601 102.977 332.138C102.538 332.675 101.976 333.013 101.29 333.154V333.244C101.814 333.329 102.289 333.525 102.715 333.832C103.146 334.134 103.487 334.516 103.738 334.976C103.994 335.432 104.124 335.933 104.128 336.478C104.124 337.185 103.904 337.818 103.469 338.376C103.035 338.935 102.434 339.376 101.667 339.7C100.904 340.019 100.031 340.179 99.0462 340.179ZM99.0462 338.146C99.4851 338.146 99.8686 338.067 100.197 337.91C100.525 337.748 100.781 337.526 100.964 337.245C101.151 336.96 101.245 336.631 101.245 336.261C101.245 335.881 101.149 335.547 100.957 335.257C100.766 334.963 100.506 334.733 100.178 334.567C99.8494 334.396 99.4723 334.311 99.0462 334.311C98.6243 334.311 98.2472 334.396 97.9148 334.567C97.5824 334.733 97.3203 334.963 97.1286 335.257C96.9411 335.547 96.8473 335.881 96.8473 336.261C96.8473 336.631 96.9389 336.96 97.1222 337.245C97.3054 337.526 97.5632 337.748 97.8956 337.91C98.228 338.067 98.6115 338.146 99.0462 338.146ZM99.0462 332.298C99.4126 332.298 99.7386 332.223 100.024 332.074C100.31 331.925 100.533 331.718 100.695 331.454C100.857 331.19 100.938 330.885 100.938 330.54C100.938 330.199 100.857 329.901 100.695 329.645C100.533 329.385 100.312 329.183 100.031 329.038C99.7493 328.888 99.4212 328.814 99.0462 328.814C98.6754 328.814 98.3473 328.888 98.0618 329.038C97.7763 329.183 97.5526 329.385 97.3906 329.645C97.233 329.901 97.1541 330.199 97.1541 330.54C97.1541 330.885 97.2351 331.19 97.397 331.454C97.5589 331.718 97.7827 331.925 98.0682 332.074C98.3537 332.223 98.6797 332.298 99.0462 332.298ZM108.679 338.21L108.609 338.913C108.553 339.476 108.447 340.036 108.289 340.594C108.136 341.157 107.974 341.666 107.803 342.122C107.637 342.578 107.503 342.936 107.401 343.196H105.636C105.7 342.945 105.788 342.593 105.898 342.141C106.009 341.694 106.114 341.191 106.212 340.633C106.31 340.075 106.371 339.506 106.397 338.926L106.429 338.21H108.679ZM115.749 340.288C114.649 340.283 113.703 340.013 112.911 339.476C112.122 338.939 111.515 338.161 111.089 337.143C110.667 336.124 110.458 334.899 110.462 333.467C110.462 332.04 110.673 330.823 111.095 329.817C111.521 328.812 112.129 328.047 112.917 327.523C113.71 326.994 114.653 326.73 115.749 326.73C116.844 326.73 117.786 326.994 118.574 327.523C119.366 328.051 119.976 328.818 120.402 329.824C120.828 330.825 121.039 332.04 121.035 333.467C121.035 334.903 120.822 336.131 120.396 337.149C119.974 338.168 119.369 338.945 118.58 339.482C117.792 340.019 116.848 340.288 115.749 340.288ZM115.749 337.993C116.499 337.993 117.097 337.616 117.545 336.862C117.992 336.107 118.214 334.976 118.21 333.467C118.21 332.474 118.107 331.648 117.903 330.987C117.702 330.327 117.417 329.83 117.046 329.498C116.68 329.165 116.247 328.999 115.749 328.999C115.003 328.999 114.406 329.372 113.959 330.118C113.511 330.864 113.286 331.98 113.281 333.467C113.281 334.473 113.381 335.312 113.582 335.986C113.786 336.655 114.074 337.158 114.445 337.494C114.815 337.827 115.25 337.993 115.749 337.993ZM128.141 340.288C127.042 340.283 126.096 340.013 125.303 339.476C124.515 338.939 123.907 338.161 123.481 337.143C123.059 336.124 122.851 334.899 122.855 333.467C122.855 332.04 123.066 330.823 123.488 329.817C123.914 328.812 124.521 328.047 125.309 327.523C126.102 326.994 127.046 326.73 128.141 326.73C129.236 326.73 130.178 326.994 130.966 327.523C131.759 328.051 132.368 328.818 132.795 329.824C133.221 330.825 133.432 332.04 133.427 333.467C133.427 334.903 133.214 336.131 132.788 337.149C132.366 338.168 131.761 338.945 130.973 339.482C130.184 340.019 129.241 340.288 128.141 340.288ZM128.141 337.993C128.891 337.993 129.49 337.616 129.937 336.862C130.385 336.107 130.606 334.976 130.602 333.467C130.602 332.474 130.5 331.648 130.295 330.987C130.095 330.327 129.809 329.83 129.439 329.498C129.072 329.165 128.64 328.999 128.141 328.999C127.395 328.999 126.799 329.372 126.351 330.118C125.904 330.864 125.678 331.98 125.674 333.467C125.674 334.473 125.774 335.312 125.974 335.986C126.179 336.655 126.466 337.158 126.837 337.494C127.208 337.827 127.643 337.993 128.141 337.993ZM140.534 340.288C139.434 340.283 138.488 340.013 137.696 339.476C136.907 338.939 136.3 338.161 135.874 337.143C135.452 336.124 135.243 334.899 135.248 333.467C135.248 332.04 135.458 330.823 135.88 329.817C136.306 328.812 136.914 328.047 137.702 327.523C138.495 326.994 139.439 326.73 140.534 326.73C141.629 326.73 142.571 326.994 143.359 327.523C144.152 328.051 144.761 328.818 145.187 329.824C145.613 330.825 145.824 332.04 145.82 333.467C145.82 334.903 145.607 336.131 145.181 337.149C144.759 338.168 144.154 338.945 143.365 339.482C142.577 340.019 141.633 340.288 140.534 340.288ZM140.534 337.993C141.284 337.993 141.882 337.616 142.33 336.862C142.777 336.107 142.999 334.976 142.995 333.467C142.995 332.474 142.892 331.648 142.688 330.987C142.488 330.327 142.202 329.83 141.831 329.498C141.465 329.165 141.032 328.999 140.534 328.999C139.788 328.999 139.191 329.372 138.744 330.118C138.297 330.864 138.071 331.98 138.066 333.467C138.066 334.473 138.167 335.312 138.367 335.986C138.571 336.655 138.859 337.158 139.23 337.494C139.6 337.827 140.035 337.993 140.534 337.993ZM150.251 338.21L150.181 338.913C150.126 339.476 150.019 340.036 149.861 340.594C149.708 341.157 149.546 341.666 149.376 342.122C149.209 342.578 149.075 342.936 148.973 343.196H147.209C147.273 342.945 147.36 342.593 147.471 342.141C147.581 341.694 147.686 341.191 147.784 340.633C147.882 340.075 147.944 339.506 147.969 338.926L148.001 338.21H150.251ZM157.391 340.179C156.488 340.179 155.682 340.013 154.975 339.68C154.272 339.348 153.714 338.89 153.3 338.306C152.887 337.722 152.672 337.053 152.655 336.299H155.339C155.369 336.806 155.582 337.217 155.979 337.533C156.375 337.848 156.846 338.006 157.391 338.006C157.826 338.006 158.209 337.91 158.542 337.718C158.878 337.522 159.14 337.251 159.328 336.906C159.52 336.557 159.616 336.156 159.616 335.705C159.616 335.244 159.518 334.839 159.322 334.49C159.13 334.141 158.863 333.868 158.523 333.672C158.182 333.476 157.792 333.376 157.353 333.371C156.969 333.371 156.596 333.45 156.234 333.608C155.876 333.766 155.597 333.981 155.397 334.254L152.936 333.812L153.556 326.909H161.559V329.172H155.838L155.499 332.451H155.576C155.806 332.127 156.153 331.859 156.618 331.646C157.082 331.433 157.602 331.326 158.177 331.326C158.966 331.326 159.669 331.511 160.287 331.882C160.905 332.253 161.393 332.762 161.751 333.41C162.108 334.053 162.285 334.795 162.281 335.634C162.285 336.516 162.081 337.3 161.667 337.987C161.258 338.668 160.685 339.205 159.948 339.597C159.215 339.985 158.363 340.179 157.391 340.179ZM169.344 340.288C168.245 340.283 167.299 340.013 166.506 339.476C165.718 338.939 165.111 338.161 164.684 337.143C164.263 336.124 164.054 334.899 164.058 333.467C164.058 332.04 164.269 330.823 164.691 329.817C165.117 328.812 165.724 328.047 166.513 327.523C167.305 326.994 168.249 326.73 169.344 326.73C170.439 326.73 171.381 326.994 172.17 327.523C172.962 328.051 173.572 328.818 173.998 329.824C174.424 330.825 174.635 332.04 174.631 333.467C174.631 334.903 174.417 336.131 173.991 337.149C173.569 338.168 172.964 338.945 172.176 339.482C171.388 340.019 170.444 340.288 169.344 340.288ZM169.344 337.993C170.094 337.993 170.693 337.616 171.14 336.862C171.588 336.107 171.809 334.976 171.805 333.467C171.805 332.474 171.703 331.648 171.498 330.987C171.298 330.327 171.013 329.83 170.642 329.498C170.275 329.165 169.843 328.999 169.344 328.999C168.599 328.999 168.002 329.372 167.555 330.118C167.107 330.864 166.881 331.98 166.877 333.467C166.877 334.473 166.977 335.312 167.177 335.986C167.382 336.655 167.67 337.158 168.04 337.494C168.411 337.827 168.846 337.993 169.344 337.993ZM181.737 340.288C180.637 340.283 179.691 340.013 178.899 339.476C178.11 338.939 177.503 338.161 177.077 337.143C176.655 336.124 176.446 334.899 176.451 333.467C176.451 332.04 176.662 330.823 177.083 329.817C177.51 328.812 178.117 328.047 178.905 327.523C179.698 326.994 180.642 326.73 181.737 326.73C182.832 326.73 183.774 326.994 184.562 327.523C185.355 328.051 185.964 328.818 186.39 329.824C186.816 330.825 187.027 332.04 187.023 333.467C187.023 334.903 186.81 336.131 186.384 337.149C185.962 338.168 185.357 338.945 184.569 339.482C183.78 340.019 182.836 340.288 181.737 340.288ZM181.737 337.993C182.487 337.993 183.086 337.616 183.533 336.862C183.98 336.107 184.202 334.976 184.198 333.467C184.198 332.474 184.096 331.648 183.891 330.987C183.691 330.327 183.405 329.83 183.034 329.498C182.668 329.165 182.235 328.999 181.737 328.999C180.991 328.999 180.395 329.372 179.947 330.118C179.5 330.864 179.274 331.98 179.27 333.467C179.27 334.473 179.37 335.312 179.57 335.986C179.775 336.655 180.062 337.158 180.433 337.494C180.804 337.827 181.238 337.993 181.737 337.993ZM190.086 340.166C189.665 340.166 189.302 340.017 189 339.719C188.702 339.416 188.552 339.054 188.552 338.632C188.552 338.214 188.702 337.857 189 337.558C189.302 337.26 189.665 337.111 190.086 337.111C190.496 337.111 190.854 337.26 191.16 337.558C191.467 337.857 191.621 338.214 191.621 338.632C191.621 338.913 191.548 339.171 191.403 339.406C191.263 339.636 191.077 339.821 190.847 339.962C190.617 340.098 190.363 340.166 190.086 340.166ZM198.436 340.288C197.337 340.283 196.391 340.013 195.598 339.476C194.81 338.939 194.202 338.161 193.776 337.143C193.354 336.124 193.146 334.899 193.15 333.467C193.15 332.04 193.361 330.823 193.783 329.817C194.209 328.812 194.816 328.047 195.604 327.523C196.397 326.994 197.341 326.73 198.436 326.73C199.531 326.73 200.473 326.994 201.261 327.523C202.054 328.051 202.663 328.818 203.089 329.824C203.516 330.825 203.727 332.04 203.722 333.467C203.722 334.903 203.509 336.131 203.083 337.149C202.661 338.168 202.056 338.945 201.268 339.482C200.479 340.019 199.536 340.288 198.436 340.288ZM198.436 337.993C199.186 337.993 199.785 337.616 200.232 336.862C200.68 336.107 200.901 334.976 200.897 333.467C200.897 332.474 200.795 331.648 200.59 330.987C200.39 330.327 200.104 329.83 199.734 329.498C199.367 329.165 198.935 328.999 198.436 328.999C197.69 328.999 197.094 329.372 196.646 330.118C196.199 330.864 195.973 331.98 195.969 333.467C195.969 334.473 196.069 335.312 196.269 335.986C196.474 336.655 196.761 337.158 197.132 337.494C197.503 337.827 197.938 337.993 198.436 337.993ZM210.829 340.288C209.729 340.283 208.783 340.013 207.991 339.476C207.202 338.939 206.595 338.161 206.169 337.143C205.747 336.124 205.538 334.899 205.542 333.467C205.542 332.04 205.753 330.823 206.175 329.817C206.601 328.812 207.209 328.047 207.997 327.523C208.79 326.994 209.733 326.73 210.829 326.73C211.924 326.73 212.866 326.994 213.654 327.523C214.447 328.051 215.056 328.818 215.482 329.824C215.908 330.825 216.119 332.04 216.115 333.467C216.115 334.903 215.902 336.131 215.476 337.149C215.054 338.168 214.449 338.945 213.66 339.482C212.872 340.019 211.928 340.288 210.829 340.288ZM210.829 337.993C211.579 337.993 212.177 337.616 212.625 336.862C213.072 336.107 213.294 334.976 213.29 333.467C213.29 332.474 213.187 331.648 212.983 330.987C212.782 330.327 212.497 329.83 212.126 329.498C211.76 329.165 211.327 328.999 210.829 328.999C210.083 328.999 209.486 329.372 209.039 330.118C208.591 330.864 208.366 331.98 208.361 333.467C208.361 334.473 208.461 335.312 208.662 335.986C208.866 336.655 209.154 337.158 209.525 337.494C209.895 337.827 210.33 337.993 210.829 337.993Z" fill="#6C757D"/>
<rect x="68" y="246" width="335" height="22" fill="#2D995F"/>
<rect x="68" y="352" width="302" height="22" fill="#FFBA08"/>
</g>
<defs>
<filter id="filter0_d_6180_444" x="0" y="0" width="500" height="475" filterUnits="userSpaceOnUse" color-interpolation-filters="sRGB">
<feFlood flood-opacity="0" result="BackgroundImageFix"/>
<feColorMatrix in="SourceAlpha" type="matrix" values="0 0 0 0 0 0 0 0 0 0 0 0 0 0 0 0 0 0 127 0" result="hardAlpha"/>
<feOffset dy="4"/>
<feGaussianBlur stdDeviation="20"/>
<feComposite in2="hardAlpha" operator="out"/>
<feColorMatrix type="matrix" values="0 0 0 0 0.675455 0 0 0 0 0.904545 0 0 0 0 0.781515 0 0 0 0.31 0"/>
<feBlend mode="normal" in2="BackgroundImageFix" result="effect1_dropShadow_6180_444"/>
<feBlend mode="normal" in="SourceGraphic" in2="effect1_dropShadow_6180_444" result="shape"/>
</filter>
</defs>
</svg>
