<svg width="1669" height="1200" viewBox="0 0 1669 1200" fill="none" xmlns="http://www.w3.org/2000/svg">
<g clip-path="url(#clip0_80_4293)">
<path d="M258.2 976C258.2 976 264.7 924.3 291.5 902.8C318.3 881.4 320.1 848.1 320.1 848.1C320.1 848.1 356.4 974.2 310 997.4C263.6 1020.6 258.2 976 258.2 976Z" fill="#37A000"/>
<path opacity="0.25" d="M320.1 848.2C320.1 848.2 332.6 959.4 263.9 1012.1Z" fill="#37A000"/>
<path d="M246.3 384.5C246.3 384.5 179.3 602.9 230 791.2C280.8 979.6 211 1048.8 211 1048.8L263.8 995.8C263.8 995.8 286.3 829 280.8 744.3L263.8 735.7L281.6 720.6C281.7 720.6 234.8 525.8 246.3 384.5Z" fill="#37A000"/>
<g opacity="0.25">
<path d="M246.3 384.5C241 409.5 236.9 434.7 233.4 459.9C230 485.2 227.2 510.5 225.4 536C221.8 586.8 221.4 638.1 227.8 688.8C228.2 692 228.6 695.1 229.1 698.3L230.6 707.7C231.6 714 232.7 720.3 233.8 726.6L235.4 736L236.9 745.4C237.9 751.7 239 758 239.9 764.3C243.9 789.5 247.3 814.8 249.9 840.2C250.3 843.4 250.5 846.5 250.8 849.7L251.6 859.2C252.1 865.6 252.5 871.9 252.9 878.3L253.3 887.9C253.4 891.1 253.6 894.3 253.6 897.5C253.7 903.9 253.9 910.3 253.7 916.6C253.6 929.4 252.8 942.1 251.7 954.8L250.7 964.3C250.4 967.5 249.9 970.6 249.4 973.8L248.7 978.5C248.5 980.1 248.2 981.6 247.9 983.2L246.3 992.6C246.3 992.7 246.1 992.9 246 992.8C245.9 992.8 245.7 992.6 245.8 992.5L247.4 983.1C247.7 981.5 248 980 248.2 978.4L248.9 973.7C249.3 970.5 249.8 967.4 250.2 964.2L251.2 954.7C252.4 942 253.2 929.3 253.3 916.5C253.5 910.1 253.3 903.8 253.2 897.4C253.2 894.2 253 891 252.9 887.8L252.5 878.2C252.1 871.8 251.7 865.5 251.2 859.1L250.4 849.6C250.1 846.4 249.9 843.2 249.5 840.1C246.9 814.7 243.5 789.4 239.5 764.2C238.6 757.9 237.5 751.6 236.5 745.3L235 735.9L233.4 726.5C232.3 720.2 231.2 713.9 230.2 707.6L228.7 698.1C228.2 695 227.9 691.8 227.4 688.6C221 637.9 221.5 586.6 225.1 535.8C226.9 510.4 229.7 485 233.2 459.7C236.9 434.7 241.1 409.5 246.3 384.5Z" fill="white"/>
</g>
<path d="M249.9 995.9C249.9 995.9 264.2 861.9 237.2 809.5H219.8L230.1 791.3C230.1 791.3 173.8 668 16 619.8C16 619.8 115.5 685.6 156.2 807.8C175.4 803.1 189.1 803.9 189.1 803.9L174.7 822.9C174.7 822.9 233.4 918.1 225.5 1006.9C217.4 1095.8 249.9 995.9 249.9 995.9Z" fill="#37A000"/>
<path opacity="0.25" d="M16 619.8C16 619.8 259.5 719.1 240.4 992.7Z" fill="#37A000"/>
<path d="M345.1 1015.3L344.3 1037.3L340.1 1145.5H204.1L184.9 1037.3L182.7 1024.8L274.6 1019.4L345.1 1015.3Z" fill="#A8A8A8"/>
<path d="M367.9 993.3V1030.8C367.9 1034.4 365 1037.3 361.4 1037.3H162.7C158.4 1037.3 155.3 1033.2 156.4 1029.1L166.6 991.6C167.4 988.8 170 986.8 172.9 986.8H361.5C365 986.7 367.9 989.7 367.9 993.3Z" fill="#686868"/>
<path d="M769.7 76.5001V208.6C769.7 227.8 754.2 243.3 735 243.3H565.8L538.2 270.9C534.3 274.8 527.7 272 527.7 266.6V243.3H444.5C441.1 243.3 438.4 240.5 438.4 237.2V105.1C438.4 85.9001 453.9 70.4001 473.1 70.4001H763.6C767 70.4001 769.7 73.1001 769.7 76.5001Z" stroke="#37A000" stroke-width="3" stroke-miterlimit="10"/>
<path d="M872.201 103.7V238.2C872.201 241 874.401 243.2 877.201 243.2H983.101L1010.7 270.8C1014.6 274.7 1021.2 271.9 1021.2 266.5V243.2H1170.2C1188.6 243.2 1203.6 228.3 1203.6 209.8V75.4001C1203.6 72.6001 1201.4 70.4001 1198.6 70.4001H905.701C887.201 70.4001 872.201 85.3001 872.201 103.7Z" stroke="#37A000" stroke-width="3" stroke-miterlimit="10"/>
<path d="M1260.3 241.6C1260.3 273.6 1234.4 299.5 1202.4 299.5C1171 299.5 1145.4 274.5 1144.5 243.3H1198.7C1201.5 243.3 1203.7 241.1 1203.7 238.3V183.7C1235 184.3 1260.3 210 1260.3 241.6Z" fill="#37A000"/>
<path d="M1203.6 183.6V238.2C1203.6 241 1201.4 243.2 1198.6 243.2H1144.4C1144.4 242.6 1144.4 242.1 1144.4 241.5C1144.4 209.5 1170.3 183.6 1202.3 183.6C1202.7 183.6 1203.2 183.6 1203.6 183.6Z" fill="#B8E59E"/>
<path d="M504.4 48.8001V70.3001H473.1C453.9 70.3001 438.4 85.8001 438.4 105V142.2H411C397.9 142.2 387.3 131.6 387.3 118.5V48.8001C387.3 35.7001 397.9 25.1001 411 25.1001H480.7C493.8 25.1001 504.4 35.7001 504.4 48.8001Z" fill="#37A000"/>
<path d="M504.4 70.4V118.5C504.4 131.6 493.8 142.2 480.7 142.2H438.5V105C438.5 85.8 454 70.3 473.2 70.3H504.4V70.4Z" fill="#B8E59E"/>
<path d="M329.9 276.4H265.7V297H329.9V276.4Z" fill="#37A000"/>
<path d="M357.7 301.8H293.5V322.4H357.7V301.8Z" fill="#B8E59E"/>
<path d="M1290.04 585.515H1354.24V564.915H1290.04V585.515Z" fill="#37A000"/>
<path d="M1262.18 610.87H1326.38V590.27H1262.18V610.87Z" fill="#B8E59E"/>
<path d="M507.4 122.4H700.8" stroke="#37A000" stroke-width="3" stroke-miterlimit="10"/>
<path d="M507.4 158.3H700.8" stroke="#37A000" stroke-width="3" stroke-miterlimit="10"/>
<path d="M507.4 194.2H700.8" stroke="#37A000" stroke-width="3" stroke-miterlimit="10"/>
<path d="M941 122H1134.3" stroke="#37A000" stroke-width="3" stroke-miterlimit="10"/>
<path d="M941.301 156.6H1134.6" stroke="#37A000" stroke-width="3" stroke-miterlimit="10"/>
<path d="M941.301 192.6H1134.6" stroke="#37A000" stroke-width="3" stroke-miterlimit="10"/>
<path opacity="0.1" d="M1637.2 1171.4H58.0996C50.8996 1171.4 45.0996 1165.6 45.0996 1158.4C45.0996 1151.2 50.8996 1145.4 58.0996 1145.4H1637.2C1644.4 1145.4 1650.2 1151.2 1650.2 1158.4C1650.2 1165.6 1644.4 1171.4 1637.2 1171.4Z" fill="#37A000"/>
<path d="M593.459 694.693V464.526C593.459 461.239 594.765 458.087 597.089 455.763C599.413 453.438 602.566 452.133 605.853 452.133C609.14 452.133 612.292 453.438 614.616 455.763C616.94 458.087 618.246 461.239 618.246 464.526V694.693C618.246 697.98 616.94 701.133 614.616 703.457C612.292 705.781 609.14 707.087 605.853 707.087C602.566 707.087 599.413 705.781 597.089 703.457C594.765 701.133 593.459 697.98 593.459 694.693Z" fill="#F0F0F0"/>
<path d="M563.804 694.693V464.526C563.804 461.239 565.109 458.087 567.434 455.763C569.758 453.438 572.91 452.133 576.197 452.133C579.484 452.133 582.637 453.438 584.961 455.763C587.285 458.087 588.591 461.239 588.591 464.526V694.693C588.591 697.98 587.285 701.133 584.961 703.457C582.637 705.781 579.484 707.087 576.197 707.087C572.91 707.087 569.758 705.781 567.434 703.457C565.109 701.133 563.804 697.98 563.804 694.693Z" fill="#F0F0F0"/>
<path d="M534 694.56V464.394C534 461.107 535.306 457.954 537.63 455.63C539.954 453.306 543.107 452 546.394 452C549.681 452 552.833 453.306 555.157 455.63C557.481 457.954 558.787 461.107 558.787 464.394V694.56C558.787 697.847 557.481 701 555.157 703.324C552.833 705.648 549.681 706.954 546.394 706.954C543.107 706.954 539.954 705.648 537.63 703.324C535.306 701 534 697.847 534 694.56Z" fill="#F0F0F0"/>
<path d="M1634.97 1137.76C1646.31 1117.25 1659.46 1094.46 1682.95 1087.18C1689.48 1085.16 1696.33 1084.44 1703.13 1085.05C1705.27 1085.24 1704.74 1088.62 1702.6 1088.43C1691.18 1087.47 1679.78 1090.55 1670.4 1097.14C1661.32 1103.46 1654.25 1112.24 1648.26 1121.56C1644.6 1127.26 1641.31 1133.21 1638.03 1139.15C1636.98 1141.05 1633.91 1139.68 1634.97 1137.76Z" fill="#F2F2F2"/>
<path d="M1630.96 1137.57L1642.41 1137.83L1573.4 769.143L1561.95 771.299L1579.97 866.942H1521.91L1539.93 771.299L1528.49 769.143L1460.05 1137.83L1470.92 1137.57L1506.9 946.615H1594.98L1630.96 1137.57ZM1509.57 932.451L1519.24 881.106H1582.64L1592.31 932.451H1509.57Z" fill="#99D27A"/>
<path d="M1129.93 700.566V579.489C1129.93 575.894 1135.49 572.969 1142.32 572.969C1149.15 572.969 1154.71 575.894 1154.71 579.489V700.566C1154.71 704.161 1149.15 707.086 1142.32 707.086C1135.49 707.086 1129.93 704.161 1129.93 700.566Z" fill="#F0F0F0"/>
<path d="M1100 700.597V579.52C1100 575.925 1105.56 573 1112.39 573C1119.23 573 1124.79 575.925 1124.79 579.52V700.597C1124.79 704.192 1119.23 707.116 1112.39 707.116C1105.56 707.116 1100 704.192 1100 700.597Z" fill="#F0F0F0"/>
<path d="M1070.61 700.566V579.489C1070.61 575.894 1076.17 572.969 1083.01 572.969C1089.84 572.969 1095.4 575.894 1095.4 579.489V700.566C1095.4 704.161 1089.84 707.086 1083.01 707.086C1076.17 707.086 1070.61 704.161 1070.61 700.566Z" fill="#F0F0F0"/>
<path d="M1319.9 611.491C1319.85 611.123 1319.71 610.771 1319.51 610.458C1319.31 610.144 1319.05 609.876 1318.74 609.671L1225.3 547.988C1226.71 547.4 1227.89 546.369 1228.66 545.05C1229.59 543.422 1229.84 541.491 1229.36 539.679C1228.87 537.866 1227.69 536.319 1226.06 535.376L1218.4 530.95C1216.77 530.016 1214.84 529.765 1213.03 530.251C1211.21 530.736 1209.67 531.92 1208.72 533.542C1208.21 534.434 1207.91 535.427 1207.83 536.451L1140.38 491.925C1138.12 486.439 1134.68 481.514 1130.32 477.491C1125.96 473.468 1120.77 470.445 1115.12 468.632V449H1090.33V468.632C1082.1 471.262 1074.93 476.437 1069.84 483.41C1064.75 490.382 1062 498.793 1062 507.427V512.739H1086.79C1086.79 516.965 1088.47 521.018 1091.45 524.006C1094.44 526.994 1098.5 528.673 1102.72 528.673C1106.95 528.673 1111 526.994 1113.99 524.006C1116.98 521.018 1118.66 516.965 1118.66 512.739H1143.44V507.427C1143.44 504.881 1143.2 502.34 1142.73 499.839L1313.35 612.479L1242.47 698.65C1241.92 698.648 1241.38 698.643 1240.82 698.643C1235.17 698.643 1229.69 698.776 1224.47 699.006C1224.78 698.131 1224.92 697.202 1224.87 696.273C1224.77 694.399 1223.93 692.643 1222.53 691.387C1221.14 690.13 1219.31 689.477 1217.43 689.569L1208.59 690.03C1206.72 690.133 1204.96 690.974 1203.7 692.368C1202.45 693.762 1201.79 695.597 1201.89 697.471C1201.95 698.578 1202.28 699.654 1202.85 700.608C1187.21 702.269 1177.08 704.56 1177.08 705.725C1177.08 707.634 1204.28 705.816 1238.33 705.729C1238.49 706.171 1238.76 706.565 1239.11 706.868C1239.47 707.171 1239.91 707.374 1240.37 707.455C1240.83 707.536 1241.31 707.493 1241.75 707.33C1242.19 707.166 1242.58 706.889 1242.87 706.526L1243.53 705.729C1277.47 705.824 1304.56 707.63 1304.56 705.725C1304.56 703.928 1280.48 699.46 1249.27 698.743L1319.33 613.574C1319.56 613.286 1319.74 612.952 1319.83 612.594C1319.93 612.235 1319.96 611.859 1319.9 611.491Z" fill="#CCCCCC"/>
<path d="M1322.81 1138.34H1104.66C1100.25 1138.34 1096.02 1136.59 1092.91 1133.47C1089.79 1130.35 1088.04 1126.12 1088.03 1121.71V763.689C1088.03 759.75 1086.46 755.973 1083.67 753.188C1080.89 750.402 1077.11 748.836 1073.17 748.831H562.883C558.944 748.836 555.167 750.402 552.382 753.188C549.596 755.973 548.029 759.75 548.025 763.689V1121.71C548.02 1126.12 546.266 1130.35 543.149 1133.47C540.031 1136.59 535.805 1138.34 531.396 1138.34H523.932C519.523 1138.34 515.296 1136.59 512.179 1133.47C509.061 1130.35 507.308 1126.12 507.303 1121.71V744.405C507.315 733.843 511.515 723.718 518.984 716.25C526.452 708.781 536.578 704.58 547.139 704.569H1299.61C1310.17 704.581 1320.3 708.781 1327.76 716.25C1335.23 723.718 1339.43 733.844 1339.44 744.405V1121.71C1339.44 1126.12 1337.69 1130.35 1334.57 1133.47C1331.45 1136.59 1327.22 1138.34 1322.81 1138.34Z" fill="#8A9C6B"/>
<path d="M1338.56 797.52H1088.92V808.143H1338.56V797.52Z" fill="white"/>
<path d="M1338.56 940.932H1088.92V951.555H1338.56V940.932Z" fill="white"/>
<path d="M882.268 702.82L875.094 699.799L870.172 663.831H804.627L799.292 699.652L792.873 702.862C792.566 703.015 792.319 703.268 792.174 703.579C792.028 703.89 791.992 704.241 792.071 704.575C792.15 704.909 792.339 705.207 792.609 705.42C792.878 705.633 793.211 705.749 793.554 705.749H881.677C882.029 705.749 882.37 705.628 882.642 705.405C882.915 705.182 883.102 704.872 883.171 704.527C883.241 704.182 883.189 703.823 883.024 703.512C882.86 703.201 882.593 702.957 882.268 702.82Z" fill="#E6E6E6"/>
<path d="M998.746 668.616H676.772C675.083 668.612 673.464 667.939 672.271 666.743C671.077 665.547 670.407 663.927 670.407 662.237V616.835H1005.11V662.237C1005.11 663.927 1004.44 665.547 1003.25 666.743C1002.05 667.939 1000.44 668.612 998.746 668.616Z" fill="#CCCCCC"/>
<path d="M1005.45 638.293H670.113V444.024C670.116 441.986 670.927 440.031 672.368 438.59C673.81 437.148 675.764 436.337 677.803 436.335H997.757C999.796 436.337 1001.75 437.148 1003.19 438.59C1004.63 440.031 1005.45 441.986 1005.45 444.024V638.293Z" fill="#3F3D56"/>
<path d="M985.418 624.193H690.14C688.569 624.192 687.062 623.566 685.95 622.455C684.839 621.344 684.214 619.837 684.212 618.265V456.364C684.214 454.792 684.839 453.285 685.95 452.173C687.062 451.062 688.569 450.437 690.14 450.435H985.418C986.99 450.437 988.497 451.062 989.608 452.173C990.719 453.285 991.345 454.792 991.346 456.364V618.265C991.345 619.837 990.72 621.344 989.608 622.455C988.497 623.566 986.99 624.192 985.418 624.193Z" fill="white"/>
<path d="M1316.43 469.021C1319.25 468.614 1322.13 468.832 1324.87 469.658C1327.6 470.484 1330.11 471.899 1332.24 473.804C1334.36 475.708 1336.05 478.055 1337.17 480.68C1338.29 483.304 1338.82 486.143 1338.72 488.995L1403.46 513.914L1374.13 534.87L1317.15 507.994C1312.37 507.516 1307.93 505.301 1304.67 501.768C1301.42 498.236 1299.57 493.632 1299.48 488.828C1299.39 484.024 1301.07 479.354 1304.19 475.704C1307.32 472.054 1311.67 469.676 1316.43 469.021Z" fill="#9E616A"/>
<path d="M1562.59 456.661L1573.54 476.574C1570.9 489.203 1564.06 500.566 1554.13 508.816C1537.37 522.958 1449.69 575.629 1449.69 575.629L1339 520.061L1358.36 494.33L1445.26 523.453C1477.5 493.012 1516.4 470.523 1558.87 457.778L1562.59 456.661Z" fill="#37A000"/>
<path d="M1542.97 786.399C1590.68 786.399 1629.35 773.797 1629.35 758.251C1629.35 742.706 1590.68 730.104 1542.97 730.104C1495.26 730.104 1456.58 742.706 1456.58 758.251C1456.58 773.797 1495.26 786.399 1542.97 786.399Z" fill="#99D27A"/>
<path d="M1348.08 1113.61L1325.15 1107.27L1338.69 1015.77L1372.54 1025.13L1348.08 1113.61Z" fill="#9E616A"/>
<path d="M1347.79 1137.46L1273.82 1117.01L1274.08 1116.08C1276.19 1108.44 1281.25 1101.96 1288.14 1098.05C1295.03 1094.15 1303.19 1093.14 1310.83 1095.25L1310.83 1095.25L1356.01 1107.73L1347.79 1137.46Z" fill="#2F2E41"/>
<path d="M1281.58 1113.9L1259.8 1104.29L1286.52 1015.74L1318.66 1029.93L1281.58 1113.9Z" fill="#9E616A"/>
<path d="M1277.81 1137.46L1207.61 1106.46L1208 1105.57C1211.2 1098.33 1217.15 1092.65 1224.54 1089.79C1231.92 1086.93 1240.14 1087.11 1247.39 1090.31L1247.39 1090.31L1290.27 1109.25L1277.81 1137.46Z" fill="#2F2E41"/>
<path d="M1609.11 689.323C1609.11 689.323 1620.65 725.075 1549.85 770.289L1458.66 861.149L1363.92 1087.79L1307.67 1062.57L1318.7 1033.12L1326.1 1013.36L1329.89 1003.25L1333.95 992.416L1394.17 831.677L1444.75 743.11L1446.22 695.052L1458.66 661.175L1548.93 629.145L1609.11 689.323Z" fill="#3E3D77"/>
<path d="M1560.61 690.247C1560.61 690.247 1572.15 725.999 1501.35 771.213L1410.17 862.074L1315.42 1088.71L1259.17 1063.49L1270.2 1034.05L1277.61 1014.29L1281.39 1004.18L1285.45 993.34L1345.67 832.601L1362.61 802.946C1384.95 763.825 1412.1 727.653 1443.43 695.272L1460.03 678.109L1461.8 651.551L1500.43 630.069L1560.61 690.247Z" fill="#3E3D77"/>
<path d="M1508.87 515.941L1537.2 455.743L1586.64 449C1586.64 449 1625.24 498.18 1615.1 567.286C1611.3 593.201 1608.21 619.001 1608.02 641.647C1607.97 647.673 1613.24 650.364 1613.33 655.812C1613.42 661.163 1603.34 669.88 1606.25 673.517C1610.41 678.529 1612.89 684.723 1613.33 691.222C1609.82 699.572 1503.64 654.335 1459.01 661.048L1508.87 515.941Z" fill="#37A000"/>
<path d="M1578.74 418.821C1591.36 397.594 1584.38 370.156 1563.15 357.538C1541.93 344.92 1514.49 351.898 1501.87 373.126C1489.25 394.353 1496.23 421.791 1517.46 434.409C1538.69 447.027 1566.12 440.049 1578.74 418.821Z" fill="#9E616A"/>
<path d="M1568.89 379.919C1568.81 381.095 1568.69 382.654 1568.55 384.416C1568.41 389.242 1569.77 393.993 1572.45 398.014C1574.95 402.244 1571.96 427.795 1571.96 427.795C1645.21 376.74 1587.33 325.447 1564.69 330.007C1565.17 323.514 1546.7 326.086 1546.7 326.086C1539.67 315.131 1524.25 329.673 1524.25 329.673L1527.23 324.668C1515.26 327.713 1503.42 364.709 1503.42 364.709C1507.48 380.67 1569.37 373.426 1568.89 379.919Z" fill="#2F2E41"/>
<path d="M1284.76 539.749C1309.93 506.271 1329.83 469.137 1343.76 429.639C1344.57 427.276 1344.51 424.704 1343.6 422.38C1342.69 420.055 1340.98 418.13 1338.78 416.946L1252.66 370.798C1251.26 370.045 1249.72 369.621 1248.13 369.557C1246.55 369.492 1244.98 369.79 1243.53 370.427C1242.05 371.069 1240.74 372.039 1239.69 373.263C1238.65 374.488 1237.9 375.935 1237.49 377.494C1227.47 415.556 1208.63 450.724 1182.49 480.152C1181.41 481.35 1180.62 482.777 1180.18 484.326C1179.74 485.875 1179.66 487.503 1179.94 489.088C1180.22 490.648 1180.84 492.125 1181.77 493.407C1182.7 494.689 1183.91 495.741 1185.31 496.485L1271.44 542.634C1273.64 543.808 1276.19 544.163 1278.63 543.635C1281.07 543.107 1283.24 541.73 1284.76 539.749Z" fill="#CCCCCC"/>
<path d="M1278.89 535.332C1278.42 535.91 1277.77 536.309 1277.05 536.459C1276.32 536.608 1275.57 536.5 1274.91 536.153L1188.78 490.003C1188.36 489.785 1188 489.473 1187.73 489.092C1187.45 488.71 1187.26 488.27 1187.18 487.805C1187.09 487.314 1187.12 486.809 1187.26 486.329C1187.4 485.85 1187.64 485.409 1187.98 485.041C1214.89 454.746 1234.29 418.542 1244.61 379.358C1244.73 378.874 1244.96 378.424 1245.28 378.044C1245.6 377.663 1246.01 377.363 1246.46 377.165C1246.9 376.972 1247.37 376.882 1247.84 376.902C1248.31 376.921 1248.77 377.05 1249.18 377.278L1335.31 423.426C1335.96 423.779 1336.47 424.348 1336.75 425.036C1337.03 425.724 1337.05 426.487 1336.83 427.193C1323.14 465.984 1303.6 502.453 1278.89 535.332Z" fill="white"/>
<path d="M1248.75 421.123L1308.16 455.942C1314.07 459.407 1319.42 450.229 1313.52 446.77L1254.11 411.95C1248.2 408.486 1242.85 417.664 1248.75 421.123Z" fill="#6C63FF"/>
<path d="M1238.13 440.599L1297.53 475.418C1303.44 478.882 1308.8 469.704 1302.9 466.245L1243.49 431.426C1237.58 427.962 1232.23 437.14 1238.13 440.599Z" fill="#6C63FF"/>
<path d="M1225.74 461.845L1285.14 496.664C1291.05 500.128 1296.4 490.95 1290.5 487.491L1231.1 452.672C1225.19 449.208 1219.84 458.386 1225.74 461.845Z" fill="#6C63FF"/>
<path d="M1213.34 479.55L1272.75 514.369C1278.66 517.834 1284.01 508.656 1278.11 505.197L1218.7 470.377C1212.79 466.913 1207.44 476.091 1213.34 479.55Z" fill="#6C63FF"/>
<path d="M1484.15 684.36L1506.45 734.511C1506.99 735.711 1507.22 737.027 1507.12 738.339C1507.03 739.651 1506.6 740.917 1505.89 742.024C1505.05 743.347 1503.84 744.392 1502.41 745.028C1500.98 745.664 1499.39 745.863 1497.85 745.599C1497.33 745.519 1496.81 745.381 1496.31 745.189C1494.34 744.428 1492.75 742.916 1491.89 740.986L1469.59 690.835C1469.17 689.879 1468.93 688.849 1468.91 687.803C1468.88 686.757 1469.06 685.716 1469.44 684.739C1470.19 682.767 1471.7 681.176 1473.64 680.318C1475.57 679.459 1477.76 679.403 1479.73 680.161C1481.7 680.919 1483.29 682.43 1484.15 684.36Z" fill="#6C63FF"/>
<path d="M1504.66 730.467L1509.12 740.589L1511.41 754.938C1511.56 755.883 1511.39 756.851 1510.94 757.692C1510.48 758.533 1509.76 759.2 1508.89 759.588C1508.01 759.977 1507.03 760.066 1506.1 759.841C1505.17 759.617 1504.34 759.091 1503.74 758.346L1494.5 746.842L1490.1 736.942L1504.66 730.467Z" fill="#3F3D56"/>
<path d="M1464.63 670.407L1467.83 690.485C1467.93 691.143 1468.19 691.767 1468.57 692.311C1468.96 692.854 1469.46 693.302 1470.05 693.619C1470.63 693.937 1471.28 694.116 1471.95 694.142C1472.61 694.168 1473.27 694.041 1473.88 693.771L1477.05 692.362L1483.16 706.113C1483.36 706.541 1483.71 706.876 1484.15 707.044C1484.59 707.212 1485.07 707.199 1485.5 707.008C1485.93 706.818 1486.26 706.465 1486.43 706.027C1486.6 705.589 1486.59 705.103 1486.4 704.674L1480.29 690.923L1483.45 689.514C1484.5 689.046 1485.33 688.181 1485.74 687.109C1486.15 686.036 1486.13 684.843 1485.66 683.791C1485.51 683.442 1485.31 683.116 1485.07 682.819L1472.3 666.998C1471.7 666.254 1470.87 665.729 1469.94 665.504C1469.01 665.28 1468.03 665.369 1467.16 665.758C1466.28 666.147 1465.56 666.813 1465.11 667.654C1464.65 668.495 1464.48 669.463 1464.63 670.407Z" fill="#3F3D56"/>
<path d="M1473.89 706.647C1474.39 703.838 1475.5 701.173 1477.14 698.841C1478.79 696.508 1480.92 694.564 1483.4 693.146C1485.88 691.727 1488.63 690.869 1491.48 690.632C1494.32 690.395 1497.18 690.784 1499.86 691.772L1543.89 638.164L1554.55 672.599L1511.11 718.227C1509.15 722.615 1505.65 726.132 1501.27 728.111C1496.89 730.091 1491.94 730.396 1487.35 728.969C1482.76 727.542 1478.86 724.481 1476.38 720.367C1473.9 716.253 1473.01 711.371 1473.89 706.647Z" fill="#9E616A"/>
<path d="M1530.74 702.707L1511.34 674.698L1566.41 601.283L1538.04 540.501L1540.11 468.202L1563.55 463.872L1563.84 464.018C1575.23 470.578 1584.04 480.838 1588.8 493.095C1594.65 507.713 1607.7 562.589 1614.96 593.997C1616.39 600.084 1616.23 606.434 1614.51 612.443C1612.78 618.452 1609.55 623.92 1605.12 628.326L1530.74 702.707Z" fill="#37A000"/>
<path d="M983.352 567.828C983.19 569.189 983.137 570.56 983.191 571.928L883.913 644.155L856.639 632.084L833.043 670.865L879.25 696.925C882.982 699.03 887.297 699.868 891.547 699.312C895.796 698.756 899.751 696.837 902.817 693.843L1002.74 596.246C1007.85 597.546 1013.24 597.257 1018.19 595.419C1023.13 593.581 1027.4 590.281 1030.43 585.957C1033.45 581.633 1035.09 576.491 1035.12 571.214C1035.15 565.937 1033.58 560.776 1030.6 556.416C1027.63 552.057 1023.4 548.706 1018.47 546.81C1013.55 544.914 1008.16 544.561 1003.04 545.8C997.906 547.039 993.275 549.81 989.759 553.745C986.243 557.68 984.008 562.592 983.352 567.828Z" fill="#FFB6B6"/>
<path d="M880.703 646.795L851.751 695.038C850.928 696.41 849.818 697.589 848.497 698.494C847.177 699.399 845.677 700.009 844.099 700.282C842.522 700.555 840.904 700.485 839.356 700.076C837.809 699.668 836.367 698.931 835.13 697.915L791.782 662.314C784.785 658.059 779.76 651.203 777.809 643.249C775.859 635.295 777.141 626.892 781.376 619.883C785.611 612.873 792.452 607.828 800.4 605.854C808.348 603.88 816.755 605.138 823.777 609.352L875.422 630.774C876.901 631.388 878.229 632.313 879.318 633.487C880.407 634.66 881.23 636.055 881.731 637.575C882.232 639.096 882.4 640.706 882.222 642.297C882.045 643.888 881.527 645.422 880.703 646.795Z" fill="#6C63FF"/>
<path d="M756.057 1066.18H812.807V972.141H756.057V1066.18Z" fill="#99D27A"/>
<path d="M809.961 1021.9L802.678 1032.64L938.876 1125.06L946.16 1114.32L809.961 1021.9Z" fill="#99D27A"/>
<path d="M758.902 1021.9L622.703 1114.32L629.987 1125.06L766.185 1032.64L758.902 1021.9Z" fill="#99D27A"/>
<path d="M943.119 1137.46C952.969 1137.46 960.954 1129.47 960.954 1119.62C960.954 1109.77 952.969 1101.79 943.119 1101.79C933.268 1101.79 925.283 1109.77 925.283 1119.62C925.283 1129.47 933.268 1137.46 943.119 1137.46Z" fill="#CACACA"/>
<path d="M784.219 1137.46C794.07 1137.46 802.055 1129.47 802.055 1119.62C802.055 1109.77 794.07 1101.79 784.219 1101.79C774.369 1101.79 766.384 1109.77 766.384 1119.62C766.384 1129.47 774.369 1137.46 784.219 1137.46Z" fill="#99D27A"/>
<path d="M626.344 1137.52C636.195 1137.52 644.18 1129.54 644.18 1119.69C644.18 1109.84 636.195 1101.85 626.344 1101.85C616.494 1101.85 608.509 1109.84 608.509 1119.69C608.509 1129.54 616.494 1137.52 626.344 1137.52Z" fill="#99D27A"/>
<path d="M789.679 1027.55H776.708V1119.97H789.679V1027.55Z" fill="#99D27A"/>
<path d="M772.271 1014.3H796.592V889.45H772.271V1014.3Z" fill="#99D27A"/>
<path d="M715.31 908.84V879.655C715.316 874.281 717.453 869.13 721.252 865.33C725.052 861.531 730.204 859.393 735.577 859.387H844.212C849.585 859.393 854.737 861.531 858.536 865.33C862.336 869.13 864.473 874.281 864.479 879.655V908.84C864.473 914.214 862.336 919.365 858.536 923.165C854.737 926.965 849.585 929.102 844.212 929.108H735.577C730.204 929.102 725.052 926.965 721.252 923.165C717.453 919.365 715.316 914.214 715.31 908.84Z" fill="#3F3D56"/>
<path d="M911.516 1108.34L941.558 1108.33L955.853 1030.41L911.513 1030.41L911.516 1108.34Z" fill="#FFB8B8"/>
<path d="M903.855 1137.46L1000.73 1137.46V1136.23C1000.73 1131.28 999.754 1126.38 997.859 1121.8C995.964 1117.23 993.187 1113.07 989.686 1109.57C986.185 1106.07 982.028 1103.29 977.454 1101.39C972.879 1099.5 967.976 1098.52 963.024 1098.52H963.021L903.854 1098.53L903.855 1137.46Z" fill="#2F2E41"/>
<path d="M956.453 1060.02L1016.35 925.704C1021.35 914.383 1021.9 901.595 1017.9 889.885C1013.89 878.175 1005.62 868.404 994.738 862.517L864.822 792.852L805.539 787.809L750.855 782.839L750.461 783.506C749.956 784.358 738.199 804.667 746.146 826.935C752.175 843.826 767.856 857.02 792.754 866.15C850.868 887.459 918.002 905.671 944.168 912.51C945.324 912.806 946.405 913.343 947.339 914.087C948.273 914.83 949.039 915.762 949.587 916.823C950.136 917.871 950.462 919.022 950.545 920.202C950.628 921.382 950.465 922.567 950.068 923.682L894.423 1048.7C893.842 1050.28 893.633 1051.98 893.811 1053.66C893.99 1055.34 894.552 1056.96 895.454 1058.38C896.356 1059.81 897.574 1061.01 899.014 1061.9C900.453 1062.78 902.077 1063.32 903.758 1063.47L945.337 1066.5C945.69 1066.53 946.041 1066.55 946.391 1066.55C948.52 1066.55 950.604 1065.93 952.39 1064.77C954.175 1063.61 955.587 1061.96 956.453 1060.02Z" fill="#2F2E41"/>
<path d="M891.913 1108.34L921.955 1108.33L936.25 1030.41L891.909 1030.41L891.913 1108.34Z" fill="#FFB8B8"/>
<path d="M884.25 1137.46L981.124 1137.46V1136.23C981.124 1131.28 980.149 1126.38 978.254 1121.8C976.359 1117.23 973.582 1113.07 970.08 1109.57C966.579 1106.07 962.423 1103.29 957.848 1101.39C953.273 1099.5 948.37 1098.52 943.419 1098.52H943.415L884.248 1098.53L884.25 1137.46Z" fill="#2F2E41"/>
<path d="M934.398 1067.37L994.293 933.055C999.293 921.735 999.846 908.946 995.841 897.236C991.836 885.527 983.568 875.755 972.682 869.868L842.767 800.203L783.484 795.161L740.652 791.445L740.658 790.858C740.153 791.71 728.396 812.018 736.344 834.287C742.372 851.178 745.8 864.371 770.698 873.501C828.813 894.81 895.947 913.022 922.112 919.862C923.269 920.158 924.349 920.695 925.283 921.438C926.217 922.181 926.983 923.114 927.531 924.174C928.08 925.222 928.406 926.373 928.489 927.553C928.572 928.734 928.41 929.919 928.012 931.033L872.367 1056.05C871.786 1057.64 871.577 1059.33 871.756 1061.01C871.934 1062.69 872.496 1064.31 873.398 1065.74C874.3 1067.16 875.518 1068.36 876.958 1069.25C878.398 1070.13 880.021 1070.67 881.702 1070.83L923.281 1073.85C923.634 1073.89 923.985 1073.9 924.335 1073.9C926.464 1073.9 928.548 1073.28 930.334 1072.12C932.12 1070.96 933.531 1069.31 934.398 1067.37Z" fill="#2F2E41"/>
<path d="M896.826 488.851C904.517 456.511 884.535 424.06 852.196 416.369C819.856 408.678 787.405 428.66 779.714 461C772.023 493.34 792.005 525.791 824.344 533.482C856.684 541.173 889.135 521.191 896.826 488.851Z" fill="#FFB8B8"/>
<path d="M1045.74 706.177C1070.91 672.699 1090.81 635.565 1104.74 596.067C1105.55 593.704 1105.49 591.132 1104.58 588.808C1103.67 586.483 1101.96 584.558 1099.76 583.374L1013.64 537.226C1012.24 536.473 1010.7 536.049 1009.11 535.985C1007.53 535.92 1005.96 536.218 1004.51 536.855C1003.03 537.497 1001.72 538.467 1000.67 539.691C999.628 540.916 998.876 542.363 998.474 543.922C988.45 581.984 969.606 617.152 943.469 646.58C942.393 647.778 941.604 649.205 941.163 650.754C940.722 652.303 940.641 653.931 940.924 655.516C941.197 657.076 941.822 658.553 942.752 659.835C943.682 661.117 944.892 662.169 946.29 662.913L1032.42 709.062C1034.62 710.236 1037.17 710.591 1039.61 710.063C1042.05 709.535 1044.22 708.158 1045.74 706.177Z" fill="#CCCCCC"/>
<path d="M1039.87 701.76C1039.4 702.338 1038.75 702.737 1038.03 702.887C1037.3 703.037 1036.55 702.929 1035.89 702.581L949.763 656.431C949.345 656.213 948.983 655.901 948.706 655.52C948.428 655.139 948.243 654.698 948.164 654.233C948.074 653.742 948.099 653.237 948.238 652.757C948.376 652.278 948.623 651.837 948.961 651.469C975.868 621.174 995.267 584.97 1005.59 545.787C1005.71 545.302 1005.94 544.853 1006.26 544.472C1006.58 544.092 1006.99 543.791 1007.44 543.593C1007.88 543.4 1008.35 543.31 1008.82 543.33C1009.29 543.349 1009.75 543.478 1010.17 543.706L1096.29 589.854C1096.94 590.207 1097.45 590.776 1097.73 591.464C1098.01 592.152 1098.04 592.915 1097.81 593.621C1084.13 632.413 1064.58 668.881 1039.87 701.76Z" fill="white"/>
<path d="M1009.73 587.552L1069.14 622.371C1075.05 625.835 1080.4 616.657 1074.5 613.198L1015.1 578.379C1009.18 574.914 1003.83 584.093 1009.73 587.552Z" fill="#CCCCCC"/>
<path d="M999.109 607.027L1058.51 641.846C1064.42 645.311 1069.78 636.133 1063.88 632.674L1004.47 597.854C998.561 594.39 993.208 603.568 999.109 607.027Z" fill="#CCCCCC"/>
<path d="M990.764 626.427L1044.79 658.499C1050.17 661.69 1055.91 655.093 1050.55 651.907L996.522 619.835C991.146 616.644 985.397 623.241 990.764 626.427Z" fill="#CCCCCC"/>
<path d="M974.322 645.979L1033.73 680.798C1039.64 684.262 1044.99 675.084 1039.09 671.625L979.684 636.806C973.773 633.341 968.421 642.52 974.322 645.979Z" fill="#CCCCCC"/>
<path d="M872.973 797.727L753.863 797.014L753.831 796.167C751.56 736.405 758.864 682.27 776.16 630.669C776.405 628.738 776.669 626.673 776.928 624.647C779.883 601.561 782.228 583.232 804.181 576.406C802.352 573.974 801.274 571.06 801.08 568.023C800.941 566.005 801.206 563.98 801.858 562.065C802.51 560.15 803.536 558.384 804.877 556.869C806.16 555.407 807.722 554.214 809.47 553.361C811.219 552.508 813.12 552.011 815.062 551.9L857.458 550.457C859.686 550.441 861.854 551.177 863.613 552.543C866.841 554.941 869.11 558.41 870.013 562.328C870.916 566.246 870.394 570.358 868.542 573.926C868.043 574.92 867.852 575.373 867.779 575.571C869.286 583.467 873.758 592.847 878.49 602.773C885.266 616.986 892.946 633.093 894.92 650.326C895.987 659.631 895.544 669.047 893.608 678.21C892.724 683.148 892.521 688.184 893.003 693.177C893.39 700.58 893.756 707.571 889.571 714.331C888.504 716.164 887.283 718.118 885.851 720.282L879.964 734.355L872.973 797.727Z" fill="#B8E59E"/>
<path d="M694.23 881.36V637.982C694.239 630.051 697.394 622.448 703.002 616.84C708.609 611.232 716.213 608.078 724.143 608.069H732.417C740.347 608.078 747.951 611.232 753.559 616.84C759.166 622.448 762.321 630.051 762.33 637.982V881.36C762.321 889.29 759.166 896.893 753.559 902.501C747.951 908.109 740.347 911.263 732.417 911.272H724.143C716.213 911.263 708.609 908.109 703.002 902.501C697.394 896.893 694.239 889.29 694.23 881.36Z" fill="#3F3D56"/>
<path d="M1013.64 662.273C1012.78 663.343 1012.01 664.479 1011.34 665.67L888.894 674.611L872.1 649.963L831.589 670.445L857.078 716.969C859.137 720.728 862.36 723.717 866.262 725.488C870.165 727.259 874.537 727.716 878.721 726.791L1015.1 696.641C1018.76 700.445 1023.49 703.044 1028.66 704.095C1033.83 705.145 1039.2 704.595 1044.05 702.52C1048.91 700.444 1053.01 696.941 1055.82 692.475C1058.63 688.01 1060.02 682.794 1059.8 677.522C1059.57 672.25 1057.75 667.171 1054.57 662.961C1051.38 658.751 1047 655.609 1041.99 653.954C1036.97 652.298 1031.58 652.208 1026.52 653.694C1021.45 655.18 1016.96 658.172 1013.64 662.273Z" fill="#FFB6B6"/>
<path d="M884.773 675.159L834.718 700.851C833.294 701.582 831.729 701.998 830.13 702.069C828.53 702.141 826.935 701.867 825.451 701.266C823.967 700.665 822.63 699.752 821.531 698.588C820.432 697.424 819.597 696.037 819.082 694.521L801.057 641.403C797.361 634.111 796.703 625.652 799.228 617.876C801.752 610.1 807.253 603.641 814.527 599.91C792.339 611.299 838.55 578.948 856.188 613.309L888.744 658.764C889.676 660.066 890.316 661.553 890.621 663.124C890.926 664.696 890.889 666.315 890.512 667.871C890.136 669.426 889.428 670.883 888.437 672.14C887.447 673.398 886.197 674.427 884.773 675.159Z" fill="#B8E59E"/>
<path d="M811.08 533.467C807.457 533.467 803.46 531.721 798.953 528.183C785.691 517.77 776.212 503.294 771.97 486.975C767.727 470.656 768.956 453.396 775.466 437.842C778.743 430.015 784.872 419.376 795.46 413.141C803.071 408.662 812.012 407.043 819.795 405.878C826.533 404.868 833.356 404.064 840.073 403.492C848.1 402.805 857.371 402.342 865.827 405.555C872.023 407.909 877.296 412.068 882.396 416.089C884.173 417.49 886.011 418.941 887.853 420.282C892.313 423.762 897.458 426.261 902.951 427.615C904.11 427.855 905.204 428.342 906.159 429.041C907.114 429.741 907.908 430.637 908.486 431.67C909.077 432.719 909.435 433.883 909.537 435.083C909.639 436.283 909.482 437.491 909.077 438.625C908.282 440.856 907.564 442.867 909.016 445.045C909.555 445.813 910.273 446.437 911.108 446.862C911.943 447.288 912.87 447.502 913.807 447.487C914.302 447.479 914.791 447.594 915.229 447.823C915.668 448.052 916.042 448.387 916.319 448.797C916.599 449.204 916.776 449.673 916.833 450.164C916.89 450.654 916.826 451.152 916.647 451.612L916.414 452.212C917.037 452.27 917.637 452.479 918.161 452.82C918.686 453.161 919.12 453.625 919.425 454.171C919.88 454.949 920.056 455.858 919.923 456.749C919.791 457.64 919.359 458.459 918.698 459.071C913.327 464.184 906.63 467.688 899.368 469.188C894.398 470.162 889.285 470.151 884.32 469.153L883.521 468.997L883.62 468.112C863.535 460.949 845.405 473.105 835.069 487.003L833.576 486.061C833.833 485.543 833.982 484.979 834.014 484.402C834.047 483.824 833.963 483.247 833.766 482.703C833.558 482.051 833.223 481.446 832.781 480.923C832.339 480.401 831.798 479.97 831.189 479.657C829.958 479.149 828.605 479.017 827.299 479.278C825.993 479.538 824.793 480.18 823.852 481.121C822.893 482.126 822.153 483.32 821.681 484.627C821.209 485.933 821.014 487.324 821.108 488.71C821.38 491.648 822.128 494.521 823.324 497.218C823.81 498.508 824.313 499.843 824.721 501.188C827.009 508.83 826.399 517.047 823.008 524.267C821.444 527.561 818.615 531.761 814.021 533.063C813.064 533.333 812.074 533.469 811.08 533.467Z" fill="#2F2E41"/>
<path d="M1789.41 1141H360.089C359.531 1141 358.997 1140.78 358.603 1140.38C358.209 1139.99 357.987 1139.45 357.987 1138.89C357.987 1138.33 358.209 1137.8 358.603 1137.4C358.997 1137.01 359.531 1136.79 360.089 1136.78H1789.41C1789.97 1136.78 1790.51 1137.01 1790.91 1137.4C1791.3 1137.8 1791.52 1138.33 1791.52 1138.89C1791.52 1139.45 1791.3 1139.99 1790.91 1140.38C1790.51 1140.78 1789.97 1141 1789.41 1141Z" fill="#CACACA"/>
</g>
<defs>
<clipPath id="clip0_80_4293">
<rect width="1669" height="1200" fill="white"/>
</clipPath>
</defs>
</svg>
